Castoro-Italic.ufo
<glyph name="exclam" format="2">
  <advance width="310"/>
  <unicode hex="0021"/>
  <outline>
    <contour>
      <point x="142" y="209" type="line"/>
      <point x="154" y="207"/>
      <point x="164" y="206"/>
      <point x="176" y="206" type="curve"/>
      <point x="295" y="593" type="line" smooth="yes"/>
      <point x="300" y="610"/>
      <point x="310" y="637"/>
      <point x="310" y="658" type="curve" smooth="yes"/>
      <point x="310" y="687"/>
      <point x="291" y="711"/>
      <point x="250" y="711" type="curve" smooth="yes"/>
      <point x="207" y="711"/>
      <point x="178" y="685"/>
      <point x="175" y="647" type="curve" smooth="yes"/>
    </contour>
    <contour>
      <point x="127" y="-13" type="curve" smooth="yes"/>
      <point x="171" y="-13"/>
      <point x="203" y="23"/>
      <point x="203" y="67" type="curve" smooth="yes"/>
      <point x="203" y="104"/>
      <point x="179" y="133"/>
      <point x="140" y="133" type="curve" smooth="yes"/>
      <point x="97" y="133"/>
      <point x="62" y="97"/>
      <point x="62" y="54" type="curve" smooth="yes"/>
      <point x="62" y="17"/>
      <point x="88" y="-13"/>
    </contour>
  </outline>
</glyph>
<glyph name="dollar" format="2">
  <advance width="510"/>
  <unicode hex="0024"/>
  <outline>
    <contour>
      <point x="252" y="342" type="line"/>
      <point x="324" y="705" type="line"/>
      <point x="365" y="705"/>
      <point x="365" y="705"/>
      <point x="369" y="704" type="curve"/>
      <point x="295" y="327" type="line"/>
    </contour>
    <contour>
      <point x="290" y="294" type="line"/>
      <point x="214" y="-103" type="line"/>
      <point x="211" y="-103"/>
      <point x="209" y="-104"/>
      <point x="201" y="-104" type="curve" smooth="yes"/>
      <point x="192" y="-104"/>
      <point x="174" y="-103"/>
      <point x="168" y="-102" type="curve"/>
      <point x="247" y="311" type="line"/>
    </contour>
    <contour>
      <point x="422" y="539" type="line"/>
      <point x="384" y="566"/>
      <point x="363" y="576"/>
      <point x="321" y="576" type="curve" smooth="yes"/>
      <point x="231" y="576"/>
      <point x="179" y="530"/>
      <point x="179" y="467" type="curve" smooth="yes"/>
      <point x="179" y="411"/>
      <point x="220" y="393"/>
      <point x="293" y="361" type="curve" smooth="yes"/>
      <point x="375" y="325"/>
      <point x="464" y="280"/>
      <point x="464" y="173" type="curve" smooth="yes"/>
      <point x="464" y="57"/>
      <point x="360" y="-7"/>
      <point x="224" y="-7" type="curve" smooth="yes"/>
      <point x="123" y="-7"/>
      <point x="9" y="28"/>
      <point x="9" y="101" type="curve" smooth="yes"/>
      <point x="9" y="132"/>
      <point x="29" y="154"/>
      <point x="58" y="154" type="curve" smooth="yes"/>
      <point x="96" y="154"/>
      <point x="127" y="117"/>
      <point x="132" y="43" type="curve"/>
      <point x="96" y="76" type="line"/>
      <point x="122" y="57"/>
      <point x="157" y="32"/>
      <point x="224" y="32" type="curve" smooth="yes"/>
      <point x="323" y="32"/>
      <point x="368" y="86"/>
      <point x="368" y="146" type="curve" smooth="yes"/>
      <point x="368" y="212"/>
      <point x="314" y="237"/>
      <point x="259" y="261" type="curve" smooth="yes"/>
      <point x="178" y="297"/>
      <point x="89" y="338"/>
      <point x="89" y="437" type="curve" smooth="yes"/>
      <point x="89" y="545"/>
      <point x="196" y="616"/>
      <point x="320" y="616" type="curve" smooth="yes"/>
      <point x="412" y="616"/>
      <point x="503" y="577"/>
      <point x="503" y="512" type="curve" smooth="yes"/>
      <point x="503" y="483"/>
      <point x="484" y="465"/>
      <point x="455" y="465" type="curve" smooth="yes"/>
      <point x="423" y="465"/>
      <point x="383" y="488"/>
      <point x="379" y="574" type="curve"/>
    </contour>
  </outline>
  <guideline angle="0" x="0" y="576"/>
</glyph>
<glyph name="ampersand" format="2">
  <advance width="821"/>
  <unicode hex="0026"/>
  <outline>
    <contour>
      <point x="389" y="675" type="curve" smooth="yes"/>
      <point x="422" y="675"/>
      <point x="449" y="667"/>
      <point x="473" y="656" type="curve"/>
      <point x="439" y="678" type="line"/>
      <point x="440" y="635"/>
      <point x="462" y="580"/>
      <point x="512" y="580" type="curve" smooth="yes"/>
      <point x="547" y="580"/>
      <point x="559" y="606"/>
      <point x="559" y="626" type="curve" smooth="yes"/>
      <point x="559" y="668"/>
      <point x="506" y="713"/>
      <point x="398" y="713" type="curve" smooth="yes"/>
      <point x="259" y="713"/>
      <point x="146" y="639"/>
      <point x="146" y="540" type="curve" smooth="yes"/>
      <point x="146" y="471"/>
      <point x="199" y="429"/>
      <point x="233" y="420" type="curve"/>
      <point x="232" y="402" type="line"/>
      <point x="253" y="421" type="line"/>
      <point x="138" y="394"/>
      <point x="45" y="323"/>
      <point x="45" y="204" type="curve" smooth="yes"/>
      <point x="45" y="59"/>
      <point x="182" y="-12"/>
      <point x="330" y="-12" type="curve" smooth="yes"/>
      <point x="520" y="-12"/>
      <point x="650" y="101"/>
      <point x="650" y="243" type="curve" smooth="yes"/>
      <point x="650" y="268"/>
      <point x="646" y="302"/>
      <point x="630" y="336" type="curve"/>
      <point x="656" y="366" type="line"/>
      <point x="598" y="363" type="line"/>
      <point x="622" y="346"/>
      <point x="652" y="315"/>
      <point x="697" y="315" type="curve" smooth="yes"/>
      <point x="740" y="315"/>
      <point x="791" y="342"/>
      <point x="846" y="443" type="curve"/>
      <point x="840" y="450"/>
      <point x="832" y="456"/>
      <point x="821" y="461" type="curve"/>
      <point x="786" y="405"/>
      <point x="753" y="393"/>
      <point x="730" y="393" type="curve" smooth="yes"/>
      <point x="704" y="393"/>
      <point x="682" y="406"/>
      <point x="653" y="423" type="curve" smooth="yes"/>
      <point x="624" y="440"/>
      <point x="588" y="461"/>
      <point x="536" y="461" type="curve" smooth="yes"/>
      <point x="441" y="461"/>
      <point x="364" y="391"/>
      <point x="364" y="305" type="curve" smooth="yes"/>
      <point x="364" y="243"/>
      <point x="405" y="199"/>
      <point x="458" y="199" type="curve" smooth="yes"/>
      <point x="496" y="199"/>
      <point x="513" y="221"/>
      <point x="513" y="247" type="curve" smooth="yes"/>
      <point x="513" y="281"/>
      <point x="482" y="300"/>
      <point x="443" y="300" type="curve" smooth="yes"/>
      <point x="430" y="300"/>
      <point x="416" y="298"/>
      <point x="402" y="294" type="curve"/>
      <point x="413" y="286" type="line"/>
      <point x="409" y="295"/>
      <point x="406" y="304"/>
      <point x="406" y="317" type="curve" smooth="yes"/>
      <point x="406" y="355"/>
      <point x="430" y="391"/>
      <point x="493" y="391" type="curve" smooth="yes"/>
      <point x="566" y="391"/>
      <point x="611" y="342"/>
      <point x="611" y="258" type="curve" smooth="yes"/>
      <point x="611" y="112"/>
      <point x="476" y="46"/>
      <point x="357" y="46" type="curve" smooth="yes"/>
      <point x="259" y="46"/>
      <point x="159" y="90"/>
      <point x="159" y="218" type="curve" smooth="yes"/>
      <point x="159" y="327"/>
      <point x="232" y="391"/>
      <point x="352" y="413" type="curve"/>
      <point x="356" y="424"/>
      <point x="358" y="436"/>
      <point x="360" y="447" type="curve"/>
      <point x="279" y="451"/>
      <point x="251" y="494"/>
      <point x="251" y="548" type="curve" smooth="yes"/>
      <point x="251" y="619"/>
      <point x="300" y="675"/>
    </contour>
  </outline>
</glyph>
<glyph name="quotesingle" format="2">
  <advance width="223"/>
  <unicode hex="0027"/>
  <outline>
    <contour>
      <point x="238" y="638" type="line" smooth="yes"/>
      <point x="245" y="657"/>
      <point x="250" y="671"/>
      <point x="250" y="676" type="curve" smooth="yes"/>
      <point x="250" y="696"/>
      <point x="224" y="711"/>
      <point x="195" y="711" type="curve" smooth="yes"/>
      <point x="171" y="711"/>
      <point x="140" y="697"/>
      <point x="139" y="678" type="curve" smooth="yes"/>
      <point x="125" y="418" type="line"/>
      <point x="155" y="418" type="line"/>
    </contour>
  </outline>
  <guideline angle="79.01" x="7" y="0"/>
  <guideline angle="79.0044" x="119" y="0"/>
</glyph>
<glyph name="parenleft" format="2">
  <advance width="397"/>
  <unicode hex="0028"/>
  <outline>
    <contour>
      <point x="320" y="754" type="line"/>
      <point x="160" y="646"/>
      <point x="81" y="488"/>
      <point x="81" y="287" type="curve" smooth="yes"/>
      <point x="81" y="88"/>
      <point x="159" y="-69"/>
      <point x="320" y="-184" type="curve"/>
      <point x="342" y="-163" type="line"/>
      <point x="227" y="-72"/>
      <point x="168" y="78"/>
      <point x="168" y="285" type="curve" smooth="yes"/>
      <point x="168" y="492"/>
      <point x="227" y="641"/>
      <point x="342" y="732" type="curve"/>
    </contour>
  </outline>
</glyph>
<glyph name="asterisk" format="2">
  <advance width="458"/>
  <unicode hex="002A"/>
  <outline>
    <contour>
      <point x="269" y="512" type="line"/>
      <point x="226" y="477"/>
      <point x="178" y="457"/>
      <point x="159" y="447" type="curve" smooth="yes"/>
      <point x="141" y="437"/>
      <point x="133" y="406"/>
      <point x="133" y="388" type="curve" smooth="yes"/>
      <point x="133" y="368"/>
      <point x="145" y="358"/>
      <point x="164" y="358" type="curve" smooth="yes"/>
      <point x="182" y="358"/>
      <point x="203" y="365"/>
      <point x="218" y="379" type="curve"/>
      <point x="225" y="386"/>
      <point x="239" y="442"/>
      <point x="288" y="505" type="curve"/>
    </contour>
    <contour>
      <point x="290" y="504" type="line"/>
      <point x="352" y="505"/>
      <point x="402" y="489"/>
      <point x="419" y="489" type="curve" smooth="yes"/>
      <point x="444" y="489"/>
      <point x="481" y="517"/>
      <point x="481" y="541" type="curve" smooth="yes"/>
      <point x="481" y="562"/>
      <point x="450" y="579"/>
      <point x="420" y="579" type="curve" smooth="yes"/>
      <point x="393" y="579"/>
      <point x="371" y="546"/>
      <point x="286" y="521" type="curve"/>
    </contour>
    <contour>
      <point x="285" y="517" type="line"/>
      <point x="228" y="556"/>
      <point x="205" y="587"/>
      <point x="187" y="604" type="curve"/>
      <point x="174" y="617"/>
      <point x="161" y="620"/>
      <point x="142" y="620" type="curve" smooth="yes"/>
      <point x="121" y="620"/>
      <point x="98" y="609"/>
      <point x="98" y="588" type="curve" smooth="yes"/>
      <point x="98" y="568"/>
      <point x="114" y="542"/>
      <point x="137" y="530" type="curve" smooth="yes"/>
      <point x="155" y="521"/>
      <point x="201" y="531"/>
      <point x="279" y="503" type="curve"/>
    </contour>
    <contour>
      <point x="289" y="509" type="line"/>
      <point x="304" y="569"/>
      <point x="347" y="627"/>
      <point x="347" y="648" type="curve" smooth="yes"/>
      <point x="347" y="678"/>
      <point x="330" y="711"/>
      <point x="307" y="711" type="curve" smooth="yes"/>
      <point x="279" y="711"/>
      <point x="256" y="667"/>
      <point x="256" y="649" type="curve" smooth="yes"/>
      <point x="256" y="637"/>
      <point x="276" y="576"/>
      <point x="274" y="512" type="curve"/>
    </contour>
    <contour>
      <point x="275" y="504" type="line"/>
      <point x="296" y="451"/>
      <point x="298" y="398"/>
      <point x="302" y="379" type="curve"/>
      <point x="309" y="354"/>
      <point x="342" y="331"/>
      <point x="363" y="331" type="curve" smooth="yes"/>
      <point x="382" y="331"/>
      <point x="393" y="350"/>
      <point x="393" y="372" type="curve" smooth="yes"/>
      <point x="393" y="384"/>
      <point x="390" y="398"/>
      <point x="384" y="411" type="curve" smooth="yes"/>
      <point x="379" y="422"/>
      <point x="323" y="460"/>
      <point x="289" y="517" type="curve"/>
    </contour>
  </outline>
  <guideline angle="90" x="282" y="0"/>
</glyph>
<glyph name="hyphen" format="2">
  <advance width="340"/>
  <unicode hex="002D"/>
  <outline>
    <contour>
      <point x="288" y="215" type="line"/>
      <point x="296" y="241"/>
      <point x="301" y="264"/>
      <point x="307" y="289" type="curve"/>
      <point x="53" y="289" type="line"/>
      <point x="45" y="263"/>
      <point x="40" y="241"/>
      <point x="34" y="215" type="curve"/>
    </contour>
  </outline>
</glyph>
<glyph name="period" format="2">
  <advance width="288"/>
  <unicode hex="002E"/>
  <outline>
    <contour>
      <point x="102" y="-12" type="curve" smooth="yes"/>
      <point x="148" y="-12"/>
      <point x="181" y="25"/>
      <point x="181" y="69" type="curve" smooth="yes"/>
      <point x="181" y="107"/>
      <point x="156" y="136"/>
      <point x="115" y="136" type="curve" smooth="yes"/>
      <point x="70" y="136"/>
      <point x="34" y="100"/>
      <point x="34" y="56" type="curve" smooth="yes"/>
      <point x="34" y="18"/>
      <point x="61" y="-12"/>
    </contour>
  </outline>
  <guideline angle="79.01" x="22" y="0"/>
  <guideline angle="79.0044" x="169" y="0"/>
</glyph>
<glyph name="slash" format="2">
  <advance width="370"/>
  <unicode hex="002F"/>
  <outline>
    <contour>
      <point x="432" y="748" type="line"/>
      <point x="368" y="748" type="line"/>
      <point x="-89" y="-177" type="line"/>
      <point x="-22" y="-177" type="line"/>
    </contour>
  </outline>
</glyph>
<glyph name="one" format="2">
  <advance width="372"/>
  <unicode hex="0031"/>
  <outline>
    <contour>
      <point x="343" y="609" type="curve"/>
      <point x="341" y="619"/>
      <point x="338" y="625"/>
      <point x="332" y="632" type="curve"/>
      <point x="242" y="597"/>
      <point x="177" y="575"/>
      <point x="74" y="550" type="curve"/>
      <point x="75" y="538"/>
      <point x="76" y="529"/>
      <point x="78" y="518" type="curve"/>
      <point x="124" y="527"/>
      <point x="159" y="532"/>
      <point x="173" y="532" type="curve" smooth="yes"/>
      <point x="189" y="532"/>
      <point x="194" y="523"/>
      <point x="194" y="512" type="curve" smooth="yes"/>
      <point x="194" y="506"/>
      <point x="193" y="498"/>
      <point x="191" y="488" type="curve" smooth="yes"/>
      <point x="118" y="107" type="line" smooth="yes"/>
      <point x="105" y="40"/>
      <point x="100" y="39"/>
      <point x="10" y="31" type="curve"/>
      <point x="6" y="21"/>
      <point x="5" y="8"/>
      <point x="5" y="-1" type="curve"/>
      <point x="42" y="-1"/>
      <point x="105" y="1"/>
      <point x="154" y="1" type="curve" smooth="yes"/>
      <point x="200" y="1"/>
      <point x="255" y="-1"/>
      <point x="294" y="-1" type="curve"/>
      <point x="297" y="8"/>
      <point x="299" y="21"/>
      <point x="300" y="31" type="curve"/>
      <point x="227" y="36"/>
      <point x="212" y="38"/>
      <point x="212" y="67" type="curve" smooth="yes"/>
      <point x="212" y="80"/>
      <point x="216" y="96"/>
      <point x="221" y="119" type="curve" smooth="yes"/>
      <point x="295" y="493" type="line" smooth="yes"/>
      <point x="306" y="548"/>
      <point x="323" y="584"/>
    </contour>
  </outline>
</glyph>
<glyph name="two" format="2">
  <advance width="502"/>
  <unicode hex="0032"/>
  <outline>
    <contour>
      <point x="102" y="513" type="curve"/>
      <point x="153" y="547"/>
      <point x="200" y="562"/>
      <point x="245" y="562" type="curve" smooth="yes"/>
      <point x="312" y="562"/>
      <point x="350" y="529"/>
      <point x="350" y="465" type="curve" smooth="yes"/>
      <point x="350" y="323"/>
      <point x="163" y="170"/>
      <point x="-25" y="27" type="curve"/>
      <point x="-25" y="18"/>
      <point x="-24" y="9"/>
      <point x="-22" y="0" type="curve"/>
      <point x="6" y="1"/>
      <point x="55" y="1"/>
      <point x="131" y="1" type="curve" smooth="yes"/>
      <point x="210" y="1"/>
      <point x="325" y="1"/>
      <point x="407" y="-1" type="curve"/>
      <point x="420" y="42"/>
      <point x="433" y="91"/>
      <point x="462" y="171" type="curve"/>
      <point x="450" y="173"/>
      <point x="439" y="173"/>
      <point x="428" y="173" type="curve"/>
      <point x="381" y="86"/>
      <point x="361" y="84"/>
      <point x="272" y="84" type="curve" smooth="yes"/>
      <point x="83" y="83" type="line"/>
      <point x="76" y="62" type="line"/>
      <point x="283" y="214"/>
      <point x="459" y="343"/>
      <point x="459" y="481" type="curve" smooth="yes"/>
      <point x="459" y="565"/>
      <point x="395" y="630"/>
      <point x="289" y="630" type="curve" smooth="yes"/>
      <point x="219" y="630"/>
      <point x="147" y="602"/>
      <point x="83" y="537" type="curve"/>
      <point x="89" y="526"/>
      <point x="96" y="519"/>
    </contour>
  </outline>
</glyph>
<glyph name="five" format="2">
  <advance width="519"/>
  <unicode hex="0035"/>
  <outline>
    <contour>
      <point x="138" y="-139" type="curve" smooth="yes"/>
      <point x="319" y="-139"/>
      <point x="457" y="-7"/>
      <point x="457" y="161" type="curve" smooth="yes"/>
      <point x="457" y="275"/>
      <point x="392" y="364"/>
      <point x="237" y="364" type="curve" smooth="yes"/>
      <point x="204" y="364"/>
      <point x="165" y="360"/>
      <point x="124" y="349" type="curve"/>
      <point x="147" y="318" type="line"/>
      <point x="219" y="565" type="line"/>
      <point x="175" y="523" type="line"/>
      <point x="482" y="523" type="line"/>
      <point x="495" y="553"/>
      <point x="506" y="589"/>
      <point x="516" y="620" type="curve"/>
      <point x="188" y="613" type="line"/>
      <point x="84" y="266" type="line"/>
      <point x="90" y="263" type="line"/>
      <point x="121" y="273"/>
      <point x="164" y="279"/>
      <point x="202" y="279" type="curve" smooth="yes"/>
      <point x="295" y="279"/>
      <point x="354" y="242"/>
      <point x="354" y="129" type="curve" smooth="yes"/>
      <point x="354" y="-7"/>
      <point x="271" y="-101"/>
      <point x="150" y="-101" type="curve" smooth="yes"/>
      <point x="128" y="-101"/>
      <point x="108" y="-98"/>
      <point x="62" y="-92" type="curve"/>
      <point x="111" y="-123" type="line"/>
      <point x="103" y="-38"/>
      <point x="75" y="8"/>
      <point x="33" y="8" type="curve" smooth="yes"/>
      <point x="1" y="8"/>
      <point x="-16" y="-15"/>
      <point x="-16" y="-45" type="curve" smooth="yes"/>
      <point x="-16" y="-82"/>
      <point x="20" y="-139"/>
    </contour>
  </outline>
</glyph>
<glyph name="six" format="2">
  <advance width="562"/>
  <unicode hex="0036"/>
  <outline>
    <contour>
      <point x="153" y="216" type="curve" smooth="yes"/>
      <point x="153" y="451"/>
      <point x="286" y="716"/>
      <point x="546" y="705" type="curve"/>
      <point x="549" y="717"/>
      <point x="551" y="730"/>
      <point x="551" y="743" type="curve"/>
      <point x="542" y="744"/>
      <point x="534" y="744"/>
      <point x="530" y="744" type="curve" smooth="yes"/>
      <point x="274" y="744"/>
      <point x="47" y="511"/>
      <point x="47" y="243" type="curve" smooth="yes"/>
      <point x="47" y="78"/>
      <point x="132" y="-12"/>
      <point x="260" y="-12" type="curve" smooth="yes"/>
      <point x="411" y="-12"/>
      <point x="524" y="113"/>
      <point x="524" y="263" type="curve" smooth="yes"/>
      <point x="524" y="388"/>
      <point x="443" y="460"/>
      <point x="341" y="460" type="curve" smooth="yes"/>
      <point x="273" y="460"/>
      <point x="190" y="429"/>
      <point x="162" y="395" type="curve"/>
      <point x="165" y="362" type="line"/>
      <point x="217" y="399"/>
      <point x="268" y="407"/>
      <point x="296" y="407" type="curve" smooth="yes"/>
      <point x="367" y="407"/>
      <point x="420" y="356"/>
      <point x="420" y="249" type="curve" smooth="yes"/>
      <point x="420" y="125"/>
      <point x="350" y="26"/>
      <point x="262" y="26" type="curve" smooth="yes"/>
      <point x="202" y="26"/>
      <point x="153" y="73"/>
    </contour>
  </outline>
  <guideline angle="79.8904" x="476" y="0"/>
</glyph>
<glyph name="seven" format="2">
  <advance width="488"/>
  <unicode hex="0037"/>
  <outline>
    <contour>
      <point x="187" y="-115" type="curve"/>
      <point x="254" y="101"/>
      <point x="392" y="371"/>
      <point x="521" y="589" type="curve"/>
      <point x="520" y="602"/>
      <point x="517" y="610"/>
      <point x="512" y="618" type="curve"/>
      <point x="488" y="616"/>
      <point x="416" y="615"/>
      <point x="360" y="615" type="curve" smooth="yes"/>
      <point x="278" y="615"/>
      <point x="191" y="616"/>
      <point x="105" y="620" type="curve"/>
      <point x="92" y="560"/>
      <point x="74" y="496"/>
      <point x="53" y="432" type="curve"/>
      <point x="67" y="427"/>
      <point x="77" y="427"/>
      <point x="86" y="427" type="curve"/>
      <point x="119" y="520"/>
      <point x="153" y="527"/>
      <point x="207" y="529" type="curve" smooth="yes"/>
      <point x="239" y="530"/>
      <point x="265" y="530"/>
      <point x="465" y="529" type="curve"/>
      <point x="460" y="554" type="line"/>
      <point x="326" y="358"/>
      <point x="180" y="117"/>
      <point x="80" y="-103" type="curve"/>
      <point x="85" y="-116" type="line"/>
      <point x="119" y="-118"/>
      <point x="156" y="-117"/>
    </contour>
  </outline>
  <guideline angle="79.01" x="-31" y="0"/>
</glyph>
<glyph name="eight" format="2">
  <advance width="542"/>
  <unicode hex="0038"/>
  <outline>
    <contour>
      <point x="219" y="373" type="line"/>
      <point x="128" y="329"/>
      <point x="26" y="267"/>
      <point x="26" y="162" type="curve" smooth="yes"/>
      <point x="26" y="69"/>
      <point x="106" y="-12"/>
      <point x="242" y="-12" type="curve" smooth="yes"/>
      <point x="383" y="-12"/>
      <point x="500" y="74"/>
      <point x="500" y="198" type="curve" smooth="yes"/>
      <point x="500" y="293"/>
      <point x="431" y="346"/>
      <point x="356" y="400" type="curve" smooth="yes"/>
      <point x="246" y="480"/>
      <point x="217" y="517"/>
      <point x="217" y="579" type="curve" smooth="yes"/>
      <point x="217" y="656"/>
      <point x="275" y="708"/>
      <point x="338" y="708" type="curve" smooth="yes"/>
      <point x="404" y="708"/>
      <point x="439" y="648"/>
      <point x="439" y="582" type="curve" smooth="yes"/>
      <point x="439" y="515"/>
      <point x="403" y="452"/>
      <point x="324" y="405" type="curve"/>
      <point x="370" y="371" type="line"/>
      <point x="371" y="393" type="line"/>
      <point x="440" y="427"/>
      <point x="540" y="485"/>
      <point x="540" y="585" type="curve" smooth="yes"/>
      <point x="540" y="678"/>
      <point x="454" y="744"/>
      <point x="345" y="744" type="curve" smooth="yes"/>
      <point x="220" y="744"/>
      <point x="121" y="659"/>
      <point x="121" y="544" type="curve" smooth="yes"/>
      <point x="121" y="471"/>
      <point x="158" y="419"/>
      <point x="270" y="338" type="curve" smooth="yes"/>
      <point x="329" y="295"/>
      <point x="399" y="244"/>
      <point x="399" y="166" type="curve" smooth="yes"/>
      <point x="399" y="82"/>
      <point x="325" y="24"/>
      <point x="250" y="24" type="curve" smooth="yes"/>
      <point x="169" y="24"/>
      <point x="130" y="91"/>
      <point x="130" y="165" type="curve" smooth="yes"/>
      <point x="130" y="250"/>
      <point x="181" y="307"/>
      <point x="257" y="357" type="curve"/>
      <point x="219" y="393" type="line"/>
    </contour>
  </outline>
  <guideline angle="76.0015" x="453" y="0"/>
</glyph>
<glyph name="less" format="2">
  <advance width="581"/>
  <unicode hex="003C"/>
  <outline>
    <contour>
      <point x="66" y="258" type="line"/>
      <point x="63" y="245"/>
      <point x="63" y="232"/>
      <point x="66" y="219" type="curve"/>
      <point x="509" y="13" type="line"/>
      <point x="516" y="26"/>
      <point x="526" y="47"/>
      <point x="532" y="62" type="curve"/>
      <point x="144" y="238" type="line"/>
      <point x="532" y="415" type="line"/>
      <point x="527" y="429"/>
      <point x="517" y="450"/>
      <point x="509" y="464" type="curve"/>
    </contour>
  </outline>
</glyph>
<glyph name="equal" format="2">
  <advance width="581"/>
  <unicode hex="003D"/>
  <outline>
    <contour>
      <point x="59" y="356" type="line"/>
      <point x="57" y="340"/>
      <point x="57" y="316"/>
      <point x="59" y="301" type="curve"/>
      <point x="536" y="301" type="line"/>
      <point x="537" y="316"/>
      <point x="537" y="340"/>
      <point x="536" y="356" type="curve"/>
    </contour>
    <contour>
      <point x="59" y="176" type="line"/>
      <point x="57" y="160"/>
      <point x="57" y="136"/>
      <point x="59" y="121" type="curve"/>
      <point x="536" y="121" type="line"/>
      <point x="537" y="136"/>
      <point x="537" y="160"/>
      <point x="536" y="176" type="curve"/>
    </contour>
  </outline>
</glyph>
<glyph name="greater" format="2">
  <advance width="581"/>
  <unicode hex="003E"/>
  <outline>
    <contour>
      <point x="80" y="464" type="line"/>
      <point x="72" y="450"/>
      <point x="62" y="429"/>
      <point x="57" y="415" type="curve"/>
      <point x="445" y="238" type="line"/>
      <point x="57" y="62" type="line"/>
      <point x="63" y="47"/>
      <point x="73" y="26"/>
      <point x="80" y="13" type="curve"/>
      <point x="523" y="219" type="line"/>
      <point x="526" y="232"/>
      <point x="526" y="245"/>
      <point x="523" y="258" type="curve"/>
    </contour>
  </outline>
</glyph>
<glyph name="B" format="2">
  <advance width="634"/>
  <unicode hex="0042"/>
  <outline>
    <contour>
      <point x="298" y="-3" type="curve" smooth="yes"/>
      <point x="423" y="-3"/>
      <point x="580" y="42"/>
      <point x="580" y="196" type="curve" smooth="yes"/>
      <point x="580" y="310"/>
      <point x="495" y="353"/>
      <point x="416" y="364" type="curve"/>
      <point x="416" y="366" type="line"/>
      <point x="507" y="387"/>
      <point x="604" y="434"/>
      <point x="604" y="548" type="curve" smooth="yes"/>
      <point x="604" y="670"/>
      <point x="493" y="700"/>
      <point x="383" y="700" type="curve" smooth="yes"/>
      <point x="363" y="700"/>
      <point x="287" y="699"/>
      <point x="261" y="699" type="curve" smooth="yes"/>
      <point x="225" y="699"/>
      <point x="154" y="701"/>
      <point x="116" y="701" type="curve"/>
      <point x="113" y="690"/>
      <point x="111" y="679"/>
      <point x="110" y="669" type="curve"/>
      <point x="179" y="664"/>
      <point x="197" y="663"/>
      <point x="197" y="633" type="curve" smooth="yes"/>
      <point x="197" y="621"/>
      <point x="194" y="606"/>
      <point x="189" y="581" type="curve" smooth="yes"/>
      <point x="97" y="107" type="line" smooth="yes"/>
      <point x="83" y="38"/>
      <point x="78" y="41"/>
      <point x="-7" y="31" type="curve"/>
      <point x="-11" y="21"/>
      <point x="-12" y="8"/>
      <point x="-12" y="-1" type="curve"/>
      <point x="22" y="-1"/>
      <point x="102" y="1"/>
      <point x="138" y="1" type="curve" smooth="yes"/>
      <point x="188" y="1"/>
      <point x="261" y="-3"/>
    </contour>
    <contour>
      <point x="318" y="681" type="line"/>
      <point x="290" y="656" type="line"/>
      <point x="323" y="659"/>
      <point x="350" y="659"/>
      <point x="363" y="659" type="curve" smooth="yes"/>
      <point x="435" y="659"/>
      <point x="491" y="630"/>
      <point x="491" y="540" type="curve" smooth="yes"/>
      <point x="491" y="444"/>
      <point x="428" y="380"/>
      <point x="312" y="380" type="curve" smooth="yes"/>
      <point x="298" y="380"/>
      <point x="265" y="380"/>
      <point x="246" y="382" type="curve"/>
      <point x="240" y="337" type="line"/>
      <point x="257" y="340"/>
      <point x="288" y="340"/>
      <point x="300" y="340" type="curve" smooth="yes"/>
      <point x="396" y="340"/>
      <point x="462" y="308"/>
      <point x="462" y="202" type="curve" smooth="yes"/>
      <point x="462" y="101"/>
      <point x="401" y="37"/>
      <point x="296" y="37" type="curve" smooth="yes"/>
      <point x="264" y="37"/>
      <point x="199" y="43"/>
      <point x="172" y="54" type="curve"/>
      <point x="189" y="13" type="line"/>
    </contour>
  </outline>
  <guideline angle="76.0015" x="67" y="0"/>
  <guideline angle="79.01" x="553" y="0"/>
</glyph>
<glyph name="E" format="2">
  <advance width="622"/>
  <unicode hex="0045"/>
  <outline>
    <contour>
      <point x="-12" y="-1" type="curve"/>
      <point x="26" y="-1"/>
      <point x="88" y="1"/>
      <point x="126" y="1" type="curve" smooth="yes"/>
      <point x="255" y="1"/>
      <point x="390" y="0"/>
      <point x="521" y="0" type="curve"/>
      <point x="532" y="41"/>
      <point x="549" y="99"/>
      <point x="578" y="178" type="curve"/>
      <point x="566" y="181"/>
      <point x="552" y="181"/>
      <point x="540" y="178" type="curve"/>
      <point x="485" y="77"/>
      <point x="454" y="43"/>
      <point x="340" y="43" type="curve" smooth="yes"/>
      <point x="151" y="43" type="line"/>
      <point x="193" y="18" type="line"/>
      <point x="322" y="683" type="line"/>
      <point x="276" y="658" type="line"/>
      <point x="451" y="658" type="line" smooth="yes"/>
      <point x="549" y="658"/>
      <point x="560" y="636"/>
      <point x="590" y="542" type="curve"/>
      <point x="599" y="540"/>
      <point x="610" y="540"/>
      <point x="620" y="542" type="curve"/>
      <point x="620" y="584"/>
      <point x="619" y="621"/>
      <point x="619" y="657" type="curve" smooth="yes"/>
      <point x="619" y="701" type="line"/>
      <point x="582" y="700"/>
      <point x="524" y="699"/>
      <point x="443" y="699" type="curve" smooth="yes"/>
      <point x="306" y="699" type="line" smooth="yes"/>
      <point x="239" y="699"/>
      <point x="154" y="701"/>
      <point x="117" y="701" type="curve"/>
      <point x="112" y="689"/>
      <point x="111" y="679"/>
      <point x="110" y="669" type="curve"/>
      <point x="179" y="664"/>
      <point x="197" y="663"/>
      <point x="197" y="633" type="curve" smooth="yes"/>
      <point x="197" y="622"/>
      <point x="194" y="605"/>
      <point x="189" y="581" type="curve" smooth="yes"/>
      <point x="97" y="107" type="line" smooth="yes"/>
      <point x="84" y="39"/>
      <point x="79" y="39"/>
      <point x="-7" y="31" type="curve"/>
      <point x="-11" y="21"/>
      <point x="-12" y="8"/>
    </contour>
    <contour>
      <point x="409" y="230" type="curve"/>
      <point x="420" y="228"/>
      <point x="435" y="228"/>
      <point x="447" y="230" type="curve"/>
      <point x="452" y="272"/>
      <point x="461" y="322"/>
      <point x="469" y="361" type="curve" smooth="yes"/>
      <point x="477" y="399"/>
      <point x="490" y="451"/>
      <point x="499" y="487" type="curve"/>
      <point x="488" y="489"/>
      <point x="474" y="489"/>
      <point x="462" y="487" type="curve"/>
      <point x="428" y="389"/>
      <point x="420" y="385"/>
      <point x="325" y="385" type="curve" smooth="yes"/>
      <point x="224" y="385" type="line"/>
      <point x="217" y="342" type="line"/>
      <point x="316" y="342" type="line" smooth="yes"/>
      <point x="389" y="342"/>
      <point x="412" y="340"/>
      <point x="412" y="273" type="curve" smooth="yes"/>
      <point x="412" y="262"/>
      <point x="411" y="245"/>
    </contour>
  </outline>
  <guideline angle="79.01" x="543" y="0"/>
</glyph>
<glyph name="H" format="2">
  <advance width="812"/>
  <unicode hex="0048"/>
  <outline>
    <contour>
      <point x="626" y="348" type="line"/>
      <point x="634" y="391" type="line"/>
      <point x="232" y="391" type="line"/>
      <point x="224" y="348" type="line"/>
    </contour>
    <contour>
      <point x="-12" y="-1" type="curve"/>
      <point x="25" y="-1"/>
      <point x="90" y="1"/>
      <point x="139" y="1" type="curve" smooth="yes"/>
      <point x="185" y="1"/>
      <point x="240" y="-1"/>
      <point x="279" y="-1" type="curve"/>
      <point x="282" y="8"/>
      <point x="284" y="21"/>
      <point x="285" y="31" type="curve"/>
      <point x="216" y="36"/>
      <point x="201" y="38"/>
      <point x="201" y="67" type="curve" smooth="yes"/>
      <point x="201" y="80"/>
      <point x="206" y="96"/>
      <point x="210" y="119" type="curve" smooth="yes"/>
      <point x="302" y="593" type="line" smooth="yes"/>
      <point x="315" y="661"/>
      <point x="318" y="661"/>
      <point x="404" y="669" type="curve"/>
      <point x="408" y="679"/>
      <point x="410" y="691"/>
      <point x="410" y="701" type="curve"/>
      <point x="372" y="701"/>
      <point x="313" y="699"/>
      <point x="268" y="699" type="curve" smooth="yes"/>
      <point x="219" y="699"/>
      <point x="154" y="701"/>
      <point x="116" y="701" type="curve"/>
      <point x="113" y="690"/>
      <point x="111" y="679"/>
      <point x="110" y="669" type="curve"/>
      <point x="179" y="664"/>
      <point x="197" y="663"/>
      <point x="197" y="633" type="curve" smooth="yes"/>
      <point x="197" y="621"/>
      <point x="194" y="605"/>
      <point x="189" y="581" type="curve" smooth="yes"/>
      <point x="97" y="107" type="line" smooth="yes"/>
      <point x="84" y="40"/>
      <point x="79" y="39"/>
      <point x="-7" y="31" type="curve"/>
      <point x="-11" y="21"/>
      <point x="-12" y="8"/>
    </contour>
    <contour>
      <point x="440" y="-1" type="curve"/>
      <point x="477" y="-1"/>
      <point x="542" y="1"/>
      <point x="591" y="1" type="curve" smooth="yes"/>
      <point x="637" y="1"/>
      <point x="692" y="-1"/>
      <point x="731" y="-1" type="curve"/>
      <point x="734" y="8"/>
      <point x="736" y="21"/>
      <point x="737" y="31" type="curve"/>
      <point x="668" y="36"/>
      <point x="653" y="38"/>
      <point x="653" y="67" type="curve" smooth="yes"/>
      <point x="653" y="80"/>
      <point x="658" y="96"/>
      <point x="662" y="119" type="curve" smooth="yes"/>
      <point x="754" y="593" type="line" smooth="yes"/>
      <point x="767" y="661"/>
      <point x="770" y="661"/>
      <point x="856" y="669" type="curve"/>
      <point x="860" y="679"/>
      <point x="862" y="691"/>
      <point x="862" y="701" type="curve"/>
      <point x="824" y="701"/>
      <point x="765" y="699"/>
      <point x="720" y="699" type="curve" smooth="yes"/>
      <point x="671" y="699"/>
      <point x="606" y="701"/>
      <point x="568" y="701" type="curve"/>
      <point x="565" y="690"/>
      <point x="563" y="679"/>
      <point x="562" y="669" type="curve"/>
      <point x="631" y="664"/>
      <point x="649" y="663"/>
      <point x="649" y="633" type="curve" smooth="yes"/>
      <point x="649" y="621"/>
      <point x="646" y="605"/>
      <point x="641" y="581" type="curve" smooth="yes"/>
      <point x="549" y="107" type="line" smooth="yes"/>
      <point x="536" y="39"/>
      <point x="531" y="39"/>
      <point x="445" y="31" type="curve"/>
      <point x="441" y="21"/>
      <point x="440" y="8"/>
    </contour>
  </outline>
  <guideline angle="79.0265" x="639" y="0"/>
  <guideline angle="79.0044" x="74" y="0"/>
</glyph>
<glyph name="M" format="2">
  <advance width="938"/>
  <unicode hex="004D"/>
  <outline>
    <contour>
      <point x="363" y="-3" type="line"/>
      <point x="378" y="-4"/>
      <point x="407" y="-2"/>
      <point x="416" y="1" type="curve"/>
      <point x="790" y="674" type="line"/>
      <point x="779" y="679" type="line"/>
      <point x="678" y="111" type="line" smooth="yes"/>
      <point x="666" y="45"/>
      <point x="665" y="40"/>
      <point x="580" y="30" type="curve"/>
      <point x="576" y="20"/>
      <point x="576" y="9"/>
      <point x="576" y="0" type="curve"/>
      <point x="615" y="0"/>
      <point x="674" y="1"/>
      <point x="710" y="1" type="curve" smooth="yes"/>
      <point x="762" y="1"/>
      <point x="830" y="0"/>
      <point x="871" y="0" type="curve"/>
      <point x="875" y="9"/>
      <point x="876" y="21"/>
      <point x="877" y="31" type="curve"/>
      <point x="804" y="36"/>
      <point x="785" y="39"/>
      <point x="785" y="68" type="curve" smooth="yes"/>
      <point x="785" y="82"/>
      <point x="785" y="97"/>
      <point x="790" y="123" type="curve" smooth="yes"/>
      <point x="874" y="589" type="line" smooth="yes"/>
      <point x="887" y="659"/>
      <point x="890" y="659"/>
      <point x="974" y="669" type="curve"/>
      <point x="979" y="679"/>
      <point x="980" y="690"/>
      <point x="980" y="701" type="curve"/>
      <point x="939" y="701"/>
      <point x="898" y="699"/>
      <point x="841" y="699" type="curve" smooth="yes"/>
      <point x="820" y="699"/>
      <point x="780" y="699"/>
      <point x="752" y="700" type="curve"/>
      <point x="425" y="112" type="line"/>
      <point x="453" y="106" type="line"/>
      <point x="340" y="700" type="line"/>
      <point x="326" y="699"/>
      <point x="271" y="699"/>
      <point x="232" y="699" type="curve" smooth="yes"/>
      <point x="203" y="699"/>
      <point x="149" y="701"/>
      <point x="111" y="701" type="curve"/>
      <point x="107" y="689"/>
      <point x="106" y="679"/>
      <point x="106" y="669" type="curve"/>
      <point x="171" y="664"/>
      <point x="194" y="656"/>
      <point x="194" y="625" type="curve" smooth="yes"/>
      <point x="194" y="613"/>
      <point x="192" y="601"/>
      <point x="187" y="577" type="curve" smooth="yes"/>
      <point x="91" y="111" type="line" smooth="yes"/>
      <point x="77" y="41"/>
      <point x="74" y="40"/>
      <point x="-5" y="30" type="curve"/>
      <point x="-9" y="20"/>
      <point x="-10" y="9"/>
      <point x="-10" y="0" type="curve"/>
      <point x="28" y="0"/>
      <point x="80" y="1"/>
      <point x="109" y="1" type="curve" smooth="yes"/>
      <point x="138" y="1"/>
      <point x="189" y="0"/>
      <point x="219" y="0" type="curve"/>
      <point x="222" y="9"/>
      <point x="222" y="21"/>
      <point x="223" y="31" type="curve"/>
      <point x="156" y="36"/>
      <point x="138" y="42"/>
      <point x="138" y="72" type="curve" smooth="yes"/>
      <point x="138" y="86"/>
      <point x="140" y="99"/>
      <point x="145" y="123" type="curve" smooth="yes"/>
      <point x="258" y="664" type="line"/>
      <point x="236" y="665" type="line"/>
    </contour>
  </outline>
  <guideline angle="0" x="0" y="181"/>
  <guideline angle="78.8665" x="61" y="0"/>
</glyph>
<glyph name="Q" format="2">
  <advance width="788"/>
  <unicode hex="0051"/>
  <outline>
    <contour>
      <point x="477" y="1" type="curve" smooth="yes"/>
      <point x="671" y="68"/>
      <point x="757" y="246"/>
      <point x="757" y="411" type="curve" smooth="yes"/>
      <point x="757" y="586"/>
      <point x="661" y="711"/>
      <point x="459" y="711" type="curve" smooth="yes"/>
      <point x="181" y="711"/>
      <point x="58" y="474"/>
      <point x="58" y="290" type="curve" smooth="yes"/>
      <point x="58" y="157"/>
      <point x="124" y="-4"/>
      <point x="340" y="-12" type="curve"/>
      <point x="318" y="5" type="line"/>
      <point x="318" y="-14" type="line"/>
      <point x="236" y="-46"/>
      <point x="143" y="-73"/>
      <point x="80" y="-80" type="curve"/>
      <point x="75" y="-89"/>
      <point x="73" y="-98"/>
      <point x="74" y="-109" type="curve"/>
      <point x="198" y="-117"/>
      <point x="279" y="-159"/>
      <point x="352" y="-198" type="curve" smooth="yes"/>
      <point x="412" y="-229"/>
      <point x="466" y="-257"/>
      <point x="535" y="-257" type="curve" smooth="yes"/>
      <point x="648" y="-257"/>
      <point x="712" y="-183"/>
      <point x="760" y="-97" type="curve"/>
      <point x="755" y="-90"/>
      <point x="745" y="-82"/>
      <point x="736" y="-78" type="curve"/>
      <point x="690" y="-145"/>
      <point x="640" y="-161"/>
      <point x="578" y="-161" type="curve" smooth="yes"/>
      <point x="514" y="-161"/>
      <point x="453" y="-144"/>
      <point x="386" y="-125" type="curve" smooth="yes"/>
      <point x="336" y="-111"/>
      <point x="282" y="-97"/>
      <point x="223" y="-88" type="curve"/>
      <point x="223" y="-84" type="line"/>
      <point x="276" y="-66"/>
      <point x="249" y="-77"/>
    </contour>
    <contour>
      <point x="637" y="433" type="curve" smooth="yes"/>
      <point x="637" y="240"/>
      <point x="542" y="26"/>
      <point x="357" y="26" type="curve" smooth="yes"/>
      <point x="232" y="26"/>
      <point x="178" y="123"/>
      <point x="178" y="268" type="curve" smooth="yes"/>
      <point x="178" y="470"/>
      <point x="283" y="670"/>
      <point x="462" y="670" type="curve" smooth="yes"/>
      <point x="584" y="670"/>
      <point x="637" y="577"/>
    </contour>
  </outline>
</glyph>
<glyph name="R" format="2">
  <advance width="665"/>
  <unicode hex="0052"/>
  <outline>
    <contour>
      <point x="230" y="324" type="line"/>
      <point x="302" y="320"/>
      <point x="307" y="314"/>
      <point x="328" y="277" type="curve" smooth="yes"/>
      <point x="377" y="191"/>
      <point x="425" y="81"/>
      <point x="457" y="0" type="curve"/>
      <point x="478" y="0"/>
      <point x="487" y="1"/>
      <point x="508" y="1" type="curve" smooth="yes"/>
      <point x="538" y="1"/>
      <point x="608" y="-1"/>
      <point x="641" y="-1" type="curve"/>
      <point x="645" y="8"/>
      <point x="648" y="21"/>
      <point x="648" y="31" type="curve"/>
      <point x="582" y="36"/>
      <point x="565" y="41"/>
      <point x="521" y="130" type="curve" smooth="yes"/>
      <point x="495" y="183"/>
      <point x="459" y="257"/>
      <point x="442" y="287" type="curve" smooth="yes"/>
      <point x="426" y="315"/>
      <point x="414" y="329"/>
      <point x="393" y="351" type="curve"/>
      <point x="384" y="331" type="line"/>
      <point x="411" y="328" type="line"/>
      <point x="411" y="334" type="line"/>
      <point x="527" y="367"/>
      <point x="608" y="437"/>
      <point x="608" y="545" type="curve" smooth="yes"/>
      <point x="608" y="651"/>
      <point x="532" y="701"/>
      <point x="390" y="701" type="curve" smooth="yes"/>
      <point x="362" y="701"/>
      <point x="274" y="699"/>
      <point x="242" y="699" type="curve" smooth="yes"/>
      <point x="211" y="699"/>
      <point x="155" y="701"/>
      <point x="116" y="701" type="curve"/>
      <point x="113" y="690"/>
      <point x="111" y="680"/>
      <point x="110" y="669" type="curve"/>
      <point x="179" y="664"/>
      <point x="197" y="663"/>
      <point x="197" y="633" type="curve" smooth="yes"/>
      <point x="197" y="621"/>
      <point x="194" y="605"/>
      <point x="189" y="581" type="curve" smooth="yes"/>
      <point x="97" y="107" type="line" smooth="yes"/>
      <point x="84" y="40"/>
      <point x="80" y="40"/>
      <point x="-6" y="31" type="curve"/>
      <point x="-10" y="21"/>
      <point x="-11" y="8"/>
      <point x="-11" y="-1" type="curve"/>
      <point x="44" y="0"/>
      <point x="92" y="1"/>
      <point x="137" y="1" type="curve" smooth="yes"/>
      <point x="182" y="1"/>
      <point x="237" y="0"/>
      <point x="279" y="-1" type="curve"/>
      <point x="282" y="8"/>
      <point x="284" y="21"/>
      <point x="285" y="31" type="curve"/>
      <point x="216" y="36"/>
      <point x="202" y="38"/>
      <point x="202" y="65" type="curve" smooth="yes"/>
      <point x="202" y="80"/>
      <point x="206" y="96"/>
      <point x="210" y="119" type="curve" smooth="yes"/>
      <point x="319" y="682" type="line"/>
      <point x="297" y="657" type="line"/>
      <point x="312" y="658"/>
      <point x="359" y="660"/>
      <point x="376" y="660" type="curve" smooth="yes"/>
      <point x="472" y="660"/>
      <point x="494" y="595"/>
      <point x="494" y="535" type="curve" smooth="yes"/>
      <point x="494" y="439"/>
      <point x="438" y="359"/>
      <point x="313" y="359" type="curve" smooth="yes"/>
      <point x="286" y="359"/>
      <point x="256" y="363"/>
      <point x="239" y="367" type="curve"/>
    </contour>
  </outline>
  <guideline angle="76.0015" x="70" y="0"/>
</glyph>
<glyph name="S" format="2">
  <advance width="542"/>
  <unicode hex="0053"/>
  <outline>
    <contour>
      <point x="537" y="696" type="curve"/>
      <point x="530" y="694"/>
      <point x="517" y="693"/>
      <point x="509" y="693" type="curve" smooth="yes"/>
      <point x="477" y="693"/>
      <point x="435" y="711"/>
      <point x="362" y="711" type="curve" smooth="yes"/>
      <point x="209" y="711"/>
      <point x="102" y="632"/>
      <point x="102" y="508" type="curve" smooth="yes"/>
      <point x="102" y="403"/>
      <point x="178" y="360"/>
      <point x="252" y="318" type="curve" smooth="yes"/>
      <point x="365" y="254"/>
      <point x="392" y="223"/>
      <point x="392" y="158" type="curve" smooth="yes"/>
      <point x="392" y="65"/>
      <point x="316" y="26"/>
      <point x="240" y="26" type="curve" smooth="yes"/>
      <point x="142" y="26"/>
      <point x="80" y="86"/>
      <point x="80" y="193" type="curve" smooth="yes"/>
      <point x="80" y="196"/>
      <point x="80" y="200"/>
      <point x="81" y="210" type="curve"/>
      <point x="70" y="211"/>
      <point x="59" y="211"/>
      <point x="48" y="209" type="curve"/>
      <point x="35" y="131"/>
      <point x="22" y="66"/>
      <point x="9" y="10" type="curve"/>
      <point x="15" y="11"/>
      <point x="24" y="11"/>
      <point x="34" y="11" type="curve" smooth="yes"/>
      <point x="105" y="11"/>
      <point x="157" y="-14"/>
      <point x="237" y="-14" type="curve" smooth="yes"/>
      <point x="386" y="-14"/>
      <point x="490" y="72"/>
      <point x="490" y="200" type="curve" smooth="yes"/>
      <point x="490" y="313"/>
      <point x="410" y="358"/>
      <point x="333" y="401" type="curve" smooth="yes"/>
      <point x="257" y="443"/>
      <point x="207" y="471"/>
      <point x="207" y="542" type="curve" smooth="yes"/>
      <point x="207" y="622"/>
      <point x="271" y="673"/>
      <point x="353" y="673" type="curve" smooth="yes"/>
      <point x="454" y="673"/>
      <point x="475" y="594"/>
      <point x="478" y="508" type="curve"/>
      <point x="490" y="508"/>
      <point x="501" y="508"/>
      <point x="513" y="510" type="curve"/>
      <point x="519" y="578"/>
      <point x="529" y="638"/>
    </contour>
  </outline>
  <guideline angle="79.01" x="-2" y="0"/>
  <guideline angle="79.0044" x="448" y="0"/>
</glyph>
<glyph name="W" format="2">
  <advance width="983"/>
  <unicode hex="0057"/>
  <outline>
    <contour>
      <point x="334" y="79" type="line"/>
      <point x="267" y="567" type="line" smooth="yes"/>
      <point x="263" y="599"/>
      <point x="262" y="612"/>
      <point x="262" y="619" type="curve" smooth="yes"/>
      <point x="262" y="661"/>
      <point x="271" y="662"/>
      <point x="342" y="669" type="curve"/>
      <point x="346" y="679"/>
      <point x="347" y="691"/>
      <point x="348" y="701" type="curve"/>
      <point x="294" y="700"/>
      <point x="228" y="699"/>
      <point x="189" y="699" type="curve" smooth="yes"/>
      <point x="145" y="699"/>
      <point x="96" y="700"/>
      <point x="64" y="701" type="curve"/>
      <point x="60" y="691"/>
      <point x="58" y="679"/>
      <point x="58" y="669" type="curve"/>
      <point x="133" y="661"/>
      <point x="143" y="660"/>
      <point x="158" y="564" type="curve" smooth="yes"/>
      <point x="246" y="-7" type="line"/>
      <point x="261" y="-6"/>
      <point x="279" y="-3"/>
      <point x="298" y="1" type="curve"/>
      <point x="376" y="130"/>
      <point x="490" y="323"/>
      <point x="568" y="457" type="curve"/>
      <point x="535" y="489" type="line"/>
      <point x="304" y="103" type="line"/>
    </contour>
    <contour>
      <point x="661" y="79" type="line"/>
      <point x="596" y="556" type="line" smooth="yes"/>
      <point x="592" y="588"/>
      <point x="590" y="612"/>
      <point x="590" y="619" type="curve" smooth="yes"/>
      <point x="590" y="661"/>
      <point x="606" y="662"/>
      <point x="677" y="669" type="curve"/>
      <point x="681" y="679"/>
      <point x="682" y="691"/>
      <point x="683" y="701" type="curve"/>
      <point x="629" y="700"/>
      <point x="563" y="699"/>
      <point x="524" y="699" type="curve" smooth="yes"/>
      <point x="480" y="699"/>
      <point x="431" y="700"/>
      <point x="399" y="701" type="curve"/>
      <point x="395" y="691"/>
      <point x="393" y="679"/>
      <point x="393" y="669" type="curve"/>
      <point x="468" y="661"/>
      <point x="474" y="661"/>
      <point x="488" y="564" type="curve" smooth="yes"/>
      <point x="573" y="-7" type="line"/>
      <point x="588" y="-6"/>
      <point x="606" y="-3"/>
      <point x="625" y="1" type="curve"/>
      <point x="715" y="151"/>
      <point x="842" y="385"/>
      <point x="919" y="516" type="curve" smooth="yes"/>
      <point x="1004" y="660"/>
      <point x="1014" y="662"/>
      <point x="1093" y="670" type="curve"/>
      <point x="1097" y="680"/>
      <point x="1099" y="691"/>
      <point x="1099" y="701" type="curve"/>
      <point x="1059" y="700"/>
      <point x="1027" y="699"/>
      <point x="989" y="699" type="curve" smooth="yes"/>
      <point x="959" y="699"/>
      <point x="884" y="700"/>
      <point x="856" y="701" type="curve"/>
      <point x="852" y="691"/>
      <point x="850" y="679"/>
      <point x="850" y="669" type="curve"/>
      <point x="904" y="663"/>
      <point x="923" y="661"/>
      <point x="923" y="641" type="curve" smooth="yes"/>
      <point x="923" y="627"/>
      <point x="909" y="598"/>
      <point x="891" y="566" type="curve" smooth="yes"/>
      <point x="631" y="103" type="line"/>
    </contour>
  </outline>
  <guideline angle="0" x="0" y="137"/>
</glyph>
<glyph name="X" format="2">
  <advance width="669"/>
  <unicode hex="0058"/>
  <outline>
    <contour>
      <point x="319" y="365" type="line"/>
      <point x="116" y="141" type="line" smooth="yes"/>
      <point x="32" y="49"/>
      <point x="-3" y="37"/>
      <point x="-63" y="31" type="curve"/>
      <point x="-67" y="21"/>
      <point x="-68" y="10"/>
      <point x="-68" y="0" type="curve"/>
      <point x="-35" y="0"/>
      <point x="7" y="1"/>
      <point x="40" y="1" type="curve" smooth="yes"/>
      <point x="68" y="1"/>
      <point x="161" y="0"/>
      <point x="189" y="0" type="curve"/>
      <point x="192" y="9"/>
      <point x="193" y="21"/>
      <point x="193" y="31" type="curve"/>
      <point x="132" y="35"/>
      <point x="120" y="44"/>
      <point x="120" y="61" type="curve" smooth="yes"/>
      <point x="120" y="73"/>
      <point x="130" y="85"/>
      <point x="147" y="105" type="curve"/>
      <point x="346" y="327" type="line"/>
    </contour>
    <contour>
      <point x="323" y="0" type="curve"/>
      <point x="365" y="0"/>
      <point x="427" y="1"/>
      <point x="481" y="1" type="curve" smooth="yes"/>
      <point x="530" y="1"/>
      <point x="577" y="0"/>
      <point x="625" y="0" type="curve"/>
      <point x="628" y="9"/>
      <point x="630" y="21"/>
      <point x="631" y="31" type="curve"/>
      <point x="560" y="38"/>
      <point x="541" y="48"/>
      <point x="504" y="134" type="curve" smooth="yes"/>
      <point x="304" y="597" type="line" smooth="yes"/>
      <point x="295" y="617"/>
      <point x="293" y="623"/>
      <point x="293" y="634" type="curve" smooth="yes"/>
      <point x="293" y="656"/>
      <point x="320" y="664"/>
      <point x="371" y="669" type="curve"/>
      <point x="376" y="679"/>
      <point x="377" y="691"/>
      <point x="377" y="701" type="curve"/>
      <point x="330" y="701"/>
      <point x="287" y="699"/>
      <point x="243" y="699" type="curve" smooth="yes"/>
      <point x="195" y="699"/>
      <point x="128" y="701"/>
      <point x="81" y="701" type="curve"/>
      <point x="76" y="691"/>
      <point x="75" y="680"/>
      <point x="75" y="669" type="curve"/>
      <point x="146" y="663"/>
      <point x="161" y="653"/>
      <point x="192" y="582" type="curve" smooth="yes"/>
      <point x="400" y="101" type="line" smooth="yes"/>
      <point x="408" y="83"/>
      <point x="411" y="70"/>
      <point x="411" y="62" type="curve" smooth="yes"/>
      <point x="411" y="39"/>
      <point x="382" y="36"/>
      <point x="328" y="30" type="curve"/>
      <point x="324" y="20"/>
      <point x="323" y="9"/>
    </contour>
    <contour>
      <point x="363" y="335" type="line"/>
      <point x="566" y="559" type="line" smooth="yes"/>
      <point x="650" y="651"/>
      <point x="685" y="663"/>
      <point x="745" y="669" type="curve"/>
      <point x="749" y="679"/>
      <point x="750" y="690"/>
      <point x="750" y="700" type="curve"/>
      <point x="717" y="700"/>
      <point x="675" y="699"/>
      <point x="642" y="699" type="curve" smooth="yes"/>
      <point x="614" y="699"/>
      <point x="521" y="700"/>
      <point x="493" y="700" type="curve"/>
      <point x="490" y="691"/>
      <point x="489" y="679"/>
      <point x="489" y="669" type="curve"/>
      <point x="550" y="665"/>
      <point x="562" y="656"/>
      <point x="562" y="639" type="curve" smooth="yes"/>
      <point x="562" y="627"/>
      <point x="552" y="615"/>
      <point x="535" y="595" type="curve"/>
      <point x="336" y="373" type="line"/>
    </contour>
  </outline>
</glyph>
<glyph name="Y" format="2">
  <advance width="601"/>
  <unicode hex="0059"/>
  <outline>
    <contour>
      <point x="256" y="274" type="line"/>
      <point x="156" y="567" type="line" smooth="yes"/>
      <point x="126" y="656"/>
      <point x="118" y="663"/>
      <point x="50" y="669" type="curve"/>
      <point x="50" y="679"/>
      <point x="52" y="690"/>
      <point x="55" y="701" type="curve"/>
      <point x="103" y="699"/>
      <point x="147" y="699"/>
      <point x="196" y="699" type="curve" smooth="yes"/>
      <point x="246" y="699"/>
      <point x="306" y="701"/>
      <point x="344" y="701" type="curve"/>
      <point x="344" y="691"/>
      <point x="342" y="679"/>
      <point x="337" y="669" type="curve"/>
      <point x="266" y="663"/>
      <point x="252" y="653"/>
      <point x="252" y="634" type="curve" smooth="yes"/>
      <point x="252" y="623"/>
      <point x="256" y="609"/>
      <point x="266" y="580" type="curve" smooth="yes"/>
      <point x="360" y="307" type="line"/>
      <point x="316" y="302" type="line"/>
      <point x="522" y="591" type="line" smooth="yes"/>
      <point x="540" y="617"/>
      <point x="545" y="628"/>
      <point x="545" y="640" type="curve" smooth="yes"/>
      <point x="545" y="657"/>
      <point x="529" y="664"/>
      <point x="467" y="669" type="curve"/>
      <point x="468" y="680"/>
      <point x="470" y="689"/>
      <point x="474" y="701" type="curve"/>
      <point x="507" y="700"/>
      <point x="570" y="699"/>
      <point x="602" y="699" type="curve" smooth="yes"/>
      <point x="644" y="699"/>
      <point x="681" y="700"/>
      <point x="723" y="701" type="curve"/>
      <point x="721" y="691"/>
      <point x="719" y="679"/>
      <point x="716" y="669" type="curve"/>
      <point x="638" y="661"/>
      <point x="625" y="655"/>
      <point x="556" y="559" type="curve" smooth="yes"/>
      <point x="357" y="283" type="line"/>
    </contour>
    <contour>
      <point x="366" y="301" type="line"/>
      <point x="330" y="119" type="line" smooth="yes"/>
      <point x="325" y="95"/>
      <point x="321" y="80"/>
      <point x="321" y="67" type="curve" smooth="yes"/>
      <point x="321" y="38"/>
      <point x="337" y="36"/>
      <point x="410" y="31" type="curve"/>
      <point x="409" y="21"/>
      <point x="407" y="8"/>
      <point x="404" y="-1" type="curve"/>
      <point x="365" y="-1"/>
      <point x="305" y="1"/>
      <point x="259" y="1" type="curve" smooth="yes"/>
      <point x="210" y="1"/>
      <point x="140" y="-1"/>
      <point x="103" y="-1" type="curve"/>
      <point x="103" y="8"/>
      <point x="104" y="21"/>
      <point x="108" y="31" type="curve"/>
      <point x="199" y="39"/>
      <point x="204" y="40"/>
      <point x="217" y="107" type="curve" smooth="yes"/>
      <point x="255" y="301" type="line"/>
    </contour>
  </outline>
  <guideline angle="79.0044" x="249" y="0"/>
</glyph>
<glyph name="backslash" format="2">
  <advance width="380"/>
  <unicode hex="005C"/>
  <outline>
    <contour>
      <point x="287" y="-177" type="line"/>
      <point x="349" y="-177" type="line"/>
      <point x="151" y="748" type="line"/>
      <point x="92" y="748" type="line"/>
    </contour>
  </outline>
</glyph>
<glyph name="bracketright" format="2">
  <advance width="409"/>
  <unicode hex="005D"/>
  <outline>
    <contour>
      <point x="100" y="753" type="line"/>
      <point x="100" y="710" type="line"/>
      <point x="256" y="710" type="line"/>
      <point x="256" y="-140" type="line"/>
      <point x="100" y="-140" type="line"/>
      <point x="100" y="-183" type="line"/>
      <point x="329" y="-183" type="line"/>
      <point x="329" y="753" type="line"/>
    </contour>
  </outline>
</glyph>
<glyph name="a" format="2">
  <advance width="551"/>
  <unicode hex="0061"/>
  <outline>
    <contour>
      <point x="146" y="-11" type="curve" smooth="yes"/>
      <point x="205" y="-11"/>
      <point x="262" y="29"/>
      <point x="312" y="115" type="curve"/>
      <point x="344" y="115" type="line"/>
      <point x="358" y="309" type="line"/>
      <point x="314" y="123"/>
      <point x="237" y="52"/>
      <point x="186" y="52" type="curve" smooth="yes"/>
      <point x="157" y="52"/>
      <point x="132" y="75"/>
      <point x="132" y="155" type="curve" smooth="yes"/>
      <point x="132" y="272"/>
      <point x="187" y="435"/>
      <point x="287" y="435" type="curve" smooth="yes"/>
      <point x="325" y="435"/>
      <point x="363" y="411"/>
      <point x="395" y="376" type="curve"/>
      <point x="411" y="453" type="line"/>
      <point x="374" y="473"/>
      <point x="338" y="480"/>
      <point x="311" y="480" type="curve" smooth="yes"/>
      <point x="180" y="480"/>
      <point x="25" y="328"/>
      <point x="25" y="147" type="curve" smooth="yes"/>
      <point x="25" y="36"/>
      <point x="83" y="-11"/>
    </contour>
    <contour>
      <point x="375" y="-12" type="curve" smooth="yes"/>
      <point x="440" y="-12"/>
      <point x="491" y="33"/>
      <point x="536" y="93" type="curve"/>
      <point x="529" y="101"/>
      <point x="522" y="107"/>
      <point x="513" y="113" type="curve"/>
      <point x="485" y="78"/>
      <point x="446" y="51"/>
      <point x="423" y="51" type="curve" smooth="yes"/>
      <point x="409" y="51"/>
      <point x="405" y="60"/>
      <point x="405" y="72" type="curve" smooth="yes"/>
      <point x="405" y="85"/>
      <point x="410" y="102"/>
      <point x="412" y="111" type="curve" smooth="yes"/>
      <point x="458" y="309" type="line" smooth="yes"/>
      <point x="470" y="361"/>
      <point x="481" y="409"/>
      <point x="497" y="465" type="curve"/>
      <point x="494" y="469" type="line"/>
      <point x="461" y="463"/>
      <point x="429" y="459"/>
      <point x="400" y="456" type="curve"/>
      <point x="387" y="428" type="line"/>
      <point x="358" y="309" type="line"/>
      <point x="323" y="133" type="line"/>
      <point x="312" y="103"/>
      <point x="306" y="76"/>
      <point x="306" y="53" type="curve" smooth="yes"/>
      <point x="306" y="15"/>
      <point x="326" y="-12"/>
    </contour>
  </outline>
</glyph>
<glyph name="b" format="2">
  <advance width="542"/>
  <unicode hex="0062"/>
  <outline>
    <contour>
      <point x="185" y="242" type="line"/>
      <point x="202" y="323"/>
      <point x="279" y="417"/>
      <point x="342" y="417" type="curve" smooth="yes"/>
      <point x="379" y="417"/>
      <point x="400" y="384"/>
      <point x="400" y="314" type="curve" smooth="yes"/>
      <point x="400" y="208"/>
      <point x="353" y="32"/>
      <point x="243" y="32" type="curve" smooth="yes"/>
      <point x="207" y="32"/>
      <point x="170" y="52"/>
      <point x="136" y="83" type="curve"/>
      <point x="45" y="46" type="line"/>
      <point x="99" y="11"/>
      <point x="171" y="-11"/>
      <point x="226" y="-11" type="curve" smooth="yes"/>
      <point x="366" y="-11"/>
      <point x="508" y="154"/>
      <point x="508" y="321" type="curve" smooth="yes"/>
      <point x="508" y="416"/>
      <point x="462" y="480"/>
      <point x="387" y="480" type="curve" smooth="yes"/>
      <point x="320" y="480"/>
      <point x="259" y="431"/>
      <point x="210" y="364" type="curve"/>
      <point x="185" y="364" type="line"/>
    </contour>
    <contour>
      <point x="202" y="348" type="line"/>
      <point x="221" y="424" type="line"/>
      <point x="250" y="565" type="line" smooth="yes"/>
      <point x="263" y="630"/>
      <point x="279" y="699"/>
      <point x="292" y="745" type="curve"/>
      <point x="279" y="752" type="line"/>
      <point x="228" y="732"/>
      <point x="156" y="723"/>
      <point x="85" y="718" type="curve"/>
      <point x="83" y="709"/>
      <point x="84" y="700"/>
      <point x="86" y="691" type="curve"/>
      <point x="150" y="690"/>
      <point x="169" y="687"/>
      <point x="169" y="662" type="curve" smooth="yes"/>
      <point x="169" y="652"/>
      <point x="166" y="636"/>
      <point x="162" y="617" type="curve" smooth="yes"/>
      <point x="45" y="46" type="line"/>
      <point x="143" y="36" type="line"/>
      <point x="185" y="242" type="line"/>
    </contour>
  </outline>
  <guideline angle="79.01" x="33" y="0"/>
  <guideline angle="79.0044" x="138" y="0"/>
</glyph>
<glyph name="c" format="2">
  <advance width="428"/>
  <unicode hex="0063"/>
  <outline>
    <contour>
      <point x="196" y="-12" type="curve" smooth="yes"/>
      <point x="295" y="-12"/>
      <point x="356" y="52"/>
      <point x="395" y="121" type="curve"/>
      <point x="390" y="128"/>
      <point x="381" y="135"/>
      <point x="371" y="140" type="curve"/>
      <point x="335" y="89"/>
      <point x="285" y="56"/>
      <point x="228" y="56" type="curve" smooth="yes"/>
      <point x="158" y="56"/>
      <point x="138" y="106"/>
      <point x="138" y="163" type="curve" smooth="yes"/>
      <point x="138" y="278"/>
      <point x="216" y="445"/>
      <point x="320" y="438" type="curve"/>
      <point x="309" y="457" type="line"/>
      <point x="309" y="383"/>
      <point x="351" y="359"/>
      <point x="383" y="359" type="curve" smooth="yes"/>
      <point x="413" y="359"/>
      <point x="434" y="380"/>
      <point x="434" y="408" type="curve" smooth="yes"/>
      <point x="434" y="449"/>
      <point x="388" y="479"/>
      <point x="325" y="479" type="curve" smooth="yes"/>
      <point x="188" y="479"/>
      <point x="32" y="339"/>
      <point x="32" y="165" type="curve" smooth="yes"/>
      <point x="32" y="57"/>
      <point x="93" y="-12"/>
    </contour>
  </outline>
</glyph>
<glyph name="g" format="2">
  <advance width="512"/>
  <unicode hex="0067"/>
  <outline>
    <contour>
      <point x="413" y="421" type="curve"/>
      <point x="430" y="396" type="line"/>
      <point x="496" y="434"/>
      <point x="540" y="469"/>
      <point x="540" y="513" type="curve" smooth="yes"/>
      <point x="540" y="544"/>
      <point x="519" y="559"/>
      <point x="495" y="559" type="curve" smooth="yes"/>
      <point x="466" y="559"/>
      <point x="448" y="536"/>
      <point x="448" y="510" type="curve" smooth="yes"/>
      <point x="448" y="494"/>
      <point x="454" y="477"/>
      <point x="467" y="463" type="curve"/>
      <point x="456" y="448"/>
      <point x="439" y="434"/>
    </contour>
    <contour>
      <point x="168" y="-255" type="curve" smooth="yes"/>
      <point x="287" y="-255"/>
      <point x="461" y="-191"/>
      <point x="461" y="-75" type="curve" smooth="yes"/>
      <point x="461" y="86"/>
      <point x="125" y="30"/>
      <point x="125" y="106" type="curve" smooth="yes"/>
      <point x="125" y="126"/>
      <point x="149" y="148"/>
      <point x="186" y="169" type="curve"/>
      <point x="153" y="181" type="line"/>
      <point x="76" y="140"/>
      <point x="44" y="108"/>
      <point x="44" y="68" type="curve" smooth="yes"/>
      <point x="44" y="-60"/>
      <point x="373" y="9"/>
      <point x="373" y="-111" type="curve" smooth="yes"/>
      <point x="373" y="-177"/>
      <point x="273" y="-216"/>
      <point x="196" y="-216" type="curve" smooth="yes"/>
      <point x="129" y="-216"/>
      <point x="61" y="-187"/>
      <point x="61" y="-117" type="curve" smooth="yes"/>
      <point x="61" y="-66"/>
      <point x="96" y="-28"/>
      <point x="157" y="7" type="curve"/>
      <point x="119" y="17" type="line"/>
      <point x="44" y="-20"/>
      <point x="-29" y="-61"/>
      <point x="-29" y="-132" type="curve" smooth="yes"/>
      <point x="-29" y="-217"/>
      <point x="76" y="-255"/>
    </contour>
    <contour>
      <point x="244" y="146" type="curve" smooth="yes"/>
      <point x="366" y="146"/>
      <point x="461" y="227"/>
      <point x="461" y="331" type="curve" smooth="yes"/>
      <point x="461" y="424"/>
      <point x="386" y="480"/>
      <point x="287" y="480" type="curve" smooth="yes"/>
      <point x="164" y="480"/>
      <point x="63" y="395"/>
      <point x="63" y="293" type="curve" smooth="yes"/>
      <point x="63" y="201"/>
      <point x="144" y="146"/>
    </contour>
    <contour>
      <point x="244" y="181" type="curve" smooth="yes"/>
      <point x="179" y="181"/>
      <point x="162" y="239"/>
      <point x="162" y="287" type="curve" smooth="yes"/>
      <point x="162" y="350"/>
      <point x="192" y="448"/>
      <point x="278" y="448" type="curve" smooth="yes"/>
      <point x="347" y="448"/>
      <point x="362" y="387"/>
      <point x="362" y="343" type="curve" smooth="yes"/>
      <point x="362" y="278"/>
      <point x="329" y="181"/>
    </contour>
  </outline>
</glyph>
<glyph name="j" format="2">
  <advance width="283"/>
  <unicode hex="006A"/>
  <outline>
    <contour>
      <point x="-87" y="-255" type="curve" smooth="yes"/>
      <point x="38" y="-255"/>
      <point x="118" y="-107"/>
      <point x="168" y="109" type="curve" smooth="yes"/>
      <point x="230" y="376" type="line" smooth="yes"/>
      <point x="234" y="391"/>
      <point x="235" y="408"/>
      <point x="235" y="416" type="curve" smooth="yes"/>
      <point x="235" y="452"/>
      <point x="217" y="478"/>
      <point x="172" y="478" type="curve" smooth="yes"/>
      <point x="123" y="478"/>
      <point x="63" y="447"/>
      <point x="10" y="384" type="curve"/>
      <point x="17" y="376"/>
      <point x="24" y="369"/>
      <point x="33" y="363" type="curve"/>
      <point x="62" y="394"/>
      <point x="95" y="417"/>
      <point x="114" y="417" type="curve" smooth="yes"/>
      <point x="125" y="417"/>
      <point x="133" y="410"/>
      <point x="133" y="393" type="curve" smooth="yes"/>
      <point x="133" y="385"/>
      <point x="131" y="376"/>
      <point x="126" y="355" type="curve" smooth="yes"/>
      <point x="44" y="-3" type="line" smooth="yes"/>
      <point x="11" y="-149"/>
      <point x="-15" y="-215"/>
      <point x="-69" y="-215" type="curve"/>
      <point x="-44" y="-240" type="line"/>
      <point x="-50" y="-193"/>
      <point x="-84" y="-148"/>
      <point x="-125" y="-148" type="curve" smooth="yes"/>
      <point x="-152" y="-148"/>
      <point x="-174" y="-168"/>
      <point x="-174" y="-195" type="curve" smooth="yes"/>
      <point x="-174" y="-231"/>
      <point x="-138" y="-255"/>
    </contour>
    <contour>
      <point x="221" y="594" type="curve" smooth="yes"/>
      <point x="262" y="594"/>
      <point x="292" y="628"/>
      <point x="292" y="668" type="curve" smooth="yes"/>
      <point x="292" y="703"/>
      <point x="269" y="729"/>
      <point x="233" y="729" type="curve" smooth="yes"/>
      <point x="193" y="729"/>
      <point x="160" y="696"/>
      <point x="160" y="656" type="curve" smooth="yes"/>
      <point x="160" y="621"/>
      <point x="185" y="594"/>
    </contour>
  </outline>
  <guideline angle="79.0044" x="167" y="0"/>
  <guideline angle="79.0044" x="63" y="0"/>
</glyph>
<glyph name="o" format="2">
  <advance width="527"/>
  <unicode hex="006F"/>
  <outline>
    <contour>
      <point x="487" y="284" type="curve" smooth="yes"/>
      <point x="487" y="391"/>
      <point x="430" y="480"/>
      <point x="300" y="480" type="curve" smooth="yes"/>
      <point x="116" y="480"/>
      <point x="36" y="304"/>
      <point x="36" y="190" type="curve" smooth="yes"/>
      <point x="36" y="102"/>
      <point x="83" y="-12"/>
      <point x="226" y="-12" type="curve" smooth="yes"/>
      <point x="397" y="-12"/>
      <point x="487" y="149"/>
    </contour>
    <contour>
      <point x="381" y="300" type="curve" smooth="yes"/>
      <point x="381" y="176"/>
      <point x="328" y="25"/>
      <point x="230" y="25" type="curve" smooth="yes"/>
      <point x="167" y="25"/>
      <point x="142" y="89"/>
      <point x="142" y="172" type="curve" smooth="yes"/>
      <point x="142" y="299"/>
      <point x="201" y="443"/>
      <point x="296" y="443" type="curve" smooth="yes"/>
      <point x="357" y="443"/>
      <point x="381" y="383"/>
    </contour>
  </outline>
  <guideline angle="79.0044" x="216" y="0"/>
</glyph>
<glyph name="s" format="2">
  <advance width="409"/>
  <unicode hex="0073"/>
  <outline>
    <contour>
      <point x="163" y="-12" type="curve" smooth="yes"/>
      <point x="275" y="-12"/>
      <point x="357" y="38"/>
      <point x="357" y="122" type="curve" smooth="yes"/>
      <point x="357" y="191"/>
      <point x="301" y="231"/>
      <point x="248" y="267" type="curve" smooth="yes"/>
      <point x="185" y="309"/>
      <point x="152" y="333"/>
      <point x="152" y="375" type="curve" smooth="yes"/>
      <point x="152" y="414"/>
      <point x="180" y="441"/>
      <point x="234" y="441" type="curve" smooth="yes"/>
      <point x="260" y="441"/>
      <point x="287" y="435"/>
      <point x="308" y="426" type="curve"/>
      <point x="275" y="451" type="line"/>
      <point x="276" y="408"/>
      <point x="298" y="353"/>
      <point x="348" y="353" type="curve" smooth="yes"/>
      <point x="383" y="353"/>
      <point x="395" y="380"/>
      <point x="395" y="400" type="curve" smooth="yes"/>
      <point x="395" y="438"/>
      <point x="347" y="479"/>
      <point x="251" y="479" type="curve" smooth="yes"/>
      <point x="120" y="479"/>
      <point x="63" y="403"/>
      <point x="63" y="339" type="curve" smooth="yes"/>
      <point x="63" y="276"/>
      <point x="118" y="236"/>
      <point x="173" y="198" type="curve" smooth="yes"/>
      <point x="234" y="156"/>
      <point x="266" y="134"/>
      <point x="266" y="93" type="curve" smooth="yes"/>
      <point x="266" y="46"/>
      <point x="224" y="23"/>
      <point x="169" y="23" type="curve" smooth="yes"/>
      <point x="144" y="23"/>
      <point x="114" y="28"/>
      <point x="84" y="46" type="curve"/>
      <point x="129" y="10" type="line"/>
      <point x="126" y="58"/>
      <point x="107" y="122"/>
      <point x="51" y="122" type="curve" smooth="yes"/>
      <point x="17" y="122"/>
      <point x="0" y="98"/>
      <point x="0" y="75" type="curve" smooth="yes"/>
      <point x="0" y="33"/>
      <point x="58" y="-12"/>
    </contour>
  </outline>
</glyph>
<glyph name="y" format="2">
  <advance width="510"/>
  <unicode hex="0079"/>
  <outline>
    <contour>
      <point x="41" y="-233" type="line"/>
      <point x="28" y="-146"/>
      <point x="-12" y="-129"/>
      <point x="-37" y="-129" type="curve" smooth="yes"/>
      <point x="-66" y="-129"/>
      <point x="-86" y="-151"/>
      <point x="-86" y="-178" type="curve" smooth="yes"/>
      <point x="-86" y="-212"/>
      <point x="-47" y="-253"/>
      <point x="22" y="-253" type="curve" smooth="yes"/>
      <point x="119" y="-253"/>
      <point x="203" y="-178"/>
      <point x="322" y="28" type="curve" smooth="yes"/>
      <point x="410" y="181"/>
      <point x="486" y="336"/>
      <point x="486" y="398" type="curve" smooth="yes"/>
      <point x="486" y="445"/>
      <point x="465" y="480"/>
      <point x="424" y="480" type="curve" smooth="yes"/>
      <point x="390" y="480"/>
      <point x="369" y="453"/>
      <point x="369" y="422" type="curve" smooth="yes"/>
      <point x="369" y="387"/>
      <point x="397" y="355"/>
      <point x="434" y="337" type="curve"/>
      <point x="422" y="352" type="line"/>
      <point x="413" y="309"/>
      <point x="358" y="178"/>
      <point x="277" y="44" type="curve" smooth="yes"/>
      <point x="181" y="-115"/>
      <point x="110" y="-211"/>
      <point x="30" y="-211" type="curve" smooth="yes"/>
      <point x="18" y="-211"/>
      <point x="6" y="-208"/>
      <point x="-7" y="-204" type="curve"/>
    </contour>
    <contour>
      <point x="316" y="56" type="line"/>
      <point x="213" y="435"/>
      <point x="178" y="476"/>
      <point x="118" y="476" type="curve" smooth="yes"/>
      <point x="79" y="476"/>
      <point x="32" y="459"/>
      <point x="-23" y="389" type="curve"/>
      <point x="-16" y="381"/>
      <point x="-9" y="374"/>
      <point x="0" y="368" type="curve"/>
      <point x="31" y="403"/>
      <point x="48" y="413"/>
      <point x="64" y="413" type="curve" smooth="yes"/>
      <point x="98" y="413"/>
      <point x="132" y="367"/>
      <point x="245" y="-27" type="curve"/>
    </contour>
  </outline>
</glyph>
<glyph name="z" format="2">
  <advance width="449"/>
  <unicode hex="007A"/>
  <outline>
    <contour>
      <point x="-23" y="12" type="line"/>
      <point x="-18" y="8"/>
      <point x="10" y="-11"/>
      <point x="20" y="-11" type="curve"/>
      <point x="472" y="449" type="line"/>
      <point x="467" y="455"/>
      <point x="448" y="476"/>
      <point x="436" y="480" type="curve"/>
    </contour>
    <contour>
      <point x="52" y="53" type="line"/>
      <point x="141" y="19"/>
      <point x="210" y="-12"/>
      <point x="260" y="-12" type="curve" smooth="yes"/>
      <point x="317" y="-12"/>
      <point x="370" y="27"/>
      <point x="430" y="132" type="curve"/>
      <point x="425" y="139"/>
      <point x="416" y="146"/>
      <point x="406" y="151" type="curve"/>
      <point x="362" y="89"/>
      <point x="328" y="75"/>
      <point x="294" y="75" type="curve" smooth="yes"/>
      <point x="251" y="75"/>
      <point x="203" y="94"/>
      <point x="114" y="129" type="curve"/>
    </contour>
    <contour>
      <point x="416" y="420" type="line"/>
      <point x="310" y="465"/>
      <point x="246" y="477"/>
      <point x="208" y="477" type="curve" smooth="yes"/>
      <point x="111" y="477"/>
      <point x="45" y="402"/>
      <point x="45" y="345" type="curve" smooth="yes"/>
      <point x="45" y="310"/>
      <point x="70" y="280"/>
      <point x="106" y="280" type="curve" smooth="yes"/>
      <point x="137" y="280"/>
      <point x="151" y="301"/>
      <point x="151" y="324" type="curve" smooth="yes"/>
      <point x="151" y="359"/>
      <point x="116" y="375"/>
      <point x="82" y="375" type="curve"/>
      <point x="93" y="370" type="line"/>
      <point x="96" y="388"/>
      <point x="115" y="399"/>
      <point x="148" y="399" type="curve" smooth="yes"/>
      <point x="186" y="399"/>
      <point x="247" y="387"/>
      <point x="343" y="348" type="curve"/>
    </contour>
  </outline>
  <guideline angle="78.8665" x="379" y="0"/>
  <guideline angle="78.861" x="-40" y="0"/>
</glyph>
<glyph name="asciitilde" format="2">
  <advance width="581"/>
  <unicode hex="007E"/>
  <outline>
    <contour>
      <point x="532" y="287" type="curve"/>
      <point x="494" y="256"/>
      <point x="456" y="247"/>
      <point x="418" y="247" type="curve" smooth="yes"/>
      <point x="387.328" y="247"/>
      <point x="356.438" y="254.455"/>
      <point x="294.253" y="276.864" type="curve" smooth="yes"/>
      <point x="252.503" y="291.909"/>
      <point x="210.626" y="307"/>
      <point x="169" y="307" type="curve" smooth="yes"/>
      <point x="130" y="307"/>
      <point x="93" y="297"/>
      <point x="55" y="266" type="curve"/>
      <point x="52" y="251"/>
      <point x="52" y="232"/>
      <point x="55" y="218" type="curve"/>
      <point x="93" y="248"/>
      <point x="130" y="257"/>
      <point x="169" y="257" type="curve" smooth="yes"/>
      <point x="208.394" y="257"/>
      <point x="248.757" y="242.694"/>
      <point x="289.733" y="228.171" type="curve" smooth="yes"/>
      <point x="331.969" y="213.201"/>
      <point x="374.856" y="198"/>
      <point x="418" y="198" type="curve" smooth="yes"/>
      <point x="456" y="198"/>
      <point x="494" y="208"/>
      <point x="532" y="238" type="curve"/>
      <point x="533" y="252"/>
      <point x="533" y="273"/>
    </contour>
  </outline>
</glyph>
<glyph name="cent" format="2">
  <advance width="494"/>
  <unicode hex="00A2"/>
  <outline>
    <contour>
      <point x="229" y="-103" type="curve"/>
      <point x="367" y="601" type="line"/>
      <point x="353" y="602"/>
      <point x="338" y="602"/>
      <point x="324" y="601" type="curve"/>
      <point x="186" y="-103" type="line"/>
      <point x="198" y="-105"/>
      <point x="217" y="-104"/>
    </contour>
    <contour>
      <point x="225" y="-12" type="curve" smooth="yes"/>
      <point x="338" y="-12"/>
      <point x="403" y="58"/>
      <point x="436" y="121" type="curve"/>
      <point x="431" y="128"/>
      <point x="422" y="135"/>
      <point x="412" y="140" type="curve"/>
      <point x="371" y="78"/>
      <point x="320" y="58"/>
      <point x="265" y="58" type="curve" smooth="yes"/>
      <point x="169" y="58"/>
      <point x="136" y="120"/>
      <point x="136" y="197" type="curve" smooth="yes"/>
      <point x="136" y="309"/>
      <point x="207" y="468"/>
      <point x="349" y="468" type="curve" smooth="yes"/>
      <point x="355" y="468"/>
      <point x="368" y="468"/>
      <point x="373" y="465" type="curve"/>
      <point x="366" y="487" type="line"/>
      <point x="366" y="408"/>
      <point x="404" y="383"/>
      <point x="435" y="383" type="curve" smooth="yes"/>
      <point x="464" y="383"/>
      <point x="481" y="404"/>
      <point x="481" y="433" type="curve" smooth="yes"/>
      <point x="481" y="479"/>
      <point x="436" y="512"/>
      <point x="360" y="512" type="curve" smooth="yes"/>
      <point x="201" y="512"/>
      <point x="35" y="369"/>
      <point x="35" y="184" type="curve" smooth="yes"/>
      <point x="35" y="58"/>
      <point x="112" y="-12"/>
    </contour>
  </outline>
  <guideline angle="79.0044" x="251" y="0"/>
</glyph>
<glyph name="currency" format="2">
  <advance width="593"/>
  <unicode hex="00A4"/>
  <outline>
    <contour>
      <point x="305" y="96" type="curve" smooth="yes"/>
      <point x="421" y="96"/>
      <point x="520" y="185"/>
      <point x="520" y="311" type="curve" smooth="yes"/>
      <point x="520" y="434"/>
      <point x="426" y="527"/>
      <point x="305" y="527" type="curve" smooth="yes"/>
      <point x="190" y="527"/>
      <point x="90" y="439"/>
      <point x="90" y="311" type="curve" smooth="yes"/>
      <point x="90" y="204"/>
      <point x="171" y="96"/>
    </contour>
    <contour>
      <point x="182" y="151" type="line"/>
      <point x="143" y="185" type="line"/>
      <point x="76" y="125" type="line"/>
      <point x="89" y="109"/>
      <point x="102" y="96"/>
      <point x="117" y="83" type="curve"/>
    </contour>
    <contour>
      <point x="305" y="146" type="curve" smooth="yes"/>
      <point x="217" y="146"/>
      <point x="146" y="219"/>
      <point x="146" y="311" type="curve" smooth="yes"/>
      <point x="146" y="403"/>
      <point x="216" y="478"/>
      <point x="305" y="478" type="curve" smooth="yes"/>
      <point x="396" y="478"/>
      <point x="464" y="401"/>
      <point x="464" y="311" type="curve" smooth="yes"/>
      <point x="464" y="221"/>
      <point x="395" y="146"/>
    </contour>
    <contour>
      <point x="493" y="82" type="line"/>
      <point x="508" y="96"/>
      <point x="522" y="110"/>
      <point x="534" y="124" type="curve"/>
      <point x="467" y="188" type="line"/>
      <point x="430" y="148" type="line"/>
    </contour>
    <contour>
      <point x="180" y="474" type="line"/>
      <point x="117" y="541" type="line"/>
      <point x="102" y="527"/>
      <point x="88" y="512"/>
      <point x="76" y="499" type="curve"/>
      <point x="141" y="437" type="line"/>
    </contour>
    <contour>
      <point x="534" y="499" type="line"/>
      <point x="521" y="514"/>
      <point x="507" y="529"/>
      <point x="493" y="541" type="curve"/>
      <point x="428" y="473" type="line"/>
      <point x="470" y="438" type="line"/>
    </contour>
  </outline>
</glyph>
<glyph name="yen" format="2">
  <advance width="544"/>
  <unicode hex="00A5"/>
  <outline>
    <contour>
      <point x="78" y="-1" type="curve"/>
      <point x="115" y="-1"/>
      <point x="180" y="1"/>
      <point x="229" y="1" type="curve" smooth="yes"/>
      <point x="275" y="1"/>
      <point x="332" y="-1"/>
      <point x="371" y="-1" type="curve"/>
      <point x="374" y="8"/>
      <point x="376" y="21"/>
      <point x="377" y="31" type="curve"/>
      <point x="304" y="36"/>
      <point x="289" y="38"/>
      <point x="289" y="67" type="curve" smooth="yes"/>
      <point x="289" y="77"/>
      <point x="293" y="96"/>
      <point x="298" y="119" type="curve" smooth="yes"/>
      <point x="328" y="272" type="line"/>
      <point x="224" y="272" type="line"/>
      <point x="191" y="107" type="line" smooth="yes"/>
      <point x="178" y="40"/>
      <point x="173" y="39"/>
      <point x="83" y="31" type="curve"/>
      <point x="79" y="21"/>
      <point x="78" y="8"/>
    </contour>
    <contour>
      <point x="459" y="152" type="line"/>
      <point x="464" y="167"/>
      <point x="466" y="181"/>
      <point x="467" y="196" type="curve"/>
      <point x="55" y="196" type="line"/>
      <point x="51" y="181"/>
      <point x="49" y="167"/>
      <point x="47" y="152" type="curve"/>
    </contour>
    <contour>
      <point x="481" y="268" type="line"/>
      <point x="486" y="283"/>
      <point x="489" y="298"/>
      <point x="490" y="312" type="curve"/>
      <point x="78" y="312" type="line"/>
      <point x="74" y="298"/>
      <point x="71" y="283"/>
      <point x="69" y="268" type="curve"/>
    </contour>
    <contour>
      <point x="473" y="475" type="line" smooth="yes"/>
      <point x="548" y="575"/>
      <point x="559" y="579"/>
      <point x="636" y="590" type="curve"/>
      <point x="639" y="601"/>
      <point x="641" y="611"/>
      <point x="642" y="622" type="curve"/>
      <point x="600" y="622"/>
      <point x="570" y="620"/>
      <point x="527" y="620" type="curve" smooth="yes"/>
      <point x="491" y="620"/>
      <point x="453" y="622"/>
      <point x="398" y="622" type="curve"/>
      <point x="394" y="612"/>
      <point x="392" y="603"/>
      <point x="392" y="590" type="curve"/>
      <point x="448" y="584"/>
      <point x="472" y="579"/>
      <point x="472" y="562" type="curve" smooth="yes"/>
      <point x="472" y="550"/>
      <point x="461" y="536"/>
      <point x="442" y="509" type="curve" smooth="yes"/>
      <point x="298" y="306" type="line"/>
      <point x="324" y="306" type="line"/>
      <point x="256" y="509" type="line" smooth="yes"/>
      <point x="250" y="528"/>
      <point x="244" y="545"/>
      <point x="244" y="556" type="curve" smooth="yes"/>
      <point x="244" y="578"/>
      <point x="265" y="584"/>
      <point x="323" y="590" type="curve"/>
      <point x="327" y="603"/>
      <point x="329" y="612"/>
      <point x="329" y="622" type="curve"/>
      <point x="282" y="622"/>
      <point x="237" y="620"/>
      <point x="199" y="620" type="curve" smooth="yes"/>
      <point x="150" y="620"/>
      <point x="100" y="622"/>
      <point x="54" y="622" type="curve"/>
      <point x="48.9731" y="610.689"/>
      <point x="48" y="602.168"/>
      <point x="48" y="590" type="curve"/>
      <point x="119" y="580"/>
      <point x="126" y="575"/>
      <point x="159" y="482" type="curve" smooth="yes"/>
      <point x="229" y="285" type="line"/>
      <point x="329" y="283" type="line"/>
    </contour>
  </outline>
  <guideline angle="0" x="0" y="620"/>
</glyph>
<glyph name="section" format="2">
  <advance width="540"/>
  <unicode hex="00A7"/>
  <outline>
    <contour>
      <point x="397" y="711" type="curve" smooth="yes"/>
      <point x="217" y="711"/>
      <point x="82" y="544"/>
      <point x="82" y="360" type="curve" smooth="yes"/>
      <point x="82" y="260"/>
      <point x="120" y="192"/>
      <point x="171" y="110" type="curve" smooth="yes"/>
      <point x="214" y="41"/>
      <point x="259" y="-32"/>
      <point x="272" y="-140" type="curve"/>
      <point x="296" y="-115" type="line"/>
      <point x="306" y="-66"/>
      <point x="311" y="-37"/>
      <point x="311" y="-8" type="curve" smooth="yes"/>
      <point x="311" y="76"/>
      <point x="268" y="147"/>
      <point x="226" y="216" type="curve" smooth="yes"/>
      <point x="186" y="282"/>
      <point x="146" y="347"/>
      <point x="146" y="420" type="curve" smooth="yes"/>
      <point x="146" y="542"/>
      <point x="255" y="673"/>
      <point x="382" y="673" type="curve" smooth="yes"/>
      <point x="392" y="673"/>
      <point x="402" y="672"/>
      <point x="411" y="670" type="curve"/>
      <point x="414" y="622"/>
      <point x="433" y="580"/>
      <point x="477" y="580" type="curve" smooth="yes"/>
      <point x="511" y="580"/>
      <point x="525" y="605"/>
      <point x="525" y="632" type="curve" smooth="yes"/>
      <point x="525" y="685"/>
      <point x="468" y="711"/>
    </contour>
    <contour>
      <point x="220" y="624" type="line"/>
      <point x="212" y="578"/>
      <point x="207" y="545"/>
      <point x="207" y="517" type="curve" smooth="yes"/>
      <point x="207" y="435"/>
      <point x="249" y="365"/>
      <point x="290" y="296" type="curve" smooth="yes"/>
      <point x="330" y="229"/>
      <point x="370" y="164"/>
      <point x="370" y="90" type="curve" smooth="yes"/>
      <point x="370" y="-34"/>
      <point x="260" y="-162"/>
      <point x="135" y="-162" type="curve" smooth="yes"/>
      <point x="125" y="-162"/>
      <point x="116" y="-161"/>
      <point x="107" y="-159" type="curve"/>
      <point x="104" y="-111"/>
      <point x="89" y="-65"/>
      <point x="42" y="-65" type="curve" smooth="yes"/>
      <point x="9" y="-65"/>
      <point x="-8" y="-88"/>
      <point x="-8" y="-115" type="curve" smooth="yes"/>
      <point x="-8" y="-167"/>
      <point x="53" y="-200"/>
      <point x="130" y="-200" type="curve" smooth="yes"/>
      <point x="303" y="-200"/>
      <point x="437" y="-31"/>
      <point x="437" y="156" type="curve" smooth="yes"/>
      <point x="437" y="263"/>
      <point x="392" y="332"/>
      <point x="345" y="403" type="curve" smooth="yes"/>
      <point x="293" y="482"/>
      <point x="254" y="549"/>
      <point x="244" y="645" type="curve"/>
    </contour>
  </outline>
</glyph>
<glyph name="copyright" format="2">
  <advance width="1058"/>
  <unicode hex="00A9"/>
  <outline>
    <contour>
      <point x="991" y="317" type="curve" smooth="yes"/>
      <point x="991" y="582"/>
      <point x="801" y="771"/>
      <point x="535" y="771" type="curve" smooth="yes"/>
      <point x="267" y="771"/>
      <point x="78" y="582"/>
      <point x="78" y="317" type="curve" smooth="yes"/>
      <point x="78" y="50"/>
      <point x="267" y="-140"/>
      <point x="535" y="-140" type="curve" smooth="yes"/>
      <point x="801" y="-140"/>
      <point x="991" y="49"/>
    </contour>
    <contour>
      <point x="934" y="317" type="curve" smooth="yes"/>
      <point x="934" y="74"/>
      <point x="776" y="-92"/>
      <point x="535" y="-92" type="curve" smooth="yes"/>
      <point x="293" y="-92"/>
      <point x="134" y="74"/>
      <point x="134" y="317" type="curve" smooth="yes"/>
      <point x="134" y="557"/>
      <point x="293" y="724"/>
      <point x="535" y="724" type="curve" smooth="yes"/>
      <point x="776" y="724"/>
      <point x="934" y="557"/>
    </contour>
    <contour>
      <point x="730" y="228" type="curve"/>
      <point x="719" y="230"/>
      <point x="709" y="230"/>
      <point x="699" y="229" type="curve"/>
      <point x="679" y="134"/>
      <point x="628" y="90"/>
      <point x="553" y="90" type="curve" smooth="yes"/>
      <point x="429" y="90"/>
      <point x="376" y="197"/>
      <point x="376" y="318" type="curve" smooth="yes"/>
      <point x="376" y="433"/>
      <point x="425" y="543"/>
      <point x="546" y="543" type="curve" smooth="yes"/>
      <point x="625" y="543"/>
      <point x="676" y="497"/>
      <point x="695" y="404" type="curve"/>
      <point x="705" y="404"/>
      <point x="716" y="404"/>
      <point x="726" y="406" type="curve"/>
      <point x="722" y="460"/>
      <point x="719" y="511"/>
      <point x="719" y="557" type="curve"/>
      <point x="712" y="555"/>
      <point x="705" y="555"/>
      <point x="698" y="555" type="curve" smooth="yes"/>
      <point x="687" y="555"/>
      <point x="666" y="558"/>
      <point x="635" y="566" type="curve"/>
      <point x="604" y="575"/>
      <point x="571" y="580"/>
      <point x="539" y="580" type="curve" smooth="yes"/>
      <point x="383" y="580"/>
      <point x="270" y="468"/>
      <point x="270" y="313" type="curve" smooth="yes"/>
      <point x="270" y="151"/>
      <point x="381" y="53"/>
      <point x="541" y="53" type="curve" smooth="yes"/>
      <point x="568" y="53"/>
      <point x="594" y="55"/>
      <point x="618" y="60" type="curve"/>
      <point x="642" y="66"/>
      <point x="675" y="76"/>
      <point x="717" y="92" type="curve"/>
      <point x="721" y="139"/>
      <point x="725" y="184"/>
    </contour>
  </outline>
</glyph>
<glyph name="registered" format="2">
  <advance width="575"/>
  <unicode hex="00AE"/>
  <outline>
    <contour>
      <point x="339" y="294" type="curve" smooth="yes"/>
      <point x="480" y="294"/>
      <point x="575" y="388"/>
      <point x="575" y="530" type="curve" smooth="yes"/>
      <point x="575" y="672"/>
      <point x="480" y="765"/>
      <point x="339" y="765" type="curve" smooth="yes"/>
      <point x="194" y="765"/>
      <point x="100" y="672"/>
      <point x="100" y="530" type="curve" smooth="yes"/>
      <point x="100" y="388"/>
      <point x="194" y="294"/>
    </contour>
    <contour>
      <point x="339" y="324" type="curve" smooth="yes"/>
      <point x="214" y="324"/>
      <point x="136" y="405"/>
      <point x="136" y="530" type="curve" smooth="yes"/>
      <point x="136" y="652"/>
      <point x="214" y="735"/>
      <point x="339" y="735" type="curve" smooth="yes"/>
      <point x="462" y="735"/>
      <point x="540" y="652"/>
      <point x="540" y="530" type="curve" smooth="yes"/>
      <point x="540" y="405"/>
      <point x="462" y="324"/>
    </contour>
    <contour>
      <point x="294" y="521" type="line"/>
      <point x="314" y="519" type="line"/>
      <point x="329" y="517"/>
      <point x="331" y="514"/>
      <point x="341" y="499" type="curve"/>
      <point x="403" y="400" type="line"/>
      <point x="411" y="401"/>
      <point x="420" y="401"/>
      <point x="429" y="401" type="curve" smooth="yes"/>
      <point x="452" y="401"/>
      <point x="485" y="400"/>
      <point x="493" y="400" type="curve"/>
      <point x="494" y="406"/>
      <point x="494" y="415"/>
      <point x="493" y="420" type="curve"/>
      <point x="454" y="423"/>
      <point x="452" y="423"/>
      <point x="420" y="472" type="curve" smooth="yes"/>
      <point x="398" y="505" type="line" smooth="yes"/>
      <point x="390" y="517"/>
      <point x="385" y="525"/>
      <point x="369" y="530" type="curve"/>
      <point x="379" y="519" type="line"/>
      <point x="379" y="527" type="line"/>
      <point x="421" y="543"/>
      <point x="445" y="569"/>
      <point x="445" y="602" type="curve" smooth="yes"/>
      <point x="445" y="647"/>
      <point x="402" y="672"/>
      <point x="340" y="672" type="curve" smooth="yes"/>
      <point x="330" y="672"/>
      <point x="318" y="671"/>
      <point x="301" y="671" type="curve" smooth="yes"/>
      <point x="244" y="671"/>
      <point x="231" y="672"/>
      <point x="205" y="672" type="curve"/>
      <point x="203" y="667"/>
      <point x="203" y="658"/>
      <point x="205" y="652" type="curve"/>
      <point x="247" y="649"/>
      <point x="247" y="648"/>
      <point x="247" y="608" type="curve" smooth="yes"/>
      <point x="247" y="460" type="line" smooth="yes"/>
      <point x="247" y="425"/>
      <point x="247" y="424"/>
      <point x="205" y="420" type="curve"/>
      <point x="203" y="415"/>
      <point x="203" y="406"/>
      <point x="205" y="400" type="curve"/>
      <point x="226" y="400"/>
      <point x="258" y="401"/>
      <point x="270" y="401" type="curve" smooth="yes"/>
      <point x="284" y="401"/>
      <point x="313" y="400"/>
      <point x="335" y="400" type="curve"/>
      <point x="336" y="406"/>
      <point x="336" y="415"/>
      <point x="335" y="420" type="curve"/>
      <point x="302" y="424"/>
      <point x="301" y="425"/>
      <point x="301" y="465" type="curve" smooth="yes"/>
      <point x="301" y="656" type="line"/>
      <point x="291" y="646" type="line"/>
      <point x="306" y="648"/>
      <point x="318" y="648"/>
      <point x="326" y="648" type="curve" smooth="yes"/>
      <point x="366" y="648"/>
      <point x="385" y="631"/>
      <point x="385" y="595" type="curve" smooth="yes"/>
      <point x="385" y="560"/>
      <point x="363" y="541"/>
      <point x="325" y="541" type="curve" smooth="yes"/>
      <point x="315" y="541"/>
      <point x="307" y="541"/>
      <point x="294" y="543" type="curve"/>
    </contour>
  </outline>
</glyph>
<glyph name="degree" format="2">
  <advance width="471"/>
  <unicode hex="00B0"/>
  <outline>
    <contour>
      <point x="83" y="449" type="curve" smooth="yes"/>
      <point x="83" y="349"/>
      <point x="165" y="267"/>
      <point x="264" y="267" type="curve" smooth="yes"/>
      <point x="363" y="267"/>
      <point x="446" y="350"/>
      <point x="446" y="449" type="curve" smooth="yes"/>
      <point x="446" y="548"/>
      <point x="364" y="630"/>
      <point x="264" y="630" type="curve" smooth="yes"/>
      <point x="164" y="630"/>
      <point x="83" y="549"/>
    </contour>
    <contour>
      <point x="139" y="449" type="curve" smooth="yes"/>
      <point x="139" y="519"/>
      <point x="193" y="578"/>
      <point x="264" y="578" type="curve" smooth="yes"/>
      <point x="336" y="578"/>
      <point x="390" y="521"/>
      <point x="390" y="449" type="curve" smooth="yes"/>
      <point x="390" y="376"/>
      <point x="335" y="319"/>
      <point x="264" y="319" type="curve" smooth="yes"/>
      <point x="194" y="319"/>
      <point x="139" y="378"/>
    </contour>
  </outline>
  <guideline angle="79.01" x="-8" y="0"/>
  <guideline angle="79.0044" x="362" y="0"/>
</glyph>
<glyph name="threesuperior" format="2">
  <advance width="378"/>
  <unicode hex="00B3"/>
  <outline>
    <contour>
      <point x="183" y="324" type="curve" smooth="yes"/>
      <point x="300" y="324"/>
      <point x="393" y="392"/>
      <point x="393" y="480" type="curve" smooth="yes"/>
      <point x="393" y="547"/>
      <point x="339" y="585"/>
      <point x="268" y="585" type="curve"/>
      <point x="160" y="565" type="line"/>
      <point x="159" y="561"/>
      <point x="159" y="558"/>
      <point x="159" y="555" type="curve" smooth="yes"/>
      <point x="159" y="546"/>
      <point x="160" y="541"/>
      <point x="162" y="536" type="curve"/>
      <point x="179" y="540"/>
      <point x="192" y="543"/>
      <point x="211" y="543" type="curve" smooth="yes"/>
      <point x="274" y="543"/>
      <point x="306" y="512"/>
      <point x="306" y="462" type="curve" smooth="yes"/>
      <point x="306" y="398"/>
      <point x="255" y="356"/>
      <point x="188" y="356" type="curve" smooth="yes"/>
      <point x="179" y="356"/>
      <point x="159" y="357"/>
      <point x="145" y="362" type="curve"/>
      <point x="164" y="348" type="line"/>
      <point x="159" y="404"/>
      <point x="133" y="445"/>
      <point x="94" y="445" type="curve" smooth="yes"/>
      <point x="68" y="445"/>
      <point x="50" y="427"/>
      <point x="50" y="401" type="curve" smooth="yes"/>
      <point x="50" y="355"/>
      <point x="105" y="324"/>
    </contour>
    <contour>
      <point x="271" y="578" type="line"/>
      <point x="342" y="601"/>
      <point x="405" y="642"/>
      <point x="405" y="700" type="curve" smooth="yes"/>
      <point x="405" y="751"/>
      <point x="355" y="788"/>
      <point x="283" y="788" type="curve" smooth="yes"/>
      <point x="236" y="788"/>
      <point x="186" y="772"/>
      <point x="138" y="726" type="curve"/>
      <point x="139" y="719"/>
      <point x="142" y="711"/>
      <point x="148" y="704" type="curve"/>
      <point x="180" y="723"/>
      <point x="218" y="735"/>
      <point x="248" y="735" type="curve" smooth="yes"/>
      <point x="290" y="735"/>
      <point x="317" y="712"/>
      <point x="317" y="679" type="curve" smooth="yes"/>
      <point x="317" y="630"/>
      <point x="262" y="587"/>
      <point x="160" y="565" type="curve"/>
    </contour>
  </outline>
</glyph>
<glyph name="paragraph" format="2">
  <advance width="569"/>
  <unicode hex="00B6"/>
  <outline>
    <contour>
      <point x="372" y="658" type="line"/>
      <point x="466" y="655" type="line"/>
      <point x="305" y="-173" type="line"/>
      <point x="356" y="-162" type="line"/>
      <point x="501" y="588" type="line" smooth="yes"/>
      <point x="515" y="661"/>
      <point x="521" y="661"/>
      <point x="619" y="670" type="curve"/>
      <point x="622" y="680"/>
      <point x="624" y="691"/>
      <point x="625" y="701" type="curve"/>
      <point x="583" y="701"/>
      <point x="512" y="699"/>
      <point x="474" y="699" type="curve" smooth="yes"/>
      <point x="439" y="699"/>
      <point x="345" y="701"/>
      <point x="321" y="701" type="curve" smooth="yes"/>
      <point x="161" y="701"/>
      <point x="67" y="627"/>
      <point x="67" y="502" type="curve" smooth="yes"/>
      <point x="67" y="371"/>
      <point x="170" y="304"/>
      <point x="300" y="309" type="curve"/>
    </contour>
    <contour>
      <point x="353" y="674" type="line"/>
      <point x="182" y="-200" type="line"/>
      <point x="233" y="-189" type="line"/>
      <point x="401" y="673" type="line"/>
    </contour>
  </outline>
</glyph>
<glyph name="onesuperior" format="2">
  <advance width="313"/>
  <unicode hex="00B9"/>
  <outline>
    <contour>
      <point x="63" y="333" type="curve"/>
      <point x="97" y="333"/>
      <point x="125" y="336"/>
      <point x="188" y="336" type="curve" smooth="yes"/>
      <point x="255" y="336"/>
      <point x="276" y="333"/>
      <point x="305" y="333" type="curve"/>
      <point x="309" y="342"/>
      <point x="311" y="351"/>
      <point x="312" y="361" type="curve"/>
      <point x="255" y="367"/>
      <point x="239" y="368"/>
      <point x="239" y="396" type="curve" smooth="yes"/>
      <point x="239" y="407"/>
      <point x="242" y="422"/>
      <point x="246" y="444" type="curve" smooth="yes"/>
      <point x="289" y="665" type="line" smooth="yes"/>
      <point x="299" y="714"/>
      <point x="313" y="750"/>
      <point x="331" y="768" type="curve"/>
      <point x="330" y="776"/>
      <point x="326" y="782"/>
      <point x="322" y="788" type="curve"/>
      <point x="245" y="758"/>
      <point x="192" y="739"/>
      <point x="107" y="715" type="curve"/>
      <point x="107" y="705"/>
      <point x="108" y="697"/>
      <point x="110" y="687" type="curve"/>
      <point x="148" y="694"/>
      <point x="175" y="697"/>
      <point x="187" y="697" type="curve" smooth="yes"/>
      <point x="202" y="697"/>
      <point x="208" y="693"/>
      <point x="208" y="681" type="curve" smooth="yes"/>
      <point x="208" y="676"/>
      <point x="207" y="667"/>
      <point x="205" y="658" type="curve" smooth="yes"/>
      <point x="161" y="435" type="line" smooth="yes"/>
      <point x="148" y="372"/>
      <point x="147" y="369"/>
      <point x="69" y="361" type="curve"/>
      <point x="65" y="351"/>
      <point x="63" y="342"/>
    </contour>
  </outline>
</glyph>
<glyph name="questiondown" format="2">
  <advance width="416"/>
  <unicode hex="00BF"/>
  <outline>
    <contour>
      <point x="290" y="481" type="curve" smooth="yes"/>
      <point x="247" y="481"/>
      <point x="212" y="445"/>
      <point x="212" y="402" type="curve" smooth="yes"/>
      <point x="212" y="365"/>
      <point x="238" y="335"/>
      <point x="277" y="335" type="curve" smooth="yes"/>
      <point x="321" y="335"/>
      <point x="353" y="371"/>
      <point x="353" y="415" type="curve" smooth="yes"/>
      <point x="353" y="452"/>
      <point x="329" y="481"/>
    </contour>
    <contour>
      <point x="274" y="264" type="line"/>
      <point x="262" y="266"/>
      <point x="252" y="267"/>
      <point x="240" y="267" type="curve"/>
      <point x="209" y="159" type="line"/>
      <point x="228" y="171" type="line"/>
      <point x="84" y="173"/>
      <point x="-3" y="142"/>
      <point x="-3" y="4" type="curve" smooth="yes"/>
      <point x="-3" y="-151"/>
      <point x="107" y="-243"/>
      <point x="193" y="-243" type="curve" smooth="yes"/>
      <point x="243" y="-243"/>
      <point x="270" y="-213"/>
      <point x="270" y="-185" type="curve" smooth="yes"/>
      <point x="270" y="-161"/>
      <point x="251" y="-140"/>
      <point x="211" y="-140" type="curve" smooth="yes"/>
      <point x="178" y="-140"/>
      <point x="140" y="-153"/>
      <point x="119" y="-173" type="curve"/>
      <point x="136" y="-170" type="line"/>
      <point x="87" y="-149"/>
      <point x="43" y="-81"/>
      <point x="43" y="-12" type="curve" smooth="yes"/>
      <point x="43" y="72"/>
      <point x="108" y="76"/>
      <point x="257" y="76" type="curve"/>
    </contour>
  </outline>
  <guideline angle="79.01" x="-9" y="0"/>
</glyph>
<glyph name="AE" format="2">
  <advance width="925"/>
  <unicode hex="00C6"/>
  <outline>
    <contour>
      <point x="454" y="670" type="line"/>
      <point x="91" y="182" type="line" smooth="yes"/>
      <point x="-12" y="44"/>
      <point x="-18" y="36"/>
      <point x="-99" y="30" type="curve"/>
      <point x="-103" y="20"/>
      <point x="-105" y="9"/>
      <point x="-105" y="-1" type="curve"/>
      <point x="-65" y="0"/>
      <point x="-30" y="1"/>
      <point x="8" y="1" type="curve" smooth="yes"/>
      <point x="38" y="1"/>
      <point x="116" y="0"/>
      <point x="144" y="-1" type="curve"/>
      <point x="148" y="9"/>
      <point x="150" y="21"/>
      <point x="150" y="31" type="curve"/>
      <point x="96" y="37"/>
      <point x="77" y="39"/>
      <point x="77" y="59" type="curve" smooth="yes"/>
      <point x="77" y="77"/>
      <point x="101" y="112"/>
      <point x="131" y="154" type="curve" smooth="yes"/>
      <point x="504" y="665" type="line"/>
    </contour>
    <contour>
      <point x="233" y="329" type="line"/>
      <point x="623" y="329" type="line" smooth="yes"/>
      <point x="696" y="329"/>
      <point x="714" y="324"/>
      <point x="714" y="264" type="curve" smooth="yes"/>
      <point x="714" y="253"/>
      <point x="713" y="236"/>
      <point x="711" y="221" type="curve"/>
      <point x="722" y="219"/>
      <point x="737" y="219"/>
      <point x="749" y="221" type="curve"/>
      <point x="754" y="263"/>
      <point x="762" y="308"/>
      <point x="770" y="347" type="curve" smooth="yes"/>
      <point x="778" y="385"/>
      <point x="791" y="440"/>
      <point x="800" y="476" type="curve"/>
      <point x="789" y="478"/>
      <point x="775" y="478"/>
      <point x="763" y="476" type="curve"/>
      <point x="729" y="375"/>
      <point x="722" y="371"/>
      <point x="627" y="371" type="curve" smooth="yes"/>
      <point x="247" y="371" type="line"/>
    </contour>
    <contour>
      <point x="297" y="-1" type="curve"/>
      <point x="335" y="-1"/>
      <point x="397" y="1"/>
      <point x="435" y="1" type="curve" smooth="yes"/>
      <point x="564" y="1"/>
      <point x="693" y="0"/>
      <point x="824" y="0" type="curve"/>
      <point x="835" y="41"/>
      <point x="852" y="99"/>
      <point x="881" y="178" type="curve"/>
      <point x="869" y="181"/>
      <point x="855" y="181"/>
      <point x="843" y="178" type="curve"/>
      <point x="788" y="77"/>
      <point x="757" y="43"/>
      <point x="643" y="43" type="curve" smooth="yes"/>
      <point x="459" y="43" type="line"/>
      <point x="500" y="18" type="line"/>
      <point x="629" y="683" type="line"/>
      <point x="584" y="658" type="line"/>
      <point x="754" y="658" type="line" smooth="yes"/>
      <point x="852" y="658"/>
      <point x="863" y="636"/>
      <point x="893" y="542" type="curve"/>
      <point x="902" y="540"/>
      <point x="913" y="540"/>
      <point x="923" y="542" type="curve"/>
      <point x="923" y="584"/>
      <point x="922" y="621"/>
      <point x="922" y="657" type="curve" smooth="yes"/>
      <point x="922" y="701" type="line"/>
      <point x="885" y="700"/>
      <point x="827" y="699"/>
      <point x="746" y="699" type="curve" smooth="yes"/>
      <point x="614" y="699" type="line" smooth="yes"/>
      <point x="547" y="699"/>
      <point x="410" y="701"/>
      <point x="373" y="701" type="curve"/>
      <point x="368" y="689"/>
      <point x="367" y="679"/>
      <point x="366" y="669" type="curve"/>
      <point x="405" y="666"/>
      <point x="436" y="666"/>
      <point x="455" y="658" type="curve"/>
      <point x="513" y="658" type="line"/>
      <point x="406" y="107" type="line" smooth="yes"/>
      <point x="393" y="39"/>
      <point x="388" y="39"/>
      <point x="302" y="31" type="curve"/>
      <point x="298" y="21"/>
      <point x="297" y="8"/>
    </contour>
  </outline>
  <guideline angle="0" x="0" y="659"/>
  <guideline angle="0" x="0" y="371"/>
  <guideline angle="0" x="0" y="329"/>
</glyph>
<glyph name="oslash" format="2">
  <advance width="527"/>
  <unicode hex="00F8"/>
  <outline>
    <contour>
      <point x="107" y="52" type="line"/>
      <point x="128" y="70" type="line"/>
      <point x="412" y="359" type="line"/>
      <point x="446" y="391" type="line"/>
      <point x="520" y="466" type="line"/>
      <point x="512" y="477"/>
      <point x="503" y="486"/>
      <point x="491" y="494" type="curve"/>
      <point x="423" y="426" type="line"/>
      <point x="389" y="394" type="line"/>
      <point x="104" y="102" type="line"/>
      <point x="86" y="87" type="line"/>
      <point x="9" y="10" type="line"/>
      <point x="17" y="0"/>
      <point x="28" y="-8"/>
      <point x="38" y="-17" type="curve"/>
    </contour>
    <contour>
      <point x="487" y="283" type="curve" smooth="yes"/>
      <point x="487" y="391"/>
      <point x="429" y="480"/>
      <point x="299" y="480" type="curve" smooth="yes"/>
      <point x="116" y="480"/>
      <point x="36" y="304"/>
      <point x="36" y="190" type="curve" smooth="yes"/>
      <point x="36" y="102"/>
      <point x="83" y="-12"/>
      <point x="227" y="-12" type="curve" smooth="yes"/>
      <point x="397" y="-12"/>
      <point x="487" y="149"/>
    </contour>
    <contour>
      <point x="383" y="299" type="curve" smooth="yes"/>
      <point x="383" y="176"/>
      <point x="329" y="25"/>
      <point x="230" y="25" type="curve" smooth="yes"/>
      <point x="165" y="25"/>
      <point x="140" y="89"/>
      <point x="140" y="172" type="curve" smooth="yes"/>
      <point x="140" y="299"/>
      <point x="200" y="443"/>
      <point x="296" y="443" type="curve" smooth="yes"/>
      <point x="359" y="443"/>
      <point x="383" y="383"/>
    </contour>
  </outline>
</glyph>
<glyph name="aogonek" format="2">
  <advance width="551"/>
  <unicode hex="0105"/>
  <outline>
    <contour>
      <point x="378" y="-14" type="line"/>
      <point x="312" y="-60"/>
      <point x="257" y="-110"/>
      <point x="257" y="-171" type="curve" smooth="yes"/>
      <point x="257" y="-229"/>
      <point x="307" y="-250"/>
      <point x="349" y="-250" type="curve" smooth="yes"/>
      <point x="395" y="-250"/>
      <point x="438" y="-224"/>
      <point x="474" y="-180" type="curve"/>
      <point x="471" y="-174"/>
      <point x="466" y="-167"/>
      <point x="460" y="-162" type="curve"/>
      <point x="448" y="-171"/>
      <point x="426" y="-187"/>
      <point x="395" y="-187" type="curve" smooth="yes"/>
      <point x="372" y="-187"/>
      <point x="349" y="-179"/>
      <point x="349" y="-141" type="curve" smooth="yes"/>
      <point x="349" y="-83"/>
      <point x="403" y="-33"/>
      <point x="466" y="20" type="curve" smooth="yes"/>
      <point x="492" y="41"/>
      <point x="506" y="54"/>
      <point x="536" y="93" type="curve"/>
      <point x="529" y="101"/>
      <point x="522" y="107"/>
      <point x="513" y="113" type="curve"/>
      <point x="485" y="78"/>
      <point x="446" y="51"/>
      <point x="423" y="51" type="curve" smooth="yes"/>
      <point x="409" y="51"/>
      <point x="405" y="60"/>
      <point x="405" y="72" type="curve" smooth="yes"/>
      <point x="405" y="85"/>
      <point x="410" y="102"/>
      <point x="412" y="111" type="curve" smooth="yes"/>
      <point x="458" y="309" type="line" smooth="yes"/>
      <point x="470" y="361"/>
      <point x="481" y="409"/>
      <point x="497" y="465" type="curve"/>
      <point x="494" y="469" type="line"/>
      <point x="463" y="463"/>
      <point x="432" y="459"/>
      <point x="405" y="456" type="curve"/>
      <point x="370" y="474"/>
      <point x="336" y="480"/>
      <point x="310" y="480" type="curve" smooth="yes"/>
      <point x="180" y="480"/>
      <point x="25" y="328"/>
      <point x="25" y="147" type="curve" smooth="yes"/>
      <point x="25" y="36"/>
      <point x="83" y="-11"/>
      <point x="146" y="-11" type="curve" smooth="yes"/>
      <point x="205" y="-11"/>
      <point x="262" y="29"/>
      <point x="312" y="115" type="curve"/>
      <point x="317" y="115" type="line"/>
      <point x="310" y="92"/>
      <point x="306" y="71"/>
      <point x="306" y="53" type="curve" smooth="yes"/>
      <point x="306" y="15"/>
      <point x="325" y="-12"/>
      <point x="377" y="-12" type="curve"/>
    </contour>
    <contour>
      <point x="186" y="52" type="curve" smooth="yes"/>
      <point x="157" y="52"/>
      <point x="132" y="75"/>
      <point x="132" y="154" type="curve" smooth="yes"/>
      <point x="132" y="272"/>
      <point x="187" y="435"/>
      <point x="286" y="435" type="curve" smooth="yes"/>
      <point x="318" y="435"/>
      <point x="350" y="418"/>
      <point x="378" y="392" type="curve"/>
      <point x="358" y="309" type="line" smooth="yes"/>
      <point x="311" y="115"/>
      <point x="234" y="52"/>
    </contour>
  </outline>
  <guideline angle="78.9989" x="517" y="0"/>
</glyph>
<glyph name="Dcroat" format="2">
  <advance width="763"/>
  <unicode hex="0110"/>
  <outline>
    <contour>
      <point x="420" y="347" type="line"/>
      <point x="425" y="363"/>
      <point x="428" y="378"/>
      <point x="428" y="392" type="curve"/>
      <point x="58" y="392" type="line"/>
      <point x="55" y="378"/>
      <point x="52" y="363"/>
      <point x="50" y="347" type="curve"/>
    </contour>
    <contour>
      <point x="-12" y="-1" type="curve"/>
      <point x="27" y="-1"/>
      <point x="103" y="1"/>
      <point x="146" y="1" type="curve" smooth="yes"/>
      <point x="188" y="1"/>
      <point x="240" y="-1"/>
      <point x="272" y="-1" type="curve" smooth="yes"/>
      <point x="534" y="-1"/>
      <point x="732" y="143"/>
      <point x="732" y="415" type="curve" smooth="yes"/>
      <point x="732" y="616"/>
      <point x="597" y="701"/>
      <point x="400" y="701" type="curve" smooth="yes"/>
      <point x="370" y="701"/>
      <point x="279" y="699"/>
      <point x="251" y="699" type="curve" smooth="yes"/>
      <point x="224" y="699"/>
      <point x="152" y="701"/>
      <point x="116" y="701" type="curve"/>
      <point x="113" y="690"/>
      <point x="111" y="680"/>
      <point x="110" y="669" type="curve"/>
      <point x="179" y="665"/>
      <point x="197" y="664"/>
      <point x="197" y="634" type="curve" smooth="yes"/>
      <point x="197" y="622"/>
      <point x="194" y="606"/>
      <point x="189" y="581" type="curve" smooth="yes"/>
      <point x="97" y="107" type="line" smooth="yes"/>
      <point x="83" y="38"/>
      <point x="75" y="39"/>
      <point x="-7" y="31" type="curve"/>
      <point x="-11" y="21"/>
      <point x="-12" y="8"/>
    </contour>
    <contour>
      <point x="193" y="30" type="line"/>
      <point x="319" y="683" type="line"/>
      <point x="291" y="656" type="line"/>
      <point x="304" y="658"/>
      <point x="329" y="660"/>
      <point x="354" y="660" type="curve" smooth="yes"/>
      <point x="521" y="660"/>
      <point x="613" y="569"/>
      <point x="613" y="401" type="curve" smooth="yes"/>
      <point x="613" y="257"/>
      <point x="546" y="40"/>
      <point x="280" y="40" type="curve" smooth="yes"/>
      <point x="244" y="40"/>
      <point x="207" y="44"/>
      <point x="164" y="54" type="curve"/>
    </contour>
  </outline>
</glyph>
<glyph name="eogonek" format="2">
  <advance width="446"/>
  <unicode hex="0119"/>
  <outline>
    <contour>
      <point x="236" y="-11" type="line"/>
      <point x="161" y="-64"/>
      <point x="116" y="-116"/>
      <point x="116" y="-171" type="curve" smooth="yes"/>
      <point x="116" y="-229"/>
      <point x="166" y="-250"/>
      <point x="208" y="-250" type="curve" smooth="yes"/>
      <point x="254" y="-250"/>
      <point x="297" y="-224"/>
      <point x="333" y="-180" type="curve"/>
      <point x="330" y="-174"/>
      <point x="325" y="-167"/>
      <point x="319" y="-162" type="curve"/>
      <point x="307" y="-171"/>
      <point x="285" y="-187"/>
      <point x="254" y="-187" type="curve" smooth="yes"/>
      <point x="231" y="-187"/>
      <point x="208" y="-179"/>
      <point x="208" y="-141" type="curve" smooth="yes"/>
      <point x="208" y="-80"/>
      <point x="262" y="-22"/>
      <point x="333" y="34" type="curve" smooth="yes"/>
      <point x="360" y="56"/>
      <point x="382" y="84"/>
      <point x="402" y="117" type="curve"/>
      <point x="397" y="124"/>
      <point x="388" y="131"/>
      <point x="379" y="136" type="curve"/>
      <point x="340" y="87"/>
      <point x="288" y="53"/>
      <point x="231" y="53" type="curve" smooth="yes"/>
      <point x="166" y="53"/>
      <point x="138" y="95"/>
      <point x="138" y="162" type="curve" smooth="yes"/>
      <point x="138" y="180"/>
      <point x="140" y="200"/>
      <point x="144" y="220" type="curve"/>
      <point x="288" y="236"/>
      <point x="437" y="293"/>
      <point x="437" y="398" type="curve" smooth="yes"/>
      <point x="437" y="448"/>
      <point x="403" y="480"/>
      <point x="328" y="480" type="curve" smooth="yes"/>
      <point x="156" y="480"/>
      <point x="32" y="312"/>
      <point x="32" y="163" type="curve" smooth="yes"/>
      <point x="32" y="56"/>
      <point x="96" y="-12"/>
      <point x="202" y="-12" type="curve" smooth="yes"/>
      <point x="212" y="-12"/>
      <point x="225" y="-11"/>
      <point x="235" y="-9" type="curve"/>
    </contour>
    <contour>
      <point x="300" y="438" type="curve" smooth="yes"/>
      <point x="329" y="438"/>
      <point x="342" y="418"/>
      <point x="342" y="389" type="curve" smooth="yes"/>
      <point x="342" y="309"/>
      <point x="246" y="267"/>
      <point x="152" y="254" type="curve"/>
      <point x="178" y="347"/>
      <point x="237" y="438"/>
    </contour>
  </outline>
</glyph>
<glyph name="hbar" format="2">
  <advance width="581"/>
  <unicode hex="0127"/>
  <outline>
    <contour>
      <point x="72" y="593" type="line"/>
      <point x="68" y="579"/>
      <point x="65" y="563"/>
      <point x="64" y="549" type="curve"/>
      <point x="416" y="549" type="line"/>
      <point x="420" y="563"/>
      <point x="423" y="579"/>
      <point x="424" y="593" type="curve"/>
    </contour>
    <contour>
      <point x="203" y="329" type="line"/>
      <point x="223" y="413" type="line"/>
      <point x="255" y="565" type="line" smooth="yes"/>
      <point x="268" y="629"/>
      <point x="281" y="688"/>
      <point x="297" y="745" type="curve"/>
      <point x="284" y="752" type="line"/>
      <point x="234" y="732"/>
      <point x="162" y="723"/>
      <point x="90" y="718" type="curve"/>
      <point x="88" y="709"/>
      <point x="89" y="700"/>
      <point x="91" y="691" type="curve"/>
      <point x="155" y="690"/>
      <point x="174" y="687"/>
      <point x="174" y="662" type="curve" smooth="yes"/>
      <point x="174" y="652"/>
      <point x="171" y="636"/>
      <point x="167" y="617" type="curve" smooth="yes"/>
      <point x="41" y="0" type="line"/>
      <point x="139" y="0" type="line"/>
      <point x="172" y="160" type="line"/>
    </contour>
    <contour>
      <point x="172" y="160" type="line"/>
      <point x="211" y="348"/>
      <point x="312" y="422"/>
      <point x="366" y="422" type="curve" smooth="yes"/>
      <point x="393" y="422"/>
      <point x="405" y="404"/>
      <point x="405" y="377" type="curve" smooth="yes"/>
      <point x="405" y="316"/>
      <point x="332" y="120"/>
      <point x="332" y="53" type="curve" smooth="yes"/>
      <point x="332" y="16"/>
      <point x="354" y="-12"/>
      <point x="404" y="-12" type="curve" smooth="yes"/>
      <point x="467" y="-12"/>
      <point x="519" y="33"/>
      <point x="564" y="93" type="curve"/>
      <point x="557" y="101"/>
      <point x="550" y="107"/>
      <point x="541" y="113" type="curve"/>
      <point x="513" y="78"/>
      <point x="474" y="51"/>
      <point x="451" y="51" type="curve" smooth="yes"/>
      <point x="437" y="51"/>
      <point x="433" y="61"/>
      <point x="433" y="70" type="curve" smooth="yes"/>
      <point x="433" y="111"/>
      <point x="507" y="319"/>
      <point x="507" y="390" type="curve" smooth="yes"/>
      <point x="507" y="441"/>
      <point x="471" y="480"/>
      <point x="409" y="480" type="curve" smooth="yes"/>
      <point x="340" y="480"/>
      <point x="266" y="433"/>
      <point x="212" y="345" type="curve"/>
      <point x="183" y="345" type="line"/>
    </contour>
  </outline>
</glyph>
<glyph name="iogonek" format="2">
  <advance width="304"/>
  <unicode hex="012F"/>
  <outline>
    <contour>
      <point x="269" y="113" type="curve"/>
      <point x="241" y="78"/>
      <point x="202" y="51"/>
      <point x="179" y="51" type="curve" smooth="yes"/>
      <point x="165" y="51"/>
      <point x="161" y="60"/>
      <point x="161" y="72" type="curve" smooth="yes"/>
      <point x="161" y="85"/>
      <point x="166" y="101"/>
      <point x="168" y="110" type="curve" smooth="yes"/>
      <point x="232" y="376" type="line"/>
      <point x="235" y="391"/>
      <point x="237" y="405"/>
      <point x="237" y="417" type="curve" smooth="yes"/>
      <point x="237" y="451"/>
      <point x="219" y="478"/>
      <point x="174" y="478" type="curve" smooth="yes"/>
      <point x="125" y="478"/>
      <point x="65" y="447"/>
      <point x="12" y="384" type="curve"/>
      <point x="19" y="376"/>
      <point x="26" y="369"/>
      <point x="35" y="363" type="curve"/>
      <point x="64" y="394"/>
      <point x="97" y="417"/>
      <point x="116" y="417" type="curve" smooth="yes"/>
      <point x="127" y="417"/>
      <point x="134" y="410"/>
      <point x="134" y="393" type="curve" smooth="yes"/>
      <point x="134" y="385"/>
      <point x="132" y="376"/>
      <point x="127" y="355" type="curve" smooth="yes"/>
      <point x="67" y="105" type="line" smooth="yes"/>
      <point x="63" y="87"/>
      <point x="60" y="71"/>
      <point x="60" y="56" type="curve" smooth="yes"/>
      <point x="60" y="16"/>
      <point x="80" y="-12"/>
      <point x="133" y="-12" type="curve"/>
      <point x="134" y="-14" type="line"/>
      <point x="68" y="-60"/>
      <point x="13" y="-110"/>
      <point x="13" y="-171" type="curve" smooth="yes"/>
      <point x="13" y="-229"/>
      <point x="63" y="-250"/>
      <point x="105" y="-250" type="curve" smooth="yes"/>
      <point x="151" y="-250"/>
      <point x="194" y="-224"/>
      <point x="230" y="-180" type="curve"/>
      <point x="227" y="-174"/>
      <point x="222" y="-167"/>
      <point x="216" y="-162" type="curve"/>
      <point x="204" y="-171"/>
      <point x="182" y="-187"/>
      <point x="151" y="-187" type="curve" smooth="yes"/>
      <point x="128" y="-187"/>
      <point x="105" y="-179"/>
      <point x="105" y="-141" type="curve" smooth="yes"/>
      <point x="105" y="-83"/>
      <point x="159" y="-33"/>
      <point x="222" y="20" type="curve" smooth="yes"/>
      <point x="248" y="41"/>
      <point x="262" y="54"/>
      <point x="292" y="93" type="curve"/>
      <point x="285" y="101"/>
      <point x="278" y="107"/>
    </contour>
    <contour>
      <point x="223" y="594" type="curve" smooth="yes"/>
      <point x="264" y="594"/>
      <point x="294" y="628"/>
      <point x="294" y="668" type="curve" smooth="yes"/>
      <point x="294" y="703"/>
      <point x="271" y="729"/>
      <point x="235" y="729" type="curve" smooth="yes"/>
      <point x="195" y="729"/>
      <point x="162" y="696"/>
      <point x="162" y="656" type="curve" smooth="yes"/>
      <point x="162" y="621"/>
      <point x="187" y="594"/>
    </contour>
  </outline>
  <guideline angle="90" x="278" y="0"/>
</glyph>
<glyph name="kgreenlandic" format="2">
  <advance width="539"/>
  <unicode hex="0138"/>
  <outline>
    <contour>
      <point x="217" y="321" type="line"/>
      <point x="231" y="376"/>
      <point x="238" y="401"/>
      <point x="238" y="420" type="curve" smooth="yes"/>
      <point x="238" y="450"/>
      <point x="221" y="478"/>
      <point x="175" y="478" type="curve" smooth="yes"/>
      <point x="127" y="478"/>
      <point x="67" y="447"/>
      <point x="14" y="384" type="curve"/>
      <point x="21" y="376"/>
      <point x="28" y="369"/>
      <point x="37" y="363" type="curve"/>
      <point x="66" y="394"/>
      <point x="99" y="417"/>
      <point x="118" y="417" type="curve" smooth="yes"/>
      <point x="129" y="417"/>
      <point x="136" y="409"/>
      <point x="136" y="394" type="curve" smooth="yes"/>
      <point x="136" y="384"/>
      <point x="133" y="370"/>
      <point x="128" y="347" type="curve" smooth="yes"/>
      <point x="52" y="0" type="line"/>
      <point x="150" y="0" type="line"/>
      <point x="195" y="198" type="line"/>
      <point x="222" y="321" type="line"/>
    </contour>
    <contour>
      <point x="255" y="205" type="line"/>
      <point x="443" y="269"/>
      <point x="522" y="330"/>
      <point x="522" y="404" type="curve" smooth="yes"/>
      <point x="522" y="443"/>
      <point x="500" y="480"/>
      <point x="437" y="480" type="curve" smooth="yes"/>
      <point x="362" y="480"/>
      <point x="290" y="428"/>
      <point x="225" y="332" type="curve"/>
      <point x="209" y="332" type="line"/>
      <point x="195" y="198" type="line"/>
      <point x="218" y="314"/>
      <point x="331" y="419"/>
      <point x="394" y="419" type="curve" smooth="yes"/>
      <point x="417" y="419"/>
      <point x="425" y="406"/>
      <point x="425" y="387" type="curve" smooth="yes"/>
      <point x="425" y="348"/>
      <point x="394" y="287"/>
      <point x="228" y="228" type="curve"/>
    </contour>
    <contour>
      <point x="368" y="-12" type="curve" smooth="yes"/>
      <point x="420" y="-12"/>
      <point x="475" y="29"/>
      <point x="523" y="93" type="curve"/>
      <point x="516" y="101"/>
      <point x="509" y="107"/>
      <point x="500" y="113" type="curve"/>
      <point x="472" y="80"/>
      <point x="441" y="57"/>
      <point x="417" y="57" type="curve" smooth="yes"/>
      <point x="400" y="57"/>
      <point x="387" y="68"/>
      <point x="323" y="245" type="curve"/>
      <point x="228" y="228" type="line"/>
      <point x="293" y="32"/>
      <point x="315" y="-12"/>
    </contour>
  </outline>
</glyph>
<glyph name="Lslash" format="2">
  <advance width="591"/>
  <unicode hex="0141"/>
  <outline>
    <contour>
      <point x="480" y="432" type="line"/>
      <point x="476" y="448"/>
      <point x="471" y="461"/>
      <point x="463" y="473" type="curve"/>
      <point x="51" y="308" type="line"/>
      <point x="55" y="294"/>
      <point x="59" y="280"/>
      <point x="67" y="268" type="curve"/>
    </contour>
    <contour>
      <point x="10" y="-1" type="curve"/>
      <point x="47" y="-1"/>
      <point x="113" y="1"/>
      <point x="171" y="1" type="curve" smooth="yes"/>
      <point x="296" y="1"/>
      <point x="407" y="0"/>
      <point x="532" y="0" type="curve"/>
      <point x="545" y="43"/>
      <point x="566" y="111"/>
      <point x="595" y="191" type="curve"/>
      <point x="585" y="193"/>
      <point x="569" y="193"/>
      <point x="558" y="191" type="curve"/>
      <point x="501" y="88"/>
      <point x="471" y="42"/>
      <point x="361" y="42" type="curve" smooth="yes"/>
      <point x="191" y="42" type="line"/>
      <point x="214" y="27" type="line"/>
      <point x="324" y="593" type="line" smooth="yes"/>
      <point x="337" y="662"/>
      <point x="348" y="663"/>
      <point x="434" y="670" type="curve"/>
      <point x="438" y="680"/>
      <point x="440" y="691"/>
      <point x="440" y="701" type="curve"/>
      <point x="402" y="701"/>
      <point x="336" y="699"/>
      <point x="290" y="699" type="curve" smooth="yes"/>
      <point x="241" y="699"/>
      <point x="176" y="701"/>
      <point x="138" y="701" type="curve"/>
      <point x="135" y="690"/>
      <point x="133" y="679"/>
      <point x="132" y="669" type="curve"/>
      <point x="201" y="664"/>
      <point x="219" y="663"/>
      <point x="219" y="633" type="curve" smooth="yes"/>
      <point x="219" y="621"/>
      <point x="216" y="605"/>
      <point x="211" y="581" type="curve" smooth="yes"/>
      <point x="119" y="107" type="line" smooth="yes"/>
      <point x="106" y="39"/>
      <point x="101" y="39"/>
      <point x="15" y="31" type="curve"/>
      <point x="11" y="21"/>
      <point x="10" y="8"/>
    </contour>
  </outline>
</glyph>
<glyph name="OE" format="2">
  <advance width="1007"/>
  <unicode hex="0152"/>
  <outline>
    <contour>
      <point x="906" y="0" type="curve"/>
      <point x="917" y="41"/>
      <point x="934" y="99"/>
      <point x="963" y="178" type="curve"/>
      <point x="951" y="181"/>
      <point x="937" y="181"/>
      <point x="925" y="178" type="curve"/>
      <point x="870" y="77"/>
      <point x="839" y="43"/>
      <point x="725" y="43" type="curve" smooth="yes"/>
      <point x="506" y="43" type="line"/>
      <point x="493" y="71" type="line"/>
      <point x="456" y="46"/>
      <point x="408" y="32"/>
      <point x="360" y="32" type="curve" smooth="yes"/>
      <point x="231" y="32"/>
      <point x="178" y="128"/>
      <point x="178" y="271" type="curve" smooth="yes"/>
      <point x="178" y="468"/>
      <point x="278" y="662"/>
      <point x="470" y="662" type="curve" smooth="yes"/>
      <point x="534" y="662"/>
      <point x="593" y="646"/>
      <point x="625" y="612" type="curve"/>
      <point x="644" y="658" type="line"/>
      <point x="836" y="658" type="line" smooth="yes"/>
      <point x="934" y="658"/>
      <point x="945" y="636"/>
      <point x="975" y="542" type="curve"/>
      <point x="984" y="540"/>
      <point x="995" y="540"/>
      <point x="1005" y="542" type="curve"/>
      <point x="1005" y="584"/>
      <point x="1004" y="621"/>
      <point x="1004" y="657" type="curve" smooth="yes"/>
      <point x="1004" y="701" type="line"/>
      <point x="967" y="699"/>
      <point x="909" y="699"/>
      <point x="828" y="699" type="curve" smooth="yes"/>
      <point x="662" y="699" type="line" smooth="yes"/>
      <point x="625" y="699"/>
      <point x="526" y="703"/>
      <point x="484" y="703" type="curve" smooth="yes"/>
      <point x="155" y="703"/>
      <point x="58" y="458"/>
      <point x="58" y="293" type="curve" smooth="yes"/>
      <point x="58" y="153"/>
      <point x="128" y="-8"/>
      <point x="361" y="-8" type="curve" smooth="yes"/>
      <point x="416" y="-8"/>
      <point x="478" y="1"/>
      <point x="525" y="1" type="curve" smooth="yes"/>
      <point x="651" y="1"/>
      <point x="777" y="0"/>
    </contour>
    <contour>
      <point x="802" y="230" type="curve"/>
      <point x="813" y="228"/>
      <point x="828" y="228"/>
      <point x="840" y="230" type="curve"/>
      <point x="845" y="274"/>
      <point x="858" y="342"/>
      <point x="862" y="361" type="curve" smooth="yes"/>
      <point x="870" y="399"/>
      <point x="883" y="451"/>
      <point x="892" y="487" type="curve"/>
      <point x="881" y="489"/>
      <point x="867" y="489"/>
      <point x="855" y="487" type="curve"/>
      <point x="821" y="389"/>
      <point x="813" y="385"/>
      <point x="718" y="385" type="curve" smooth="yes"/>
      <point x="613" y="385" type="line"/>
      <point x="605" y="342" type="line"/>
      <point x="709" y="342" type="line" smooth="yes"/>
      <point x="781" y="342"/>
      <point x="805" y="340"/>
      <point x="805" y="274" type="curve" smooth="yes"/>
      <point x="805" y="261"/>
      <point x="804" y="245"/>
    </contour>
    <contour>
      <point x="583" y="21" type="line"/>
      <point x="711" y="678" type="line"/>
      <point x="600" y="678" type="line"/>
      <point x="471" y="16" type="line"/>
    </contour>
  </outline>
  <guideline angle="0" x="0" y="703"/>
</glyph>
<glyph name="tcaron" format="2">
  <advance width="424"/>
  <unicode hex="0165"/>
  <outline>
    <contour>
      <point x="333" y="413" type="line"/>
      <point x="338" y="428"/>
      <point x="341" y="441"/>
      <point x="341" y="457" type="curve"/>
      <point x="159" y="457" type="line"/>
      <point x="63" y="442" type="line"/>
      <point x="59" y="432"/>
      <point x="58" y="423"/>
      <point x="58" y="413" type="curve"/>
    </contour>
    <contour>
      <point x="173" y="589" type="curve"/>
      <point x="162" y="536"/>
      <point x="146" y="472"/>
      <point x="138" y="434" type="curve" smooth="yes"/>
      <point x="71" y="132" type="line" smooth="yes"/>
      <point x="64" y="101"/>
      <point x="62" y="81"/>
      <point x="62" y="66" type="curve" smooth="yes"/>
      <point x="62" y="33"/>
      <point x="80" y="-13"/>
      <point x="145" y="-13" type="curve" smooth="yes"/>
      <point x="209" y="-13"/>
      <point x="271" y="26"/>
      <point x="318" y="92" type="curve"/>
      <point x="310" y="101"/>
      <point x="304" y="106"/>
      <point x="295" y="112" type="curve"/>
      <point x="264" y="73"/>
      <point x="221" y="48"/>
      <point x="193" y="48" type="curve" smooth="yes"/>
      <point x="169" y="48"/>
      <point x="161" y="62"/>
      <point x="161" y="83" type="curve" smooth="yes"/>
      <point x="161" y="94"/>
      <point x="164" y="113"/>
      <point x="170" y="139" type="curve" smooth="yes"/>
      <point x="236" y="428" type="line" smooth="yes"/>
      <point x="255" y="510"/>
      <point x="264" y="551"/>
      <point x="275" y="596" type="curve"/>
      <point x="272" y="600" type="line"/>
      <point x="240" y="595"/>
      <point x="205" y="591"/>
    </contour>
    <contour>
      <point x="474" y="684" type="line"/>
      <point x="378" y="485" type="line"/>
      <point x="369" y="485"/>
      <point x="355" y="489"/>
      <point x="348" y="491" type="curve"/>
      <point x="389" y="703" type="line"/>
      <point x="392" y="704"/>
      <point x="395" y="704"/>
      <point x="399" y="704" type="curve" smooth="yes"/>
      <point x="420" y="704"/>
      <point x="456" y="695"/>
      <point x="474" y="688" type="curve"/>
    </contour>
  </outline>
</glyph>
<glyph name="Tbar" format="2">
  <advance width="661"/>
  <unicode hex="0166"/>
  <outline>
    <contour>
      <point x="162" y="367" type="line"/>
      <point x="158" y="353"/>
      <point x="155" y="337"/>
      <point x="154" y="323" type="curve"/>
      <point x="532" y="323" type="line"/>
      <point x="536" y="337"/>
      <point x="539" y="353"/>
      <point x="540" y="367" type="curve"/>
    </contour>
    <contour>
      <point x="73" y="528" type="curve"/>
      <point x="83" y="526"/>
      <point x="99" y="526"/>
      <point x="110" y="528" type="curve"/>
      <point x="171" y="638"/>
      <point x="181" y="657"/>
      <point x="293" y="657" type="curve" smooth="yes"/>
      <point x="545" y="657" type="line" smooth="yes"/>
      <point x="629" y="657"/>
      <point x="643" y="637"/>
      <point x="665" y="528" type="curve"/>
      <point x="674" y="526"/>
      <point x="690" y="526"/>
      <point x="700" y="528" type="curve"/>
      <point x="700" y="580"/>
      <point x="700" y="631"/>
      <point x="704" y="701" type="curve"/>
      <point x="625" y="698"/>
      <point x="574" y="697"/>
      <point x="420" y="697" type="curve" smooth="yes"/>
      <point x="252" y="697"/>
      <point x="204" y="698"/>
      <point x="123" y="701" type="curve"/>
      <point x="106" y="643"/>
      <point x="91" y="585"/>
    </contour>
    <contour>
      <point x="360" y="688" type="line"/>
      <point x="247" y="107" type="line" smooth="yes"/>
      <point x="234" y="40"/>
      <point x="229" y="39"/>
      <point x="138" y="31" type="curve"/>
      <point x="134" y="21"/>
      <point x="133" y="8"/>
      <point x="133" y="-1" type="curve"/>
      <point x="170" y="-1"/>
      <point x="240" y="1"/>
      <point x="289" y="1" type="curve" smooth="yes"/>
      <point x="335" y="1"/>
      <point x="395" y="-1"/>
      <point x="434" y="-1" type="curve"/>
      <point x="437" y="8"/>
      <point x="439" y="21"/>
      <point x="440" y="31" type="curve"/>
      <point x="367" y="36"/>
      <point x="351" y="38"/>
      <point x="351" y="67" type="curve" smooth="yes"/>
      <point x="351" y="80"/>
      <point x="355" y="95"/>
      <point x="360" y="119" type="curve" smooth="yes"/>
      <point x="471" y="688" type="line"/>
    </contour>
  </outline>
</glyph>
<glyph name="tbar" format="2">
  <advance width="340"/>
  <unicode hex="0167"/>
  <outline>
    <contour>
      <point x="35" y="283" type="curve"/>
      <point x="325" y="283" type="line"/>
      <point x="330" y="298"/>
      <point x="333" y="311"/>
      <point x="333" y="327" type="curve"/>
      <point x="43" y="327" type="line"/>
      <point x="38" y="312"/>
      <point x="35" y="299"/>
    </contour>
    <contour>
      <point x="351" y="413" type="line"/>
      <point x="356" y="428"/>
      <point x="359" y="441"/>
      <point x="359" y="457" type="curve"/>
      <point x="162" y="457" type="line"/>
      <point x="66" y="442" type="line"/>
      <point x="62" y="432"/>
      <point x="61" y="423"/>
      <point x="61" y="413" type="curve"/>
    </contour>
    <contour>
      <point x="176" y="589" type="curve"/>
      <point x="165" y="536"/>
      <point x="149" y="472"/>
      <point x="141" y="434" type="curve" smooth="yes"/>
      <point x="74" y="132" type="line" smooth="yes"/>
      <point x="67" y="101"/>
      <point x="65" y="81"/>
      <point x="65" y="66" type="curve" smooth="yes"/>
      <point x="65" y="33"/>
      <point x="83" y="-13"/>
      <point x="148" y="-13" type="curve" smooth="yes"/>
      <point x="212" y="-13"/>
      <point x="274" y="26"/>
      <point x="321" y="92" type="curve"/>
      <point x="313" y="101"/>
      <point x="307" y="106"/>
      <point x="298" y="112" type="curve"/>
      <point x="267" y="73"/>
      <point x="224" y="48"/>
      <point x="196" y="48" type="curve" smooth="yes"/>
      <point x="172" y="48"/>
      <point x="164" y="62"/>
      <point x="164" y="83" type="curve" smooth="yes"/>
      <point x="164" y="94"/>
      <point x="167" y="113"/>
      <point x="173" y="139" type="curve" smooth="yes"/>
      <point x="239" y="428" type="line" smooth="yes"/>
      <point x="258" y="510"/>
      <point x="267" y="551"/>
      <point x="278" y="596" type="curve"/>
      <point x="275" y="600" type="line"/>
      <point x="243" y="595"/>
      <point x="208" y="591"/>
    </contour>
  </outline>
  <guideline angle="78.9989" x="273" y="0"/>
</glyph>
<glyph name="uogonek" format="2">
  <advance width="586"/>
  <unicode hex="0173"/>
  <outline>
    <contour>
      <point x="341" y="53" type="curve" smooth="yes"/>
      <point x="341" y="15"/>
      <point x="360" y="-12"/>
      <point x="412" y="-12" type="curve"/>
      <point x="413" y="-14" type="line"/>
      <point x="347" y="-60"/>
      <point x="292" y="-110"/>
      <point x="292" y="-171" type="curve" smooth="yes"/>
      <point x="292" y="-229"/>
      <point x="342" y="-250"/>
      <point x="384" y="-250" type="curve" smooth="yes"/>
      <point x="430" y="-250"/>
      <point x="473" y="-224"/>
      <point x="509" y="-180" type="curve"/>
      <point x="506" y="-174"/>
      <point x="501" y="-167"/>
      <point x="495" y="-162" type="curve"/>
      <point x="483" y="-171"/>
      <point x="461" y="-187"/>
      <point x="430" y="-187" type="curve" smooth="yes"/>
      <point x="407" y="-187"/>
      <point x="384" y="-179"/>
      <point x="384" y="-141" type="curve" smooth="yes"/>
      <point x="384" y="-83"/>
      <point x="438" y="-33"/>
      <point x="501" y="20" type="curve" smooth="yes"/>
      <point x="527" y="41"/>
      <point x="541" y="54"/>
      <point x="571" y="93" type="curve"/>
      <point x="564" y="101"/>
      <point x="557" y="107"/>
      <point x="548" y="113" type="curve"/>
      <point x="520" y="78"/>
      <point x="481" y="51"/>
      <point x="458" y="51" type="curve" smooth="yes"/>
      <point x="444" y="51"/>
      <point x="440" y="60"/>
      <point x="440" y="72" type="curve" smooth="yes"/>
      <point x="440" y="85"/>
      <point x="445" y="102"/>
      <point x="447" y="111" type="curve" smooth="yes"/>
      <point x="529" y="465" type="line"/>
      <point x="526" y="469" type="line"/>
      <point x="494" y="465"/>
      <point x="460" y="461"/>
      <point x="428" y="459" type="curve"/>
      <point x="393" y="309" type="line" smooth="yes"/>
      <point x="350" y="126"/>
      <point x="262" y="48"/>
      <point x="207" y="48" type="curve" smooth="yes"/>
      <point x="177" y="48"/>
      <point x="167" y="70"/>
      <point x="167" y="97" type="curve" smooth="yes"/>
      <point x="167" y="164"/>
      <point x="231" y="345"/>
      <point x="231" y="415" type="curve" smooth="yes"/>
      <point x="231" y="451"/>
      <point x="214" y="478"/>
      <point x="169" y="478" type="curve" smooth="yes"/>
      <point x="120" y="478"/>
      <point x="60" y="447"/>
      <point x="7" y="384" type="curve"/>
      <point x="14" y="376"/>
      <point x="21" y="369"/>
      <point x="30" y="363" type="curve"/>
      <point x="59" y="394"/>
      <point x="92" y="417"/>
      <point x="111" y="417" type="curve" smooth="yes"/>
      <point x="122" y="417"/>
      <point x="129" y="410"/>
      <point x="129" y="394" type="curve" smooth="yes"/>
      <point x="129" y="345"/>
      <point x="65" y="161"/>
      <point x="65" y="86" type="curve" smooth="yes"/>
      <point x="65" y="31"/>
      <point x="99" y="-12"/>
      <point x="167" y="-12" type="curve" smooth="yes"/>
      <point x="233" y="-12"/>
      <point x="293" y="27"/>
      <point x="347" y="115" type="curve"/>
      <point x="351" y="115" type="line"/>
      <point x="344" y="93"/>
      <point x="341" y="71"/>
    </contour>
  </outline>
  <guideline angle="90" x="568" y="0"/>
</glyph>
<glyph name="dotlessj" format="2">
  <advance width="283"/>
  <unicode hex="0237"/>
  <outline>
    <contour>
      <point x="172" y="478" type="curve" smooth="yes"/>
      <point x="123" y="478"/>
      <point x="63" y="447"/>
      <point x="10" y="384" type="curve"/>
      <point x="17" y="376"/>
      <point x="24" y="369"/>
      <point x="33" y="363" type="curve"/>
      <point x="62" y="394"/>
      <point x="95" y="417"/>
      <point x="114" y="417" type="curve" smooth="yes"/>
      <point x="125" y="417"/>
      <point x="133" y="410"/>
      <point x="133" y="393" type="curve" smooth="yes"/>
      <point x="133" y="385"/>
      <point x="131" y="376"/>
      <point x="126" y="355" type="curve" smooth="yes"/>
      <point x="44" y="-3" type="line" smooth="yes"/>
      <point x="12" y="-139"/>
      <point x="-11" y="-205"/>
      <point x="-58" y="-214" type="curve"/>
      <point x="-47" y="-224" type="line"/>
      <point x="-58" y="-184"/>
      <point x="-88" y="-148"/>
      <point x="-125" y="-148" type="curve" smooth="yes"/>
      <point x="-152" y="-148"/>
      <point x="-174" y="-168"/>
      <point x="-174" y="-195" type="curve" smooth="yes"/>
      <point x="-174" y="-231"/>
      <point x="-138" y="-255"/>
      <point x="-87" y="-255" type="curve" smooth="yes"/>
      <point x="38" y="-255"/>
      <point x="118" y="-107"/>
      <point x="168" y="109" type="curve" smooth="yes"/>
      <point x="230" y="376" type="line"/>
      <point x="234" y="391"/>
      <point x="235" y="408"/>
      <point x="235" y="416" type="curve" smooth="yes"/>
      <point x="235" y="452"/>
      <point x="217" y="478"/>
    </contour>
  </outline>
  <guideline angle="79.0044" x="167" y="0"/>
  <guideline angle="79.0044" x="63" y="0"/>
</glyph>
<glyph name="gravecomb" format="2">
  <unicode hex="0300"/>
  <outline>
    <contour>
      <point x="-323" y="729" type="line"/>
      <point x="-222" y="543" type="line"/>
      <point x="-214" y="544"/>
      <point x="-202" y="547"/>
      <point x="-196" y="552" type="curve"/>
      <point x="-225" y="743" type="line"/>
      <point x="-233" y="745"/>
      <point x="-246" y="746"/>
      <point x="-256" y="746" type="curve" smooth="yes"/>
      <point x="-283" y="746"/>
      <point x="-310" y="740"/>
      <point x="-323" y="733" type="curve"/>
    </contour>
  </outline>
</glyph>
<glyph name="tildecomb" format="2">
  <unicode hex="0303"/>
  <outline>
    <contour>
      <point x="-49" y="721" type="curve"/>
      <point x="-69" y="681"/>
      <point x="-94" y="661"/>
      <point x="-121" y="661" type="curve" smooth="yes"/>
      <point x="-141" y="661"/>
      <point x="-157" y="671"/>
      <point x="-171.808" y="681.536" type="curve" smooth="yes"/>
      <point x="-195.977" y="698.733"/>
      <point x="-221.211" y="713"/>
      <point x="-248" y="713" type="curve" smooth="yes"/>
      <point x="-305" y="713"/>
      <point x="-352" y="667"/>
      <point x="-384" y="590" type="curve"/>
      <point x="-374" y="585"/>
      <point x="-363" y="581"/>
      <point x="-354" y="579" type="curve"/>
      <point x="-336" y="616"/>
      <point x="-314" y="636"/>
      <point x="-285" y="636" type="curve" smooth="yes"/>
      <point x="-263" y="636"/>
      <point x="-245" y="625"/>
      <point x="-216" y="607" type="curve" smooth="yes"/>
      <point x="-192" y="592"/>
      <point x="-176" y="585"/>
      <point x="-154" y="585" type="curve" smooth="yes"/>
      <point x="-100" y="585"/>
      <point x="-50" y="627"/>
      <point x="-19" y="710" type="curve"/>
      <point x="-28" y="714"/>
      <point x="-38" y="718"/>
    </contour>
  </outline>
</glyph>
<glyph name="macroncomb" format="2">
  <unicode hex="0304"/>
  <outline>
    <contour>
      <point x="-344" y="656" type="line"/>
      <point x="-349" y="640"/>
      <point x="-352" y="622"/>
      <point x="-353" y="606" type="curve"/>
      <point x="-77" y="606" type="line"/>
      <point x="-72" y="622"/>
      <point x="-69" y="640"/>
      <point x="-68" y="656" type="curve"/>
    </contour>
  </outline>
</glyph>
<glyph name="brevecomb" format="2">
  <unicode hex="0306"/>
  <outline>
    <contour>
      <point x="-319" y="734" type="curve"/>
      <point x="-330" y="733"/>
      <point x="-340" y="732"/>
      <point x="-350" y="729" type="curve"/>
      <point x="-353" y="709"/>
      <point x="-354" y="693"/>
      <point x="-354" y="681" type="curve" smooth="yes"/>
      <point x="-354" y="610"/>
      <point x="-321" y="539"/>
      <point x="-230" y="539" type="curve" smooth="yes"/>
      <point x="-103" y="539"/>
      <point x="-57" y="678"/>
      <point x="-57" y="728" type="curve"/>
      <point x="-65" y="731"/>
      <point x="-75" y="733"/>
      <point x="-86" y="734" type="curve"/>
      <point x="-112" y="651"/>
      <point x="-158" y="618"/>
      <point x="-223" y="618" type="curve" smooth="yes"/>
      <point x="-283" y="618"/>
      <point x="-320" y="645"/>
      <point x="-320" y="719" type="curve" smooth="yes"/>
      <point x="-320" y="724"/>
      <point x="-320" y="726"/>
    </contour>
  </outline>
</glyph>
<glyph name="dieresisbelowcomb" format="2">
  <unicode hex="0324"/>
  <outline>
    <contour>
      <point x="-271" y="-215" type="curve" smooth="yes"/>
      <point x="-233" y="-215"/>
      <point x="-205" y="-184"/>
      <point x="-205" y="-147" type="curve" smooth="yes"/>
      <point x="-205" y="-114"/>
      <point x="-226" y="-90"/>
      <point x="-260" y="-90" type="curve" smooth="yes"/>
      <point x="-297" y="-90"/>
      <point x="-327" y="-121"/>
      <point x="-327" y="-158" type="curve" smooth="yes"/>
      <point x="-327" y="-190"/>
      <point x="-304" y="-215"/>
    </contour>
    <contour>
      <point x="-465" y="-215" type="curve" smooth="yes"/>
      <point x="-427" y="-215"/>
      <point x="-399" y="-184"/>
      <point x="-399" y="-147" type="curve" smooth="yes"/>
      <point x="-399" y="-114"/>
      <point x="-420" y="-90"/>
      <point x="-454" y="-90" type="curve" smooth="yes"/>
      <point x="-491" y="-90"/>
      <point x="-521" y="-121"/>
      <point x="-521" y="-158" type="curve" smooth="yes"/>
      <point x="-521" y="-190"/>
      <point x="-498" y="-215"/>
    </contour>
  </outline>
</glyph>
<glyph name="ringbelowcomb" format="2">
  <unicode hex="0325"/>
  <outline>
    <contour>
      <point x="-484" y="-167" type="curve" smooth="yes"/>
      <point x="-484" y="-231"/>
      <point x="-427" y="-258"/>
      <point x="-370" y="-258" type="curve" smooth="yes"/>
      <point x="-296" y="-258"/>
      <point x="-244" y="-213"/>
      <point x="-244" y="-147" type="curve" smooth="yes"/>
      <point x="-244" y="-88"/>
      <point x="-290" y="-56"/>
      <point x="-352" y="-56" type="curve" smooth="yes"/>
      <point x="-424" y="-56"/>
      <point x="-484" y="-98"/>
    </contour>
    <contour>
      <point x="-355" y="-85" type="curve" smooth="yes"/>
      <point x="-321" y="-85"/>
      <point x="-307" y="-115"/>
      <point x="-307" y="-148" type="curve" smooth="yes"/>
      <point x="-307" y="-191"/>
      <point x="-330" y="-227"/>
      <point x="-367" y="-227" type="curve" smooth="yes"/>
      <point x="-400" y="-227"/>
      <point x="-421" y="-199"/>
      <point x="-421" y="-162" type="curve" smooth="yes"/>
      <point x="-421" y="-119"/>
      <point x="-392" y="-85"/>
    </contour>
  </outline>
</glyph>
<glyph name="commaaccentcomb" format="2">
  <unicode hex="0326"/>
  <outline>
    <contour>
      <point x="-355" y="-44" type="curve" smooth="yes"/>
      <point x="-390" y="-44"/>
      <point x="-419" y="-65"/>
      <point x="-419" y="-101" type="curve" smooth="yes"/>
      <point x="-419" y="-127"/>
      <point x="-404" y="-151"/>
      <point x="-368" y="-151" type="curve" smooth="yes"/>
      <point x="-353" y="-151"/>
      <point x="-343" y="-147"/>
      <point x="-331" y="-134" type="curve"/>
      <point x="-341" y="-141" type="line"/>
      <point x="-341" y="-148" type="line" smooth="yes"/>
      <point x="-341" y="-191"/>
      <point x="-379" y="-225"/>
      <point x="-447" y="-236" type="curve"/>
      <point x="-447" y="-242"/>
      <point x="-444" y="-260"/>
      <point x="-442" y="-266" type="curve"/>
      <point x="-358" y="-253"/>
      <point x="-287" y="-205"/>
      <point x="-287" y="-125" type="curve" smooth="yes"/>
      <point x="-287" y="-76"/>
      <point x="-312" y="-44"/>
    </contour>
  </outline>
</glyph>
<glyph name="macrondblbelowcomb" format="2">
  <unicode hex="035F"/>
  <outline>
    <contour>
      <point x="-495" y="-103" type="line"/>
      <point x="-500" y="-119"/>
      <point x="-504" y="-137"/>
      <point x="-505" y="-153" type="curve"/>
      <point x="349" y="-153" type="line"/>
      <point x="354" y="-137"/>
      <point x="358" y="-119"/>
      <point x="359" y="-103" type="curve"/>
    </contour>
  </outline>
</glyph>
<glyph name="ZWNJ" format="2">
  <unicode hex="200C"/>
  <outline>
    <contour>
      <point x="88" y="773" type="line"/>
      <point x="-113" y="-262" type="line"/>
      <point x="-85" y="-262" type="line"/>
      <point x="116" y="773" type="line"/>
    </contour>
  </outline>
</glyph>
<glyph name="emdash" format="2">
  <advance width="1000"/>
  <unicode hex="2014"/>
  <outline>
    <contour>
      <point x="978" y="223" type="line"/>
      <point x="984" y="244"/>
      <point x="988" y="262"/>
      <point x="990" y="281" type="curve"/>
      <point x="23" y="281" type="line"/>
      <point x="17" y="262"/>
      <point x="13" y="242"/>
      <point x="11" y="223" type="curve"/>
    </contour>
  </outline>
</glyph>
<glyph name="quoteleft" format="2">
  <advance width="220"/>
  <unicode hex="2018"/>
  <outline>
    <contour>
      <point x="174" y="552" type="curve" smooth="yes"/>
      <point x="159" y="552"/>
      <point x="147" y="548"/>
      <point x="134" y="538" type="curve"/>
      <point x="145" y="543" type="line"/>
      <point x="145" y="550" type="line" smooth="yes"/>
      <point x="145" y="620"/>
      <point x="204" y="671"/>
      <point x="276" y="694" type="curve"/>
      <point x="266" y="723" type="line"/>
      <point x="147" y="690"/>
      <point x="82" y="606"/>
      <point x="82" y="524" type="curve" smooth="yes"/>
      <point x="82" y="468"/>
      <point x="111" y="428"/>
      <point x="161" y="428" type="curve" smooth="yes"/>
      <point x="200" y="428"/>
      <point x="233" y="452"/>
      <point x="233" y="492" type="curve" smooth="yes"/>
      <point x="233" y="527"/>
      <point x="208" y="552"/>
    </contour>
  </outline>
  <guideline angle="79.01" x="-23" y="0"/>
  <guideline angle="79.0044" x="139" y="0"/>
</glyph>
<glyph name="quoteright" format="2">
  <advance width="220"/>
  <unicode hex="2019"/>
  <outline>
    <contour>
      <point x="182" y="711" type="curve" smooth="yes"/>
      <point x="143" y="711"/>
      <point x="110" y="687"/>
      <point x="110" y="647" type="curve" smooth="yes"/>
      <point x="110" y="612"/>
      <point x="135" y="587"/>
      <point x="169" y="587" type="curve" smooth="yes"/>
      <point x="184" y="587"/>
      <point x="196" y="591"/>
      <point x="209" y="601" type="curve"/>
      <point x="198" y="596" type="line"/>
      <point x="198" y="589" type="line" smooth="yes"/>
      <point x="198" y="519"/>
      <point x="139" y="468"/>
      <point x="67" y="445" type="curve"/>
      <point x="77" y="416" type="line"/>
      <point x="196" y="449"/>
      <point x="261" y="533"/>
      <point x="261" y="615" type="curve" smooth="yes"/>
      <point x="261" y="671"/>
      <point x="232" y="711"/>
    </contour>
  </outline>
  <guideline angle="0" x="0" y="416"/>
  <guideline angle="0" x="0" y="445"/>
  <guideline angle="79.01" x="-17" y="0"/>
  <guideline angle="79.0044" x="144" y="0"/>
</glyph>
<glyph name="daggerdbl" format="2">
  <advance width="554"/>
  <unicode hex="2021"/>
  <outline>
    <contour>
      <point x="308" y="415" type="curve" smooth="yes"/>
      <point x="402" y="415"/>
      <point x="467" y="380"/>
      <point x="495" y="380" type="curve" smooth="yes"/>
      <point x="515" y="380"/>
      <point x="545" y="397"/>
      <point x="545" y="430" type="curve" smooth="yes"/>
      <point x="545" y="454"/>
      <point x="529" y="475"/>
      <point x="505" y="475" type="curve" smooth="yes"/>
      <point x="474" y="475"/>
      <point x="406" y="444"/>
      <point x="314" y="444" type="curve" smooth="yes"/>
      <point x="222" y="444"/>
      <point x="146" y="475"/>
      <point x="130" y="475" type="curve" smooth="yes"/>
      <point x="93" y="475"/>
      <point x="77" y="450"/>
      <point x="77" y="423" type="curve" smooth="yes"/>
      <point x="77" y="402"/>
      <point x="93" y="380"/>
      <point x="121" y="380" type="curve" smooth="yes"/>
      <point x="147" y="380"/>
      <point x="208" y="415"/>
    </contour>
    <contour>
      <point x="238" y="154" type="curve" smooth="yes"/>
      <point x="238" y="24"/>
      <point x="148" y="-83"/>
      <point x="148" y="-134" type="curve" smooth="yes"/>
      <point x="148" y="-167"/>
      <point x="168" y="-183"/>
      <point x="197" y="-183" type="curve" smooth="yes"/>
      <point x="235" y="-183"/>
      <point x="257" y="-154"/>
      <point x="257" y="-119" type="curve" smooth="yes"/>
      <point x="257" y="-106"/>
      <point x="253" y="-84"/>
      <point x="253" y="-20" type="curve" smooth="yes"/>
      <point x="253" y="178"/>
      <point x="333" y="241"/>
      <point x="333" y="260" type="curve" smooth="yes"/>
      <point x="333" y="276"/>
      <point x="324" y="318"/>
      <point x="324" y="374" type="curve" smooth="yes"/>
      <point x="325" y="505"/>
      <point x="410" y="625"/>
      <point x="410" y="663" type="curve" smooth="yes"/>
      <point x="410" y="693"/>
      <point x="390" y="711"/>
      <point x="362" y="711" type="curve" smooth="yes"/>
      <point x="333" y="711"/>
      <point x="302" y="692"/>
      <point x="302" y="656" type="curve" smooth="yes"/>
      <point x="302" y="643"/>
      <point x="307" y="607"/>
      <point x="307" y="557" type="curve" smooth="yes"/>
      <point x="307" y="360"/>
      <point x="225" y="282"/>
      <point x="225" y="266" type="curve" smooth="yes"/>
      <point x="225" y="254"/>
      <point x="238" y="206"/>
    </contour>
    <contour>
      <point x="245" y="87" type="curve" smooth="yes"/>
      <point x="339" y="87"/>
      <point x="404" y="52"/>
      <point x="432" y="52" type="curve" smooth="yes"/>
      <point x="452" y="52"/>
      <point x="482" y="69"/>
      <point x="482" y="102" type="curve" smooth="yes"/>
      <point x="482" y="126"/>
      <point x="466" y="147"/>
      <point x="442" y="147" type="curve" smooth="yes"/>
      <point x="411" y="147"/>
      <point x="344" y="116"/>
      <point x="252" y="116" type="curve" smooth="yes"/>
      <point x="160" y="116"/>
      <point x="83" y="147"/>
      <point x="67" y="147" type="curve" smooth="yes"/>
      <point x="30" y="147"/>
      <point x="14" y="122"/>
      <point x="14" y="95" type="curve" smooth="yes"/>
      <point x="14" y="74"/>
      <point x="30" y="52"/>
      <point x="58" y="52" type="curve" smooth="yes"/>
      <point x="84" y="52"/>
      <point x="145" y="87"/>
    </contour>
  </outline>
</glyph>
<glyph name="foursuperior" format="2">
  <advance width="422"/>
  <unicode hex="2074"/>
  <outline>
    <contour>
      <point x="292" y="332" type="curve" smooth="yes"/>
      <point x="305" y="332"/>
      <point x="319" y="332"/>
      <point x="332" y="333" type="curve"/>
      <point x="406" y="713" type="line" smooth="yes"/>
      <point x="409" y="728"/>
      <point x="412" y="746"/>
      <point x="422" y="783" type="curve"/>
      <point x="404" y="786"/>
      <point x="382" y="788"/>
      <point x="360" y="788" type="curve"/>
      <point x="256" y="684"/>
      <point x="159" y="591"/>
      <point x="68" y="488" type="curve"/>
      <point x="67" y="475"/>
      <point x="68" y="453"/>
      <point x="70" y="440" type="curve"/>
      <point x="437" y="440" type="line"/>
      <point x="443" y="459"/>
      <point x="448" y="481"/>
      <point x="451" y="505" type="curve"/>
      <point x="108" y="505" type="line"/>
      <point x="110" y="485" type="line"/>
      <point x="183" y="564"/>
      <point x="260" y="642"/>
      <point x="346" y="725" type="curve"/>
      <point x="332" y="747" type="line"/>
      <point x="251" y="333" type="line"/>
      <point x="263" y="332"/>
      <point x="280" y="332"/>
    </contour>
  </outline>
</glyph>
<glyph name="sixsuperior" format="2">
  <advance width="421"/>
  <unicode hex="2076"/>
  <outline>
    <contour>
      <point x="245" y="324" type="curve" smooth="yes"/>
      <point x="359" y="324"/>
      <point x="434" y="401"/>
      <point x="434" y="493" type="curve" smooth="yes"/>
      <point x="434" y="572"/>
      <point x="377" y="619"/>
      <point x="300" y="619" type="curve" smooth="yes"/>
      <point x="244" y="619"/>
      <point x="189" y="594"/>
      <point x="168" y="560" type="curve"/>
      <point x="171" y="541" type="line"/>
      <point x="208" y="568"/>
      <point x="243" y="573"/>
      <point x="264" y="573" type="curve" smooth="yes"/>
      <point x="315" y="573"/>
      <point x="347" y="542"/>
      <point x="347" y="483" type="curve" smooth="yes"/>
      <point x="347" y="417"/>
      <point x="307" y="358"/>
      <point x="246" y="358" type="curve" smooth="yes"/>
      <point x="204" y="358"/>
      <point x="176" y="385"/>
      <point x="176" y="468" type="curve" smooth="yes"/>
      <point x="176" y="611"/>
      <point x="260" y="765"/>
      <point x="433" y="756" type="curve"/>
      <point x="436" y="765"/>
      <point x="437" y="778"/>
      <point x="437" y="788" type="curve"/>
      <point x="426" y="789"/>
      <point x="425" y="789"/>
      <point x="423" y="789" type="curve"/>
      <point x="239" y="789"/>
      <point x="88" y="643"/>
      <point x="88" y="481" type="curve" smooth="yes"/>
      <point x="88" y="378"/>
      <point x="150" y="324"/>
    </contour>
  </outline>
</glyph>
<glyph name="sevensuperior" format="2">
  <advance width="350"/>
  <unicode hex="2077"/>
  <outline>
    <contour>
      <point x="179" y="325" type="curve" smooth="yes"/>
      <point x="198" y="325"/>
      <point x="214" y="325"/>
      <point x="225" y="326" type="curve"/>
      <point x="265" y="453"/>
      <point x="339" y="618"/>
      <point x="434" y="757" type="curve"/>
      <point x="434" y="770"/>
      <point x="430" y="777"/>
      <point x="426" y="782" type="curve"/>
      <point x="407" y="780"/>
      <point x="366" y="780"/>
      <point x="316" y="780" type="curve" smooth="yes"/>
      <point x="246" y="780"/>
      <point x="193" y="780"/>
      <point x="130" y="783" type="curve"/>
      <point x="122" y="743"/>
      <point x="104" y="671"/>
      <point x="87" y="623" type="curve"/>
      <point x="95" y="620"/>
      <point x="107" y="619"/>
      <point x="117" y="620" type="curve"/>
      <point x="153" y="695"/>
      <point x="175" y="705"/>
      <point x="217" y="706" type="curve" smooth="yes"/>
      <point x="250" y="707"/>
      <point x="357" y="706"/>
      <point x="387" y="706" type="curve"/>
      <point x="386" y="738" type="line"/>
      <point x="276" y="594"/>
      <point x="194" y="462"/>
      <point x="133" y="334" type="curve"/>
      <point x="134" y="326" type="line"/>
      <point x="147" y="325"/>
      <point x="160" y="325"/>
    </contour>
  </outline>
</glyph>
<glyph name="rupee" format="2">
  <advance width="500"/>
  <unicode hex="20B9"/>
  <outline>
    <contour>
      <point x="472" y="427" type="line"/>
      <point x="480" y="471" type="line"/>
      <point x="96" y="471" type="line"/>
      <point x="88" y="427" type="line"/>
    </contour>
    <contour>
      <point x="498" y="576" type="line"/>
      <point x="506" y="620" type="line"/>
      <point x="122" y="620" type="line"/>
      <point x="114" y="576" type="line"/>
    </contour>
    <contour>
      <point x="355" y="604" type="line"/>
      <point x="191" y="576" type="line"/>
      <point x="276" y="576"/>
      <point x="307" y="529"/>
      <point x="307" y="475" type="curve" smooth="yes"/>
      <point x="307" y="386"/>
      <point x="261" y="323"/>
      <point x="146" y="323" type="curve" smooth="yes"/>
      <point x="70" y="323" type="line"/>
      <point x="62" y="279" type="line"/>
      <point x="93" y="279" type="line" smooth="yes"/>
      <point x="139" y="279"/>
      <point x="151" y="266"/>
      <point x="167" y="238" type="curve" smooth="yes"/>
      <point x="211" y="161"/>
      <point x="251" y="81"/>
      <point x="285" y="0" type="curve"/>
      <point x="302" y="0"/>
      <point x="314" y="1"/>
      <point x="326" y="1" type="curve" smooth="yes"/>
      <point x="360" y="1"/>
      <point x="411" y="-1"/>
      <point x="442" y="-1" type="curve"/>
      <point x="446" y="7"/>
      <point x="448" y="18"/>
      <point x="448" y="27" type="curve"/>
      <point x="387" y="32"/>
      <point x="378" y="36"/>
      <point x="334.578" y="121.421" type="curve" smooth="yes"/>
      <point x="317" y="156"/>
      <point x="294" y="199"/>
      <point x="270" y="240" type="curve" smooth="yes"/>
      <point x="261" y="255"/>
      <point x="249" y="272"/>
      <point x="236" y="283" type="curve"/>
      <point x="236" y="311" type="line"/>
      <point x="195" y="277" type="line"/>
      <point x="320" y="296"/>
      <point x="409" y="363"/>
      <point x="409" y="467" type="curve" smooth="yes"/>
      <point x="409" y="532"/>
      <point x="366" y="564"/>
      <point x="341" y="574" type="curve"/>
    </contour>
  </outline>
  <guideline angle="80.0071" x="13" y="0"/>
  <guideline angle="80.0071" x="39" y="0"/>
  <guideline angle="80.0071" x="404" y="0"/>
</glyph>
<glyph name="trademark" format="2">
  <advance width="861"/>
  <unicode hex="2122"/>
  <outline>
    <contour>
      <point x="778" y="698" type="line"/>
      <point x="748" y="698" type="line"/>
      <point x="654" y="465" type="line"/>
      <point x="563" y="698" type="line"/>
      <point x="512" y="698" type="line"/>
      <point x="501" y="682" type="line"/>
      <point x="619" y="378" type="line"/>
      <point x="627" y="378"/>
      <point x="644" y="379"/>
      <point x="652" y="381" type="curve"/>
    </contour>
    <contour>
      <point x="168" y="383" type="curve"/>
      <point x="192" y="383"/>
      <point x="219" y="384"/>
      <point x="254" y="384" type="curve" smooth="yes"/>
      <point x="281" y="384"/>
      <point x="320" y="383"/>
      <point x="341" y="383" type="curve"/>
      <point x="342" y="390"/>
      <point x="342" y="399"/>
      <point x="341" y="405" type="curve"/>
      <point x="287" y="409"/>
      <point x="286" y="410"/>
      <point x="286" y="455" type="curve" smooth="yes"/>
      <point x="286" y="683" type="line"/>
      <point x="223" y="683" type="line"/>
      <point x="223" y="448" type="line" smooth="yes"/>
      <point x="223" y="409"/>
      <point x="220" y="409"/>
      <point x="168" y="404" type="curve"/>
      <point x="167" y="398"/>
      <point x="167" y="389"/>
    </contour>
    <contour>
      <point x="95" y="601" type="curve"/>
      <point x="101" y="600"/>
      <point x="109" y="600"/>
      <point x="115" y="601" type="curve"/>
      <point x="124" y="625"/>
      <point x="131" y="643"/>
      <point x="142" y="654" type="curve"/>
      <point x="153" y="667"/>
      <point x="171" y="671"/>
      <point x="196" y="671" type="curve" smooth="yes"/>
      <point x="313" y="671" type="line" smooth="yes"/>
      <point x="339" y="671"/>
      <point x="355" y="667"/>
      <point x="367" y="654" type="curve"/>
      <point x="379" y="642"/>
      <point x="386" y="625"/>
      <point x="395" y="601" type="curve"/>
      <point x="401" y="600"/>
      <point x="409" y="600"/>
      <point x="415" y="601" type="curve"/>
      <point x="411" y="635"/>
      <point x="408" y="669"/>
      <point x="406" y="700" type="curve"/>
      <point x="383" y="698"/>
      <point x="357" y="697"/>
      <point x="255" y="697" type="curve" smooth="yes"/>
      <point x="156" y="697"/>
      <point x="130" y="698"/>
      <point x="106" y="699" type="curve"/>
      <point x="104" y="669"/>
      <point x="99" y="635"/>
    </contour>
    <contour>
      <point x="512" y="698" type="line"/>
      <point x="487" y="698"/>
      <point x="454" y="699"/>
      <point x="430" y="699" type="curve"/>
      <point x="429" y="693"/>
      <point x="429" y="684"/>
      <point x="430" y="677" type="curve"/>
      <point x="480" y="672"/>
      <point x="484" y="672"/>
      <point x="482" y="633" type="curve" smooth="yes"/>
      <point x="474" y="455" type="line" smooth="yes"/>
      <point x="472" y="411"/>
      <point x="471" y="412"/>
      <point x="421" y="405" type="curve"/>
      <point x="420" y="398"/>
      <point x="420" y="389"/>
      <point x="421" y="383" type="curve"/>
      <point x="444" y="383"/>
      <point x="471" y="384"/>
      <point x="488" y="384" type="curve" smooth="yes"/>
      <point x="506" y="384"/>
      <point x="532" y="383"/>
      <point x="555" y="383" type="curve"/>
      <point x="556" y="389"/>
      <point x="556" y="398"/>
      <point x="555" y="404" type="curve"/>
      <point x="503" y="411"/>
      <point x="503" y="413"/>
      <point x="504" y="448" type="curve" smooth="yes"/>
      <point x="512" y="682" type="line"/>
    </contour>
    <contour>
      <point x="766" y="685" type="line"/>
      <point x="770" y="448" type="line" smooth="yes"/>
      <point x="771" y="410"/>
      <point x="768" y="410"/>
      <point x="719" y="404" type="curve"/>
      <point x="718" y="398"/>
      <point x="718" y="389"/>
      <point x="719" y="383" type="curve"/>
      <point x="742" y="383"/>
      <point x="771" y="384"/>
      <point x="803" y="384" type="curve" smooth="yes"/>
      <point x="830" y="384"/>
      <point x="870" y="383"/>
      <point x="885" y="383" type="curve"/>
      <point x="886" y="390"/>
      <point x="886" y="399"/>
      <point x="885" y="405" type="curve"/>
      <point x="832" y="409"/>
      <point x="833" y="410"/>
      <point x="832" y="455" type="curve" smooth="yes"/>
      <point x="828" y="633" type="line" smooth="yes"/>
      <point x="827" y="671"/>
      <point x="830" y="673"/>
      <point x="882" y="677" type="curve"/>
      <point x="883" y="683"/>
      <point x="883" y="692"/>
      <point x="882" y="699" type="curve"/>
      <point x="845" y="699"/>
      <point x="787" y="697"/>
      <point x="778" y="698" type="curve"/>
    </contour>
  </outline>
</glyph>
<glyph name="minus" format="2">
  <advance width="581"/>
  <unicode hex="2212"/>
  <outline>
    <contour>
      <point x="529" y="211" type="line"/>
      <point x="530" y="226"/>
      <point x="530" y="250"/>
      <point x="529" y="266" type="curve"/>
      <point x="52" y="266" type="line"/>
      <point x="50" y="250"/>
      <point x="50" y="226"/>
      <point x="52" y="211" type="curve"/>
    </contour>
  </outline>
</glyph>
<glyph name="BASE" format="2">
  <advance width="724"/>
  <unicode hex="25CC"/>
  <outline>
    <contour>
      <point x="87" y="266" type="curve" smooth="yes"/>
      <point x="115" y="266"/>
      <point x="129" y="281"/>
      <point x="129" y="309" type="curve" smooth="yes"/>
      <point x="129" y="337"/>
      <point x="115" y="352"/>
      <point x="87" y="352" type="curve" smooth="yes"/>
      <point x="58" y="352"/>
      <point x="43" y="337"/>
      <point x="43" y="309" type="curve" smooth="yes"/>
      <point x="43" y="281"/>
      <point x="58" y="266"/>
    </contour>
    <contour>
      <point x="122" y="127" type="curve" smooth="yes"/>
      <point x="151" y="127"/>
      <point x="165" y="141"/>
      <point x="165" y="169" type="curve" smooth="yes"/>
      <point x="165" y="198"/>
      <point x="151" y="212"/>
      <point x="122" y="212" type="curve" smooth="yes"/>
      <point x="94" y="212"/>
      <point x="80" y="198"/>
      <point x="80" y="169" type="curve" smooth="yes"/>
      <point x="80" y="141"/>
      <point x="94" y="127"/>
    </contour>
    <contour>
      <point x="226" y="24" type="curve" smooth="yes"/>
      <point x="254" y="24"/>
      <point x="269" y="38"/>
      <point x="269" y="66" type="curve" smooth="yes"/>
      <point x="269" y="95"/>
      <point x="254" y="109"/>
      <point x="226" y="109" type="curve" smooth="yes"/>
      <point x="197" y="109"/>
      <point x="183" y="95"/>
      <point x="183" y="66" type="curve" smooth="yes"/>
      <point x="183" y="38"/>
      <point x="197" y="24"/>
    </contour>
    <contour>
      <point x="365" y="-12" type="curve" smooth="yes"/>
      <point x="393" y="-12"/>
      <point x="408" y="2"/>
      <point x="408" y="30" type="curve" smooth="yes"/>
      <point x="408" y="59"/>
      <point x="393" y="73"/>
      <point x="365" y="73" type="curve" smooth="yes"/>
      <point x="337" y="73"/>
      <point x="322" y="59"/>
      <point x="322" y="30" type="curve" smooth="yes"/>
      <point x="322" y="2"/>
      <point x="337" y="-12"/>
    </contour>
    <contour>
      <point x="122" y="406" type="curve" smooth="yes"/>
      <point x="151" y="406"/>
      <point x="165" y="421"/>
      <point x="165" y="448" type="curve" smooth="yes"/>
      <point x="165" y="477"/>
      <point x="151" y="491"/>
      <point x="122" y="491" type="curve" smooth="yes"/>
      <point x="94" y="491"/>
      <point x="80" y="477"/>
      <point x="80" y="448" type="curve" smooth="yes"/>
      <point x="80" y="421"/>
      <point x="94" y="406"/>
    </contour>
    <contour>
      <point x="504" y="24" type="curve" smooth="yes"/>
      <point x="534" y="24"/>
      <point x="548" y="38"/>
      <point x="548" y="66" type="curve" smooth="yes"/>
      <point x="548" y="95"/>
      <point x="534" y="109"/>
      <point x="504" y="109" type="curve" smooth="yes"/>
      <point x="476" y="109"/>
      <point x="462" y="95"/>
      <point x="462" y="66" type="curve" smooth="yes"/>
      <point x="462" y="38"/>
      <point x="476" y="24"/>
    </contour>
    <contour>
      <point x="226" y="509" type="curve" smooth="yes"/>
      <point x="254" y="509"/>
      <point x="269" y="523"/>
      <point x="269" y="552" type="curve" smooth="yes"/>
      <point x="269" y="580"/>
      <point x="254" y="594"/>
      <point x="226" y="594" type="curve" smooth="yes"/>
      <point x="197" y="594"/>
      <point x="183" y="580"/>
      <point x="183" y="552" type="curve" smooth="yes"/>
      <point x="183" y="523"/>
      <point x="197" y="509"/>
    </contour>
    <contour>
      <point x="608" y="127" type="curve" smooth="yes"/>
      <point x="636" y="127"/>
      <point x="651" y="141"/>
      <point x="651" y="169" type="curve" smooth="yes"/>
      <point x="651" y="198"/>
      <point x="636" y="212"/>
      <point x="608" y="212" type="curve" smooth="yes"/>
      <point x="580" y="212"/>
      <point x="566" y="198"/>
      <point x="566" y="169" type="curve" smooth="yes"/>
      <point x="566" y="141"/>
      <point x="580" y="127"/>
    </contour>
    <contour>
      <point x="643" y="266" type="curve" smooth="yes"/>
      <point x="673" y="266"/>
      <point x="687" y="281"/>
      <point x="687" y="309" type="curve" smooth="yes"/>
      <point x="687" y="337"/>
      <point x="673" y="352"/>
      <point x="643" y="352" type="curve" smooth="yes"/>
      <point x="615" y="352"/>
      <point x="602" y="337"/>
      <point x="602" y="309" type="curve" smooth="yes"/>
      <point x="602" y="281"/>
      <point x="615" y="266"/>
    </contour>
    <contour>
      <point x="365" y="547" type="curve" smooth="yes"/>
      <point x="393" y="547"/>
      <point x="408" y="560"/>
      <point x="408" y="587" type="curve" smooth="yes"/>
      <point x="408" y="616"/>
      <point x="393" y="630"/>
      <point x="365" y="630" type="curve" smooth="yes"/>
      <point x="337" y="630"/>
      <point x="322" y="616"/>
      <point x="322" y="587" type="curve" smooth="yes"/>
      <point x="322" y="560"/>
      <point x="337" y="547"/>
    </contour>
    <contour>
      <point x="504" y="509" type="curve" smooth="yes"/>
      <point x="534" y="509"/>
      <point x="548" y="523"/>
      <point x="548" y="552" type="curve" smooth="yes"/>
      <point x="548" y="580"/>
      <point x="534" y="594"/>
      <point x="504" y="594" type="curve" smooth="yes"/>
      <point x="476" y="594"/>
      <point x="462" y="580"/>
      <point x="462" y="552" type="curve" smooth="yes"/>
      <point x="462" y="523"/>
      <point x="476" y="509"/>
    </contour>
    <contour>
      <point x="608" y="406" type="curve" smooth="yes"/>
      <point x="636" y="406"/>
      <point x="651" y="421"/>
      <point x="651" y="448" type="curve" smooth="yes"/>
      <point x="651" y="477"/>
      <point x="636" y="491"/>
      <point x="608" y="491" type="curve" smooth="yes"/>
      <point x="580" y="491"/>
      <point x="566" y="477"/>
      <point x="566" y="448" type="curve" smooth="yes"/>
      <point x="566" y="421"/>
      <point x="580" y="406"/>
    </contour>
  </outline>
</glyph>
<glyph name="AE.sc" format="2">
  <advance width="743"/>
  <outline>
    <contour>
      <point x="648" y="-3" type="curve"/>
      <point x="659" y="38"/>
      <point x="680" y="100"/>
      <point x="703" y="167" type="curve"/>
      <point x="694" y="170"/>
      <point x="681" y="170"/>
      <point x="672" y="167" type="curve"/>
      <point x="647" y="125"/>
      <point x="623" y="86"/>
      <point x="597" y="65" type="curve" smooth="yes"/>
      <point x="572" y="45"/>
      <point x="549" y="41"/>
      <point x="487" y="41" type="curve" smooth="yes"/>
      <point x="404" y="41" type="line"/>
      <point x="403" y="49"/>
      <point x="409" y="77"/>
      <point x="417" y="120" type="curve" smooth="yes"/>
      <point x="495" y="524" type="line"/>
      <point x="395" y="524" type="line"/>
      <point x="309" y="83" type="line" smooth="yes"/>
      <point x="300" y="39"/>
      <point x="299" y="38"/>
      <point x="214" y="30" type="curve"/>
      <point x="210" y="19"/>
      <point x="208" y="9"/>
      <point x="208" y="-1" type="curve"/>
      <point x="245" y="-1"/>
      <point x="308" y="1"/>
      <point x="368" y="1" type="curve" smooth="yes"/>
      <point x="459" y="1"/>
      <point x="549" y="-3"/>
    </contour>
    <contour>
      <point x="-102" y="-1" type="curve"/>
      <point x="-67" y="-1"/>
      <point x="-31" y="1"/>
      <point x="14" y="1" type="curve" smooth="yes"/>
      <point x="40" y="1"/>
      <point x="77" y="-1"/>
      <point x="124" y="-1" type="curve"/>
      <point x="128" y="9"/>
      <point x="130" y="19"/>
      <point x="130" y="30" type="curve"/>
      <point x="85" y="35"/>
      <point x="63" y="38"/>
      <point x="63" y="59" type="curve" smooth="yes"/>
      <point x="63" y="73"/>
      <point x="77" y="90"/>
      <point x="89" y="107" type="curve" smooth="yes"/>
      <point x="384" y="517" type="line"/>
      <point x="342" y="525" type="line"/>
      <point x="48" y="130" type="line" smooth="yes"/>
      <point x="-16" y="45"/>
      <point x="-24" y="38"/>
      <point x="-96" y="30" type="curve"/>
      <point x="-100" y="19"/>
      <point x="-102" y="9"/>
    </contour>
    <contour>
      <point x="548" y="153" type="curve"/>
      <point x="559" y="151"/>
      <point x="571" y="151"/>
      <point x="581" y="153" type="curve"/>
      <point x="588" y="197"/>
      <point x="594" y="230"/>
      <point x="601" y="269" type="curve" smooth="yes"/>
      <point x="604" y="285"/>
      <point x="608" y="304"/>
      <point x="626" y="382" type="curve"/>
      <point x="616" y="384"/>
      <point x="603" y="384"/>
      <point x="593" y="382" type="curve"/>
      <point x="569" y="298"/>
      <point x="550" y="290"/>
      <point x="476" y="290" type="curve" smooth="yes"/>
      <point x="182" y="290" type="line"/>
      <point x="160" y="248" type="line"/>
      <point x="476" y="248" type="line" smooth="yes"/>
      <point x="542" y="248"/>
      <point x="557" y="244"/>
    </contour>
    <contour>
      <point x="698" y="402" type="curve"/>
      <point x="708" y="400"/>
      <point x="718" y="400"/>
      <point x="728" y="402" type="curve"/>
      <point x="727" y="456"/>
      <point x="727" y="505"/>
      <point x="727" y="550" type="curve"/>
      <point x="716" y="550"/>
      <point x="603" y="548"/>
      <point x="498" y="548" type="curve" smooth="yes"/>
      <point x="426" y="548"/>
      <point x="315" y="550"/>
      <point x="278" y="550" type="curve"/>
      <point x="273" y="541"/>
      <point x="271" y="529"/>
      <point x="272" y="519" type="curve"/>
      <point x="309" y="519"/>
      <point x="334" y="514"/>
      <point x="367" y="508" type="curve"/>
      <point x="580" y="508" type="line" smooth="yes"/>
      <point x="630" y="508"/>
      <point x="652" y="503"/>
      <point x="669" y="482" type="curve" smooth="yes"/>
      <point x="681" y="467"/>
      <point x="693" y="439"/>
    </contour>
  </outline>
  <guideline angle="0" x="0" y="501"/>
  <guideline angle="0" x="0" y="282"/>
  <guideline angle="0" x="0" y="250"/>
  <guideline angle="0" x="0" y="508"/>
</glyph>
<glyph name="B.sc" format="2">
  <advance width="531"/>
  <outline>
    <contour>
      <point x="-13" y="-1" type="curve"/>
      <point x="23" y="-1"/>
      <point x="85" y="1"/>
      <point x="118" y="1" type="curve" smooth="yes"/>
      <point x="158" y="1"/>
      <point x="178" y="-2"/>
      <point x="242" y="-2" type="curve" smooth="yes"/>
      <point x="279" y="-2"/>
      <point x="318" y="-1"/>
      <point x="361" y="12" type="curve" smooth="yes"/>
      <point x="423" y="31"/>
      <point x="482" y="75"/>
      <point x="482" y="157" type="curve" smooth="yes"/>
      <point x="482" y="240"/>
      <point x="421" y="283"/>
      <point x="344" y="288" type="curve"/>
      <point x="344" y="289" type="line"/>
      <point x="438" y="310"/>
      <point x="501" y="358"/>
      <point x="501" y="433" type="curve" smooth="yes"/>
      <point x="501" y="524"/>
      <point x="408" y="550"/>
      <point x="322" y="550" type="curve" smooth="yes"/>
      <point x="298" y="550"/>
      <point x="259" y="548"/>
      <point x="226" y="548" type="curve" smooth="yes"/>
      <point x="193" y="548"/>
      <point x="125" y="550"/>
      <point x="88" y="550" type="curve"/>
      <point x="85" y="542"/>
      <point x="83" y="529"/>
      <point x="82" y="519" type="curve"/>
      <point x="144" y="513"/>
      <point x="161" y="511"/>
      <point x="161" y="486" type="curve" smooth="yes"/>
      <point x="161" y="478"/>
      <point x="159" y="468"/>
      <point x="156" y="454" type="curve" smooth="yes"/>
      <point x="84" y="83" type="line" smooth="yes"/>
      <point x="76" y="39"/>
      <point x="74" y="38"/>
      <point x="-7" y="30" type="curve"/>
      <point x="-11" y="22"/>
      <point x="-13" y="9"/>
    </contour>
    <contour>
      <point x="180" y="44" type="curve"/>
      <point x="181" y="58"/>
      <point x="186" y="80"/>
      <point x="192" y="112" type="curve" smooth="yes"/>
      <point x="268" y="508" type="line"/>
      <point x="282" y="510"/>
      <point x="300" y="511"/>
      <point x="310" y="511" type="curve" smooth="yes"/>
      <point x="362" y="511"/>
      <point x="397" y="483"/>
      <point x="397" y="423" type="curve" smooth="yes"/>
      <point x="397" y="354"/>
      <point x="349" y="304"/>
      <point x="249" y="304" type="curve" smooth="yes"/>
      <point x="241" y="304"/>
      <point x="230" y="304"/>
      <point x="217" y="306" type="curve"/>
      <point x="209" y="263" type="line"/>
      <point x="227" y="265"/>
      <point x="248" y="265"/>
      <point x="263" y="265" type="curve" smooth="yes"/>
      <point x="328" y="265"/>
      <point x="373" y="241"/>
      <point x="373" y="162" type="curve" smooth="yes"/>
      <point x="373" y="80"/>
      <point x="325" y="36"/>
      <point x="239" y="36" type="curve" smooth="yes"/>
      <point x="216" y="36"/>
      <point x="200" y="39"/>
    </contour>
  </outline>
</glyph>
<glyph name="C.sc" format="2">
  <advance width="568"/>
  <outline>
    <contour>
      <point x="281" y="-14" type="curve" smooth="yes"/>
      <point x="348" y="-14"/>
      <point x="407" y="7"/>
      <point x="467" y="24" type="curve"/>
      <point x="479" y="82"/>
      <point x="489" y="134"/>
      <point x="506" y="189" type="curve"/>
      <point x="494" y="190"/>
      <point x="482" y="190"/>
      <point x="472" y="190" type="curve"/>
      <point x="425" y="73"/>
      <point x="372" y="26"/>
      <point x="291" y="26" type="curve" smooth="yes"/>
      <point x="192" y="26"/>
      <point x="153" y="96"/>
      <point x="153" y="217" type="curve" smooth="yes"/>
      <point x="153" y="343"/>
      <point x="212" y="520"/>
      <point x="367" y="520" type="curve" smooth="yes"/>
      <point x="450" y="520"/>
      <point x="495" y="479"/>
      <point x="500" y="358" type="curve"/>
      <point x="510" y="357"/>
      <point x="522" y="357"/>
      <point x="533" y="360" type="curve"/>
      <point x="540" y="424"/>
      <point x="546" y="479"/>
      <point x="554" y="534" type="curve"/>
      <point x="547" y="533"/>
      <point x="541" y="532"/>
      <point x="535" y="532" type="curve" smooth="yes"/>
      <point x="485" y="532"/>
      <point x="451" y="560"/>
      <point x="369" y="560" type="curve" smooth="yes"/>
      <point x="152" y="560"/>
      <point x="43" y="388"/>
      <point x="43" y="228" type="curve" smooth="yes"/>
      <point x="43" y="87"/>
      <point x="130" y="-14"/>
    </contour>
  </outline>
  <guideline angle="345.265" x="0" y="630"/>
</glyph>
<glyph name="Dcroat.sc" format="2">
  <advance width="624"/>
  <outline>
    <contour>
      <point x="-13" y="-1" type="curve"/>
      <point x="24" y="-1"/>
      <point x="84" y="1"/>
      <point x="119" y="1" type="curve" smooth="yes"/>
      <point x="149" y="1"/>
      <point x="204" y="-1"/>
      <point x="226" y="-1" type="curve" smooth="yes"/>
      <point x="436" y="-1"/>
      <point x="589" y="116"/>
      <point x="589" y="328" type="curve" smooth="yes"/>
      <point x="589" y="485"/>
      <point x="481" y="550"/>
      <point x="337" y="550" type="curve" smooth="yes"/>
      <point x="306" y="550"/>
      <point x="262" y="548"/>
      <point x="226" y="548" type="curve" smooth="yes"/>
      <point x="192" y="548"/>
      <point x="125" y="550"/>
      <point x="88" y="550" type="curve"/>
      <point x="85" y="542"/>
      <point x="83" y="529"/>
      <point x="82" y="519" type="curve"/>
      <point x="144" y="513"/>
      <point x="161" y="511"/>
      <point x="161" y="486" type="curve" smooth="yes"/>
      <point x="161" y="478"/>
      <point x="159" y="468"/>
      <point x="156" y="454" type="curve" smooth="yes"/>
      <point x="84" y="83" type="line" smooth="yes"/>
      <point x="75" y="39"/>
      <point x="74" y="38"/>
      <point x="-7" y="30" type="curve"/>
      <point x="-11" y="22"/>
      <point x="-13" y="9"/>
    </contour>
    <contour>
      <point x="243" y="39" type="curve" smooth="yes"/>
      <point x="227" y="39"/>
      <point x="201" y="41"/>
      <point x="180" y="46" type="curve"/>
      <point x="182" y="61"/>
      <point x="186" y="86"/>
      <point x="193" y="120" type="curve" smooth="yes"/>
      <point x="268" y="508" type="line"/>
      <point x="277" y="508"/>
      <point x="304" y="510"/>
      <point x="324" y="510" type="curve" smooth="yes"/>
      <point x="418" y="510"/>
      <point x="480" y="447"/>
      <point x="480" y="315" type="curve" smooth="yes"/>
      <point x="480" y="202"/>
      <point x="431" y="39"/>
    </contour>
    <contour>
      <point x="350" y="268" type="line"/>
      <point x="354" y="278"/>
      <point x="358" y="300"/>
      <point x="358" y="311" type="curve"/>
      <point x="39" y="311" type="line"/>
      <point x="35" y="300"/>
      <point x="31" y="278"/>
      <point x="31" y="268" type="curve"/>
    </contour>
  </outline>
</glyph>
<glyph name="E.sc" format="2">
  <advance width="519"/>
  <outline>
    <contour>
      <point x="424" y="-3" type="curve"/>
      <point x="435" y="38"/>
      <point x="456" y="100"/>
      <point x="479" y="167" type="curve"/>
      <point x="470" y="170"/>
      <point x="457" y="170"/>
      <point x="448" y="167" type="curve"/>
      <point x="423" y="125"/>
      <point x="400" y="87"/>
      <point x="371" y="64" type="curve" smooth="yes"/>
      <point x="349" y="46"/>
      <point x="329" y="41"/>
      <point x="269" y="41" type="curve" smooth="yes"/>
      <point x="180" y="41" type="line"/>
      <point x="180" y="50"/>
      <point x="185" y="77"/>
      <point x="193" y="120" type="curve" smooth="yes"/>
      <point x="272" y="530" type="line"/>
      <point x="245" y="508" type="line"/>
      <point x="356" y="508" type="line" smooth="yes"/>
      <point x="406" y="508"/>
      <point x="428" y="503"/>
      <point x="445" y="482" type="curve" smooth="yes"/>
      <point x="457" y="467"/>
      <point x="469" y="439"/>
      <point x="474" y="402" type="curve"/>
      <point x="484" y="400"/>
      <point x="494" y="400"/>
      <point x="504" y="402" type="curve"/>
      <point x="503" y="436"/>
      <point x="503" y="505"/>
      <point x="503" y="550" type="curve"/>
      <point x="492" y="550"/>
      <point x="385" y="548"/>
      <point x="274" y="548" type="curve" smooth="yes"/>
      <point x="201" y="548"/>
      <point x="124" y="550"/>
      <point x="87" y="550" type="curve"/>
      <point x="84" y="542"/>
      <point x="82" y="529"/>
      <point x="81" y="519" type="curve"/>
      <point x="143" y="513"/>
      <point x="160" y="511"/>
      <point x="160" y="486" type="curve" smooth="yes"/>
      <point x="160" y="478"/>
      <point x="159" y="468"/>
      <point x="156" y="454" type="curve" smooth="yes"/>
      <point x="84" y="83" type="line" smooth="yes"/>
      <point x="75" y="39"/>
      <point x="74" y="38"/>
      <point x="-7" y="30" type="curve"/>
      <point x="-11" y="22"/>
      <point x="-13" y="9"/>
      <point x="-13" y="-1" type="curve"/>
      <point x="24" y="-1"/>
      <point x="88" y="1"/>
      <point x="144" y="1" type="curve" smooth="yes"/>
      <point x="235" y="1"/>
      <point x="325" y="-3"/>
    </contour>
    <contour>
      <point x="324" y="168" type="curve"/>
      <point x="335" y="166"/>
      <point x="347" y="166"/>
      <point x="357" y="168" type="curve"/>
      <point x="364" y="212"/>
      <point x="370" y="245"/>
      <point x="377" y="284" type="curve" smooth="yes"/>
      <point x="380" y="300"/>
      <point x="384" y="319"/>
      <point x="402" y="397" type="curve"/>
      <point x="392" y="399"/>
      <point x="379" y="399"/>
      <point x="369" y="397" type="curve"/>
      <point x="345" y="313"/>
      <point x="326" y="305"/>
      <point x="252" y="305" type="curve" smooth="yes"/>
      <point x="207" y="305" type="line"/>
      <point x="199" y="264" type="line"/>
      <point x="252" y="264" type="line" smooth="yes"/>
      <point x="318" y="264"/>
      <point x="333" y="259"/>
    </contour>
  </outline>
  <guideline angle="90" x="-166" y="0"/>
</glyph>
<glyph name="G_macronbelowcomb_hlinebelow" format="2">
  <advance width="1344"/>
  <outline>
    <component base="G"/>
    <component base="h" xOffset="768"/>
    <contour>
      <point x="182" y="-103" type="line"/>
      <point x="177" y="-119"/>
      <point x="173" y="-137"/>
      <point x="172" y="-153" type="curve"/>
      <point x="1139" y="-153" type="line"/>
      <point x="1144" y="-137"/>
      <point x="1148" y="-119"/>
      <point x="1149" y="-103" type="curve"/>
    </contour>
  </outline>
</glyph>
<glyph name="G_macronbelowcomb_hlinebelow.sc" format="2">
  <advance width="1310"/>
  <outline>
    <component base="G.sc"/>
    <component base="H.sc" xOffset="628"/>
    <contour>
      <point x="131" y="-103" type="line"/>
      <point x="126" y="-119"/>
      <point x="122" y="-137"/>
      <point x="121" y="-153" type="curve"/>
      <point x="1025" y="-153" type="line"/>
      <point x="1030" y="-137"/>
      <point x="1034" y="-119"/>
      <point x="1035" y="-103" type="curve"/>
    </contour>
  </outline>
</glyph>
<glyph name="Germandbls.sc" format="2">
  <advance width="606"/>
  <outline>
    <contour>
      <point x="218" y="342" type="line" smooth="yes"/>
      <point x="241" y="460"/>
      <point x="300" y="514"/>
      <point x="413" y="514" type="curve" smooth="yes"/>
      <point x="471" y="514"/>
      <point x="518" y="502"/>
      <point x="553" y="488" type="curve"/>
      <point x="589" y="524" type="line"/>
      <point x="557" y="538"/>
      <point x="485" y="560"/>
      <point x="405" y="560" type="curve" smooth="yes"/>
      <point x="240" y="560"/>
      <point x="147" y="498"/>
      <point x="118" y="348" type="curve" smooth="yes"/>
      <point x="52" y="3" type="line" smooth="yes"/>
      <point x="33" y="-98"/>
      <point x="15" y="-145"/>
      <point x="-46" y="-159" type="curve"/>
      <point x="-19" y="-173" type="line"/>
      <point x="-26" y="-122"/>
      <point x="-59" y="-86"/>
      <point x="-101" y="-86" type="curve" smooth="yes"/>
      <point x="-134" y="-86"/>
      <point x="-159" y="-109"/>
      <point x="-159" y="-142" type="curve" smooth="yes"/>
      <point x="-159" y="-183"/>
      <point x="-120" y="-200"/>
      <point x="-72" y="-200" type="curve" smooth="yes"/>
      <point x="-32" y="-200"/>
      <point x="22" y="-187"/>
      <point x="70" y="-140" type="curve" smooth="yes"/>
      <point x="121" y="-91"/>
      <point x="147" y="-23"/>
      <point x="161" y="49" type="curve" smooth="yes"/>
    </contour>
    <contour>
      <point x="354" y="-15" type="curve" smooth="yes"/>
      <point x="472" y="-15"/>
      <point x="560" y="63"/>
      <point x="560" y="165" type="curve" smooth="yes"/>
      <point x="560" y="262"/>
      <point x="478" y="313"/>
      <point x="411" y="343" type="curve"/>
      <point x="321" y="281" type="line"/>
      <point x="398" y="252"/>
      <point x="467" y="207"/>
      <point x="467" y="129" type="curve" smooth="yes"/>
      <point x="467" y="67"/>
      <point x="424" y="23"/>
      <point x="360" y="23" type="curve" smooth="yes"/>
      <point x="293" y="23"/>
      <point x="260" y="69"/>
      <point x="263" y="173" type="curve"/>
      <point x="254" y="174"/>
      <point x="242" y="173"/>
      <point x="234" y="171" type="curve"/>
      <point x="224" y="106"/>
      <point x="210" y="52"/>
      <point x="201" y="5" type="curve"/>
      <point x="206" y="5"/>
      <point x="211" y="6"/>
      <point x="216" y="6" type="curve" smooth="yes"/>
      <point x="265" y="6"/>
      <point x="293" y="-15"/>
    </contour>
    <contour>
      <point x="430" y="287" type="line"/>
      <point x="592" y="504" type="line"/>
      <point x="592" y="512"/>
      <point x="591" y="518"/>
      <point x="589" y="524" type="curve"/>
      <point x="490" y="524" type="line"/>
      <point x="321" y="300" type="line"/>
      <point x="320" y="294"/>
      <point x="320" y="287"/>
      <point x="321" y="281" type="curve"/>
    </contour>
  </outline>
</glyph>
<glyph name="H.sc" format="2">
  <advance width="682"/>
  <outline>
    <contour>
      <point x="-13" y="-1" type="curve"/>
      <point x="24" y="-1"/>
      <point x="84" y="1"/>
      <point x="119" y="1" type="curve" smooth="yes"/>
      <point x="153" y="1"/>
      <point x="217" y="-1"/>
      <point x="253" y="-1" type="curve"/>
      <point x="257" y="9"/>
      <point x="259" y="19"/>
      <point x="259" y="30" type="curve"/>
      <point x="199" y="36"/>
      <point x="183" y="38"/>
      <point x="183" y="61" type="curve" smooth="yes"/>
      <point x="183" y="70"/>
      <point x="185" y="80"/>
      <point x="188" y="95" type="curve" smooth="yes"/>
      <point x="261" y="467" type="line" smooth="yes"/>
      <point x="269" y="509"/>
      <point x="270" y="511"/>
      <point x="352" y="519" type="curve"/>
      <point x="356" y="529"/>
      <point x="358" y="539"/>
      <point x="358" y="550" type="curve"/>
      <point x="324" y="550"/>
      <point x="259" y="548"/>
      <point x="227" y="548" type="curve" smooth="yes"/>
      <point x="192" y="548"/>
      <point x="125" y="550"/>
      <point x="88" y="550" type="curve"/>
      <point x="85" y="542"/>
      <point x="83" y="529"/>
      <point x="82" y="519" type="curve"/>
      <point x="144" y="513"/>
      <point x="161" y="511"/>
      <point x="161" y="486" type="curve" smooth="yes"/>
      <point x="161" y="478"/>
      <point x="159" y="468"/>
      <point x="156" y="454" type="curve" smooth="yes"/>
      <point x="84" y="83" type="line" smooth="yes"/>
      <point x="76" y="39"/>
      <point x="74" y="38"/>
      <point x="-7" y="30" type="curve"/>
      <point x="-11" y="22"/>
      <point x="-13" y="9"/>
    </contour>
    <contour>
      <point x="495" y="268" type="line"/>
      <point x="503" y="310" type="line"/>
      <point x="211" y="310" type="line"/>
      <point x="203" y="268" type="line"/>
    </contour>
    <contour>
      <point x="337" y="-1" type="curve"/>
      <point x="374" y="-1"/>
      <point x="432" y="1"/>
      <point x="466" y="1" type="curve" smooth="yes"/>
      <point x="501" y="1"/>
      <point x="563" y="-1"/>
      <point x="602" y="-1" type="curve"/>
      <point x="606" y="9"/>
      <point x="608" y="19"/>
      <point x="608" y="30" type="curve"/>
      <point x="547" y="36"/>
      <point x="531" y="39"/>
      <point x="531" y="61" type="curve" smooth="yes"/>
      <point x="531" y="70"/>
      <point x="533" y="81"/>
      <point x="536" y="95" type="curve" smooth="yes"/>
      <point x="609" y="467" type="line" smooth="yes"/>
      <point x="617" y="509"/>
      <point x="616" y="511"/>
      <point x="699" y="519" type="curve"/>
      <point x="703" y="529"/>
      <point x="705" y="539"/>
      <point x="705" y="550" type="curve"/>
      <point x="667" y="550"/>
      <point x="610" y="548"/>
      <point x="573" y="548" type="curve" smooth="yes"/>
      <point x="539" y="548"/>
      <point x="475" y="550"/>
      <point x="440" y="550" type="curve"/>
      <point x="437" y="542"/>
      <point x="435" y="529"/>
      <point x="434" y="519" type="curve"/>
      <point x="493" y="513"/>
      <point x="509" y="511"/>
      <point x="509" y="488" type="curve" smooth="yes"/>
      <point x="509" y="479"/>
      <point x="507" y="469"/>
      <point x="504" y="454" type="curve" smooth="yes"/>
      <point x="432" y="83" type="line" smooth="yes"/>
      <point x="423" y="39"/>
      <point x="423" y="38"/>
      <point x="343" y="30" type="curve"/>
      <point x="339" y="22"/>
      <point x="337" y="9"/>
    </contour>
  </outline>
  <guideline angle="0" x="0" y="250"/>
</glyph>
<glyph name="I.sc" format="2">
  <advance width="334"/>
  <outline>
    <contour>
      <point x="-13" y="-1" type="curve"/>
      <point x="24" y="-1"/>
      <point x="84" y="1"/>
      <point x="119" y="1" type="curve" smooth="yes"/>
      <point x="153" y="1"/>
      <point x="218" y="-1"/>
      <point x="254" y="-1" type="curve"/>
      <point x="258" y="9"/>
      <point x="260" y="19"/>
      <point x="260" y="30" type="curve"/>
      <point x="200" y="36"/>
      <point x="183" y="38"/>
      <point x="183" y="61" type="curve" smooth="yes"/>
      <point x="183" y="70"/>
      <point x="185" y="80"/>
      <point x="188" y="95" type="curve" smooth="yes"/>
      <point x="261" y="467" type="line" smooth="yes"/>
      <point x="269" y="509"/>
      <point x="270" y="511"/>
      <point x="352" y="519" type="curve"/>
      <point x="356" y="529"/>
      <point x="358" y="539"/>
      <point x="358" y="550" type="curve"/>
      <point x="324" y="550"/>
      <point x="259" y="548"/>
      <point x="227" y="548" type="curve" smooth="yes"/>
      <point x="192" y="548"/>
      <point x="124" y="550"/>
      <point x="87" y="550" type="curve"/>
      <point x="84" y="542"/>
      <point x="82" y="529"/>
      <point x="81" y="519" type="curve"/>
      <point x="143" y="513"/>
      <point x="161" y="511"/>
      <point x="161" y="486" type="curve" smooth="yes"/>
      <point x="161" y="478"/>
      <point x="159" y="468"/>
      <point x="156" y="454" type="curve" smooth="yes"/>
      <point x="84" y="83" type="line" smooth="yes"/>
      <point x="75" y="39"/>
      <point x="74" y="38"/>
      <point x="-7" y="30" type="curve"/>
      <point x="-11" y="22"/>
      <point x="-13" y="9"/>
    </contour>
  </outline>
</glyph>
